<?xml version="1.0" encoding="utf-8" standalone="no"?>
<!DOCTYPE svg PUBLIC "-//W3C//DTD SVG 1.1//EN"
  "http://www.w3.org/Graphics/SVG/1.1/DTD/svg11.dtd">
<!-- Created with matplotlib (http://matplotlib.org/) -->
<svg height="466pt" version="1.1" viewBox="0 0 632 466" width="632pt" xmlns="http://www.w3.org/2000/svg" xmlns:xlink="http://www.w3.org/1999/xlink">
 <defs>
  <style type="text/css">
*{stroke-linecap:butt;stroke-linejoin:round;}
  </style>
 </defs>
 <g id="figure_1">
  <g id="patch_1">
   <path d="M 0 466.56 
L 632.16 466.56 
L 632.16 0 
L 0 0 
z
" style="fill:#ffffff;"/>
  </g>
  <g id="axes_1">
   <g id="patch_2">
    <path d="M 79.02 415.2384 
L 568.944 415.2384 
L 568.944 55.9872 
L 79.02 55.9872 
z
" style="fill:#ffffff;"/>
   </g>
   <g id="matplotlib.axis_1">
    <g id="xtick_1">
     <g id="line2d_1">
      <path clip-path="url(#p29869e5730)" d="M 101.289273 415.2384 
L 101.289273 55.9872 
" style="fill:none;stroke:#b0b0b0;stroke-linecap:square;stroke-width:0.8;"/>
     </g>
     <g id="line2d_2">
      <defs>
       <path d="M 0 0 
L 0 3.5 
" id="m77036a54b3" style="stroke:#000000;stroke-width:0.8;"/>
      </defs>
      <g>
       <use style="stroke:#000000;stroke-width:0.8;" x="101.289273" xlink:href="#m77036a54b3" y="415.2384"/>
      </g>
     </g>
     <g id="text_1">
      <!-- 0 -->
      <defs>
       <path d="M 31.78125 66.40625 
Q 24.171875 66.40625 20.328125 58.90625 
Q 16.5 51.421875 16.5 36.375 
Q 16.5 21.390625 20.328125 13.890625 
Q 24.171875 6.390625 31.78125 6.390625 
Q 39.453125 6.390625 43.28125 13.890625 
Q 47.125 21.390625 47.125 36.375 
Q 47.125 51.421875 43.28125 58.90625 
Q 39.453125 66.40625 31.78125 66.40625 
z
M 31.78125 74.21875 
Q 44.046875 74.21875 50.515625 64.515625 
Q 56.984375 54.828125 56.984375 36.375 
Q 56.984375 17.96875 50.515625 8.265625 
Q 44.046875 -1.421875 31.78125 -1.421875 
Q 19.53125 -1.421875 13.0625 8.265625 
Q 6.59375 17.96875 6.59375 36.375 
Q 6.59375 54.828125 13.0625 64.515625 
Q 19.53125 74.21875 31.78125 74.21875 
z
" id="DejaVuSans-30"/>
      </defs>
      <g transform="translate(98.108023 429.836838)scale(0.1 -0.1)">
       <use xlink:href="#DejaVuSans-30"/>
      </g>
     </g>
    </g>
    <g id="xtick_2">
     <g id="line2d_3">
      <path clip-path="url(#p29869e5730)" d="M 165.098077 415.2384 
L 165.098077 55.9872 
" style="fill:none;stroke:#b0b0b0;stroke-linecap:square;stroke-width:0.8;"/>
     </g>
     <g id="line2d_4">
      <g>
       <use style="stroke:#000000;stroke-width:0.8;" x="165.098077" xlink:href="#m77036a54b3" y="415.2384"/>
      </g>
     </g>
     <g id="text_2">
      <!-- 50 -->
      <defs>
       <path d="M 10.796875 72.90625 
L 49.515625 72.90625 
L 49.515625 64.59375 
L 19.828125 64.59375 
L 19.828125 46.734375 
Q 21.96875 47.46875 24.109375 47.828125 
Q 26.265625 48.1875 28.421875 48.1875 
Q 40.625 48.1875 47.75 41.5 
Q 54.890625 34.8125 54.890625 23.390625 
Q 54.890625 11.625 47.5625 5.09375 
Q 40.234375 -1.421875 26.90625 -1.421875 
Q 22.3125 -1.421875 17.546875 -0.640625 
Q 12.796875 0.140625 7.71875 1.703125 
L 7.71875 11.625 
Q 12.109375 9.234375 16.796875 8.0625 
Q 21.484375 6.890625 26.703125 6.890625 
Q 35.15625 6.890625 40.078125 11.328125 
Q 45.015625 15.765625 45.015625 23.390625 
Q 45.015625 31 40.078125 35.4375 
Q 35.15625 39.890625 26.703125 39.890625 
Q 22.75 39.890625 18.8125 39.015625 
Q 14.890625 38.140625 10.796875 36.28125 
z
" id="DejaVuSans-35"/>
      </defs>
      <g transform="translate(158.735577 429.836838)scale(0.1 -0.1)">
       <use xlink:href="#DejaVuSans-35"/>
       <use x="63.623047" xlink:href="#DejaVuSans-30"/>
      </g>
     </g>
    </g>
    <g id="xtick_3">
     <g id="line2d_5">
      <path clip-path="url(#p29869e5730)" d="M 228.906881 415.2384 
L 228.906881 55.9872 
" style="fill:none;stroke:#b0b0b0;stroke-linecap:square;stroke-width:0.8;"/>
     </g>
     <g id="line2d_6">
      <g>
       <use style="stroke:#000000;stroke-width:0.8;" x="228.906881" xlink:href="#m77036a54b3" y="415.2384"/>
      </g>
     </g>
     <g id="text_3">
      <!-- 100 -->
      <defs>
       <path d="M 12.40625 8.296875 
L 28.515625 8.296875 
L 28.515625 63.921875 
L 10.984375 60.40625 
L 10.984375 69.390625 
L 28.421875 72.90625 
L 38.28125 72.90625 
L 38.28125 8.296875 
L 54.390625 8.296875 
L 54.390625 0 
L 12.40625 0 
z
" id="DejaVuSans-31"/>
      </defs>
      <g transform="translate(219.363131 429.836838)scale(0.1 -0.1)">
       <use xlink:href="#DejaVuSans-31"/>
       <use x="63.623047" xlink:href="#DejaVuSans-30"/>
       <use x="127.246094" xlink:href="#DejaVuSans-30"/>
      </g>
     </g>
    </g>
    <g id="xtick_4">
     <g id="line2d_7">
      <path clip-path="url(#p29869e5730)" d="M 292.715686 415.2384 
L 292.715686 55.9872 
" style="fill:none;stroke:#b0b0b0;stroke-linecap:square;stroke-width:0.8;"/>
     </g>
     <g id="line2d_8">
      <g>
       <use style="stroke:#000000;stroke-width:0.8;" x="292.715686" xlink:href="#m77036a54b3" y="415.2384"/>
      </g>
     </g>
     <g id="text_4">
      <!-- 150 -->
      <g transform="translate(283.171936 429.836838)scale(0.1 -0.1)">
       <use xlink:href="#DejaVuSans-31"/>
       <use x="63.623047" xlink:href="#DejaVuSans-35"/>
       <use x="127.246094" xlink:href="#DejaVuSans-30"/>
      </g>
     </g>
    </g>
    <g id="xtick_5">
     <g id="line2d_9">
      <path clip-path="url(#p29869e5730)" d="M 356.52449 415.2384 
L 356.52449 55.9872 
" style="fill:none;stroke:#b0b0b0;stroke-linecap:square;stroke-width:0.8;"/>
     </g>
     <g id="line2d_10">
      <g>
       <use style="stroke:#000000;stroke-width:0.8;" x="356.52449" xlink:href="#m77036a54b3" y="415.2384"/>
      </g>
     </g>
     <g id="text_5">
      <!-- 200 -->
      <defs>
       <path d="M 19.1875 8.296875 
L 53.609375 8.296875 
L 53.609375 0 
L 7.328125 0 
L 7.328125 8.296875 
Q 12.9375 14.109375 22.625 23.890625 
Q 32.328125 33.6875 34.8125 36.53125 
Q 39.546875 41.84375 41.421875 45.53125 
Q 43.3125 49.21875 43.3125 52.78125 
Q 43.3125 58.59375 39.234375 62.25 
Q 35.15625 65.921875 28.609375 65.921875 
Q 23.96875 65.921875 18.8125 64.3125 
Q 13.671875 62.703125 7.8125 59.421875 
L 7.8125 69.390625 
Q 13.765625 71.78125 18.9375 73 
Q 24.125 74.21875 28.421875 74.21875 
Q 39.75 74.21875 46.484375 68.546875 
Q 53.21875 62.890625 53.21875 53.421875 
Q 53.21875 48.921875 51.53125 44.890625 
Q 49.859375 40.875 45.40625 35.40625 
Q 44.1875 33.984375 37.640625 27.21875 
Q 31.109375 20.453125 19.1875 8.296875 
z
" id="DejaVuSans-32"/>
      </defs>
      <g transform="translate(346.98074 429.836838)scale(0.1 -0.1)">
       <use xlink:href="#DejaVuSans-32"/>
       <use x="63.623047" xlink:href="#DejaVuSans-30"/>
       <use x="127.246094" xlink:href="#DejaVuSans-30"/>
      </g>
     </g>
    </g>
    <g id="xtick_6">
     <g id="line2d_11">
      <path clip-path="url(#p29869e5730)" d="M 420.333295 415.2384 
L 420.333295 55.9872 
" style="fill:none;stroke:#b0b0b0;stroke-linecap:square;stroke-width:0.8;"/>
     </g>
     <g id="line2d_12">
      <g>
       <use style="stroke:#000000;stroke-width:0.8;" x="420.333295" xlink:href="#m77036a54b3" y="415.2384"/>
      </g>
     </g>
     <g id="text_6">
      <!-- 250 -->
      <g transform="translate(410.789545 429.836838)scale(0.1 -0.1)">
       <use xlink:href="#DejaVuSans-32"/>
       <use x="63.623047" xlink:href="#DejaVuSans-35"/>
       <use x="127.246094" xlink:href="#DejaVuSans-30"/>
      </g>
     </g>
    </g>
    <g id="xtick_7">
     <g id="line2d_13">
      <path clip-path="url(#p29869e5730)" d="M 484.142099 415.2384 
L 484.142099 55.9872 
" style="fill:none;stroke:#b0b0b0;stroke-linecap:square;stroke-width:0.8;"/>
     </g>
     <g id="line2d_14">
      <g>
       <use style="stroke:#000000;stroke-width:0.8;" x="484.142099" xlink:href="#m77036a54b3" y="415.2384"/>
      </g>
     </g>
     <g id="text_7">
      <!-- 300 -->
      <defs>
       <path d="M 40.578125 39.3125 
Q 47.65625 37.796875 51.625 33 
Q 55.609375 28.21875 55.609375 21.1875 
Q 55.609375 10.40625 48.1875 4.484375 
Q 40.765625 -1.421875 27.09375 -1.421875 
Q 22.515625 -1.421875 17.65625 -0.515625 
Q 12.796875 0.390625 7.625 2.203125 
L 7.625 11.71875 
Q 11.71875 9.328125 16.59375 8.109375 
Q 21.484375 6.890625 26.8125 6.890625 
Q 36.078125 6.890625 40.9375 10.546875 
Q 45.796875 14.203125 45.796875 21.1875 
Q 45.796875 27.640625 41.28125 31.265625 
Q 36.765625 34.90625 28.71875 34.90625 
L 20.21875 34.90625 
L 20.21875 43.015625 
L 29.109375 43.015625 
Q 36.375 43.015625 40.234375 45.921875 
Q 44.09375 48.828125 44.09375 54.296875 
Q 44.09375 59.90625 40.109375 62.90625 
Q 36.140625 65.921875 28.71875 65.921875 
Q 24.65625 65.921875 20.015625 65.03125 
Q 15.375 64.15625 9.8125 62.3125 
L 9.8125 71.09375 
Q 15.4375 72.65625 20.34375 73.4375 
Q 25.25 74.21875 29.59375 74.21875 
Q 40.828125 74.21875 47.359375 69.109375 
Q 53.90625 64.015625 53.90625 55.328125 
Q 53.90625 49.265625 50.4375 45.09375 
Q 46.96875 40.921875 40.578125 39.3125 
z
" id="DejaVuSans-33"/>
      </defs>
      <g transform="translate(474.598349 429.836838)scale(0.1 -0.1)">
       <use xlink:href="#DejaVuSans-33"/>
       <use x="63.623047" xlink:href="#DejaVuSans-30"/>
       <use x="127.246094" xlink:href="#DejaVuSans-30"/>
      </g>
     </g>
    </g>
    <g id="xtick_8">
     <g id="line2d_15">
      <path clip-path="url(#p29869e5730)" d="M 547.950903 415.2384 
L 547.950903 55.9872 
" style="fill:none;stroke:#b0b0b0;stroke-linecap:square;stroke-width:0.8;"/>
     </g>
     <g id="line2d_16">
      <g>
       <use style="stroke:#000000;stroke-width:0.8;" x="547.950903" xlink:href="#m77036a54b3" y="415.2384"/>
      </g>
     </g>
     <g id="text_8">
      <!-- 350 -->
      <g transform="translate(538.407153 429.836838)scale(0.1 -0.1)">
       <use xlink:href="#DejaVuSans-33"/>
       <use x="63.623047" xlink:href="#DejaVuSans-35"/>
       <use x="127.246094" xlink:href="#DejaVuSans-30"/>
      </g>
     </g>
    </g>
    <g id="text_9">
     <!-- epoch -->
     <defs>
      <path d="M 56.203125 29.59375 
L 56.203125 25.203125 
L 14.890625 25.203125 
Q 15.484375 15.921875 20.484375 11.0625 
Q 25.484375 6.203125 34.421875 6.203125 
Q 39.59375 6.203125 44.453125 7.46875 
Q 49.3125 8.734375 54.109375 11.28125 
L 54.109375 2.78125 
Q 49.265625 0.734375 44.1875 -0.34375 
Q 39.109375 -1.421875 33.890625 -1.421875 
Q 20.796875 -1.421875 13.15625 6.1875 
Q 5.515625 13.8125 5.515625 26.8125 
Q 5.515625 40.234375 12.765625 48.109375 
Q 20.015625 56 32.328125 56 
Q 43.359375 56 49.78125 48.890625 
Q 56.203125 41.796875 56.203125 29.59375 
z
M 47.21875 32.234375 
Q 47.125 39.59375 43.09375 43.984375 
Q 39.0625 48.390625 32.421875 48.390625 
Q 24.90625 48.390625 20.390625 44.140625 
Q 15.875 39.890625 15.1875 32.171875 
z
" id="DejaVuSans-65"/>
      <path d="M 18.109375 8.203125 
L 18.109375 -20.796875 
L 9.078125 -20.796875 
L 9.078125 54.6875 
L 18.109375 54.6875 
L 18.109375 46.390625 
Q 20.953125 51.265625 25.265625 53.625 
Q 29.59375 56 35.59375 56 
Q 45.5625 56 51.78125 48.09375 
Q 58.015625 40.1875 58.015625 27.296875 
Q 58.015625 14.40625 51.78125 6.484375 
Q 45.5625 -1.421875 35.59375 -1.421875 
Q 29.59375 -1.421875 25.265625 0.953125 
Q 20.953125 3.328125 18.109375 8.203125 
z
M 48.6875 27.296875 
Q 48.6875 37.203125 44.609375 42.84375 
Q 40.53125 48.484375 33.40625 48.484375 
Q 26.265625 48.484375 22.1875 42.84375 
Q 18.109375 37.203125 18.109375 27.296875 
Q 18.109375 17.390625 22.1875 11.75 
Q 26.265625 6.109375 33.40625 6.109375 
Q 40.53125 6.109375 44.609375 11.75 
Q 48.6875 17.390625 48.6875 27.296875 
z
" id="DejaVuSans-70"/>
      <path d="M 30.609375 48.390625 
Q 23.390625 48.390625 19.1875 42.75 
Q 14.984375 37.109375 14.984375 27.296875 
Q 14.984375 17.484375 19.15625 11.84375 
Q 23.34375 6.203125 30.609375 6.203125 
Q 37.796875 6.203125 41.984375 11.859375 
Q 46.1875 17.53125 46.1875 27.296875 
Q 46.1875 37.015625 41.984375 42.703125 
Q 37.796875 48.390625 30.609375 48.390625 
z
M 30.609375 56 
Q 42.328125 56 49.015625 48.375 
Q 55.71875 40.765625 55.71875 27.296875 
Q 55.71875 13.875 49.015625 6.21875 
Q 42.328125 -1.421875 30.609375 -1.421875 
Q 18.84375 -1.421875 12.171875 6.21875 
Q 5.515625 13.875 5.515625 27.296875 
Q 5.515625 40.765625 12.171875 48.375 
Q 18.84375 56 30.609375 56 
z
" id="DejaVuSans-6f"/>
      <path d="M 48.78125 52.59375 
L 48.78125 44.1875 
Q 44.96875 46.296875 41.140625 47.34375 
Q 37.3125 48.390625 33.40625 48.390625 
Q 24.65625 48.390625 19.8125 42.84375 
Q 14.984375 37.3125 14.984375 27.296875 
Q 14.984375 17.28125 19.8125 11.734375 
Q 24.65625 6.203125 33.40625 6.203125 
Q 37.3125 6.203125 41.140625 7.25 
Q 44.96875 8.296875 48.78125 10.40625 
L 48.78125 2.09375 
Q 45.015625 0.34375 40.984375 -0.53125 
Q 36.96875 -1.421875 32.421875 -1.421875 
Q 20.0625 -1.421875 12.78125 6.34375 
Q 5.515625 14.109375 5.515625 27.296875 
Q 5.515625 40.671875 12.859375 48.328125 
Q 20.21875 56 33.015625 56 
Q 37.15625 56 41.109375 55.140625 
Q 45.0625 54.296875 48.78125 52.59375 
z
" id="DejaVuSans-63"/>
      <path d="M 54.890625 33.015625 
L 54.890625 0 
L 45.90625 0 
L 45.90625 32.71875 
Q 45.90625 40.484375 42.875 44.328125 
Q 39.84375 48.1875 33.796875 48.1875 
Q 26.515625 48.1875 22.3125 43.546875 
Q 18.109375 38.921875 18.109375 30.90625 
L 18.109375 0 
L 9.078125 0 
L 9.078125 75.984375 
L 18.109375 75.984375 
L 18.109375 46.1875 
Q 21.34375 51.125 25.703125 53.5625 
Q 30.078125 56 35.796875 56 
Q 45.21875 56 50.046875 50.171875 
Q 54.890625 44.34375 54.890625 33.015625 
z
" id="DejaVuSans-68"/>
     </defs>
     <g transform="translate(308.753875 443.514963)scale(0.1 -0.1)">
      <use xlink:href="#DejaVuSans-65"/>
      <use x="61.523438" xlink:href="#DejaVuSans-70"/>
      <use x="125" xlink:href="#DejaVuSans-6f"/>
      <use x="186.181641" xlink:href="#DejaVuSans-63"/>
      <use x="241.162109" xlink:href="#DejaVuSans-68"/>
     </g>
    </g>
   </g>
   <g id="matplotlib.axis_2">
    <g id="ytick_1">
     <g id="line2d_17">
      <path clip-path="url(#p29869e5730)" d="M 79.02 413.26458 
L 568.944 413.26458 
" style="fill:none;stroke:#b0b0b0;stroke-linecap:square;stroke-width:0.8;"/>
     </g>
     <g id="line2d_18">
      <defs>
       <path d="M 0 0 
L -3.5 0 
" id="mbac5394c32" style="stroke:#000000;stroke-width:0.8;"/>
      </defs>
      <g>
       <use style="stroke:#000000;stroke-width:0.8;" x="79.02" xlink:href="#mbac5394c32" y="413.26458"/>
      </g>
     </g>
     <g id="text_10">
      <!-- 0 -->
      <g transform="translate(65.6575 417.063799)scale(0.1 -0.1)">
       <use xlink:href="#DejaVuSans-30"/>
      </g>
     </g>
    </g>
    <g id="ytick_2">
     <g id="line2d_19">
      <path clip-path="url(#p29869e5730)" d="M 79.02 373.276335 
L 568.944 373.276335 
" style="fill:none;stroke:#b0b0b0;stroke-linecap:square;stroke-width:0.8;"/>
     </g>
     <g id="line2d_20">
      <g>
       <use style="stroke:#000000;stroke-width:0.8;" x="79.02" xlink:href="#mbac5394c32" y="373.276335"/>
      </g>
     </g>
     <g id="text_11">
      <!-- 10 -->
      <g transform="translate(59.295 377.075553)scale(0.1 -0.1)">
       <use xlink:href="#DejaVuSans-31"/>
       <use x="63.623047" xlink:href="#DejaVuSans-30"/>
      </g>
     </g>
    </g>
    <g id="ytick_3">
     <g id="line2d_21">
      <path clip-path="url(#p29869e5730)" d="M 79.02 333.288089 
L 568.944 333.288089 
" style="fill:none;stroke:#b0b0b0;stroke-linecap:square;stroke-width:0.8;"/>
     </g>
     <g id="line2d_22">
      <g>
       <use style="stroke:#000000;stroke-width:0.8;" x="79.02" xlink:href="#mbac5394c32" y="333.288089"/>
      </g>
     </g>
     <g id="text_12">
      <!-- 20 -->
      <g transform="translate(59.295 337.087308)scale(0.1 -0.1)">
       <use xlink:href="#DejaVuSans-32"/>
       <use x="63.623047" xlink:href="#DejaVuSans-30"/>
      </g>
     </g>
    </g>
    <g id="ytick_4">
     <g id="line2d_23">
      <path clip-path="url(#p29869e5730)" d="M 79.02 293.299843 
L 568.944 293.299843 
" style="fill:none;stroke:#b0b0b0;stroke-linecap:square;stroke-width:0.8;"/>
     </g>
     <g id="line2d_24">
      <g>
       <use style="stroke:#000000;stroke-width:0.8;" x="79.02" xlink:href="#mbac5394c32" y="293.299843"/>
      </g>
     </g>
     <g id="text_13">
      <!-- 30 -->
      <g transform="translate(59.295 297.099062)scale(0.1 -0.1)">
       <use xlink:href="#DejaVuSans-33"/>
       <use x="63.623047" xlink:href="#DejaVuSans-30"/>
      </g>
     </g>
    </g>
    <g id="ytick_5">
     <g id="line2d_25">
      <path clip-path="url(#p29869e5730)" d="M 79.02 253.311598 
L 568.944 253.311598 
" style="fill:none;stroke:#b0b0b0;stroke-linecap:square;stroke-width:0.8;"/>
     </g>
     <g id="line2d_26">
      <g>
       <use style="stroke:#000000;stroke-width:0.8;" x="79.02" xlink:href="#mbac5394c32" y="253.311598"/>
      </g>
     </g>
     <g id="text_14">
      <!-- 40 -->
      <defs>
       <path d="M 37.796875 64.3125 
L 12.890625 25.390625 
L 37.796875 25.390625 
z
M 35.203125 72.90625 
L 47.609375 72.90625 
L 47.609375 25.390625 
L 58.015625 25.390625 
L 58.015625 17.1875 
L 47.609375 17.1875 
L 47.609375 0 
L 37.796875 0 
L 37.796875 17.1875 
L 4.890625 17.1875 
L 4.890625 26.703125 
z
" id="DejaVuSans-34"/>
      </defs>
      <g transform="translate(59.295 257.110816)scale(0.1 -0.1)">
       <use xlink:href="#DejaVuSans-34"/>
       <use x="63.623047" xlink:href="#DejaVuSans-30"/>
      </g>
     </g>
    </g>
    <g id="ytick_6">
     <g id="line2d_27">
      <path clip-path="url(#p29869e5730)" d="M 79.02 213.323352 
L 568.944 213.323352 
" style="fill:none;stroke:#b0b0b0;stroke-linecap:square;stroke-width:0.8;"/>
     </g>
     <g id="line2d_28">
      <g>
       <use style="stroke:#000000;stroke-width:0.8;" x="79.02" xlink:href="#mbac5394c32" y="213.323352"/>
      </g>
     </g>
     <g id="text_15">
      <!-- 50 -->
      <g transform="translate(59.295 217.122571)scale(0.1 -0.1)">
       <use xlink:href="#DejaVuSans-35"/>
       <use x="63.623047" xlink:href="#DejaVuSans-30"/>
      </g>
     </g>
    </g>
    <g id="ytick_7">
     <g id="line2d_29">
      <path clip-path="url(#p29869e5730)" d="M 79.02 173.335106 
L 568.944 173.335106 
" style="fill:none;stroke:#b0b0b0;stroke-linecap:square;stroke-width:0.8;"/>
     </g>
     <g id="line2d_30">
      <g>
       <use style="stroke:#000000;stroke-width:0.8;" x="79.02" xlink:href="#mbac5394c32" y="173.335106"/>
      </g>
     </g>
     <g id="text_16">
      <!-- 60 -->
      <defs>
       <path d="M 33.015625 40.375 
Q 26.375 40.375 22.484375 35.828125 
Q 18.609375 31.296875 18.609375 23.390625 
Q 18.609375 15.53125 22.484375 10.953125 
Q 26.375 6.390625 33.015625 6.390625 
Q 39.65625 6.390625 43.53125 10.953125 
Q 47.40625 15.53125 47.40625 23.390625 
Q 47.40625 31.296875 43.53125 35.828125 
Q 39.65625 40.375 33.015625 40.375 
z
M 52.59375 71.296875 
L 52.59375 62.3125 
Q 48.875 64.0625 45.09375 64.984375 
Q 41.3125 65.921875 37.59375 65.921875 
Q 27.828125 65.921875 22.671875 59.328125 
Q 17.53125 52.734375 16.796875 39.40625 
Q 19.671875 43.65625 24.015625 45.921875 
Q 28.375 48.1875 33.59375 48.1875 
Q 44.578125 48.1875 50.953125 41.515625 
Q 57.328125 34.859375 57.328125 23.390625 
Q 57.328125 12.15625 50.6875 5.359375 
Q 44.046875 -1.421875 33.015625 -1.421875 
Q 20.359375 -1.421875 13.671875 8.265625 
Q 6.984375 17.96875 6.984375 36.375 
Q 6.984375 53.65625 15.1875 63.9375 
Q 23.390625 74.21875 37.203125 74.21875 
Q 40.921875 74.21875 44.703125 73.484375 
Q 48.484375 72.75 52.59375 71.296875 
z
" id="DejaVuSans-36"/>
      </defs>
      <g transform="translate(59.295 177.134325)scale(0.1 -0.1)">
       <use xlink:href="#DejaVuSans-36"/>
       <use x="63.623047" xlink:href="#DejaVuSans-30"/>
      </g>
     </g>
    </g>
    <g id="ytick_8">
     <g id="line2d_31">
      <path clip-path="url(#p29869e5730)" d="M 79.02 133.346861 
L 568.944 133.346861 
" style="fill:none;stroke:#b0b0b0;stroke-linecap:square;stroke-width:0.8;"/>
     </g>
     <g id="line2d_32">
      <g>
       <use style="stroke:#000000;stroke-width:0.8;" x="79.02" xlink:href="#mbac5394c32" y="133.346861"/>
      </g>
     </g>
     <g id="text_17">
      <!-- 70 -->
      <defs>
       <path d="M 8.203125 72.90625 
L 55.078125 72.90625 
L 55.078125 68.703125 
L 28.609375 0 
L 18.3125 0 
L 43.21875 64.59375 
L 8.203125 64.59375 
z
" id="DejaVuSans-37"/>
      </defs>
      <g transform="translate(59.295 137.146079)scale(0.1 -0.1)">
       <use xlink:href="#DejaVuSans-37"/>
       <use x="63.623047" xlink:href="#DejaVuSans-30"/>
      </g>
     </g>
    </g>
    <g id="ytick_9">
     <g id="line2d_33">
      <path clip-path="url(#p29869e5730)" d="M 79.02 93.358615 
L 568.944 93.358615 
" style="fill:none;stroke:#b0b0b0;stroke-linecap:square;stroke-width:0.8;"/>
     </g>
     <g id="line2d_34">
      <g>
       <use style="stroke:#000000;stroke-width:0.8;" x="79.02" xlink:href="#mbac5394c32" y="93.358615"/>
      </g>
     </g>
     <g id="text_18">
      <!-- 80 -->
      <defs>
       <path d="M 31.78125 34.625 
Q 24.75 34.625 20.71875 30.859375 
Q 16.703125 27.09375 16.703125 20.515625 
Q 16.703125 13.921875 20.71875 10.15625 
Q 24.75 6.390625 31.78125 6.390625 
Q 38.8125 6.390625 42.859375 10.171875 
Q 46.921875 13.96875 46.921875 20.515625 
Q 46.921875 27.09375 42.890625 30.859375 
Q 38.875 34.625 31.78125 34.625 
z
M 21.921875 38.8125 
Q 15.578125 40.375 12.03125 44.71875 
Q 8.5 49.078125 8.5 55.328125 
Q 8.5 64.0625 14.71875 69.140625 
Q 20.953125 74.21875 31.78125 74.21875 
Q 42.671875 74.21875 48.875 69.140625 
Q 55.078125 64.0625 55.078125 55.328125 
Q 55.078125 49.078125 51.53125 44.71875 
Q 48 40.375 41.703125 38.8125 
Q 48.828125 37.15625 52.796875 32.3125 
Q 56.78125 27.484375 56.78125 20.515625 
Q 56.78125 9.90625 50.3125 4.234375 
Q 43.84375 -1.421875 31.78125 -1.421875 
Q 19.734375 -1.421875 13.25 4.234375 
Q 6.78125 9.90625 6.78125 20.515625 
Q 6.78125 27.484375 10.78125 32.3125 
Q 14.796875 37.15625 21.921875 38.8125 
z
M 18.3125 54.390625 
Q 18.3125 48.734375 21.84375 45.5625 
Q 25.390625 42.390625 31.78125 42.390625 
Q 38.140625 42.390625 41.71875 45.5625 
Q 45.3125 48.734375 45.3125 54.390625 
Q 45.3125 60.0625 41.71875 63.234375 
Q 38.140625 66.40625 31.78125 66.40625 
Q 25.390625 66.40625 21.84375 63.234375 
Q 18.3125 60.0625 18.3125 54.390625 
z
" id="DejaVuSans-38"/>
      </defs>
      <g transform="translate(59.295 97.157834)scale(0.1 -0.1)">
       <use xlink:href="#DejaVuSans-38"/>
       <use x="63.623047" xlink:href="#DejaVuSans-30"/>
      </g>
     </g>
    </g>
    <g id="text_19">
     <!-- error (%) -->
     <defs>
      <path d="M 41.109375 46.296875 
Q 39.59375 47.171875 37.8125 47.578125 
Q 36.03125 48 33.890625 48 
Q 26.265625 48 22.1875 43.046875 
Q 18.109375 38.09375 18.109375 28.8125 
L 18.109375 0 
L 9.078125 0 
L 9.078125 54.6875 
L 18.109375 54.6875 
L 18.109375 46.1875 
Q 20.953125 51.171875 25.484375 53.578125 
Q 30.03125 56 36.53125 56 
Q 37.453125 56 38.578125 55.875 
Q 39.703125 55.765625 41.0625 55.515625 
z
" id="DejaVuSans-72"/>
      <path id="DejaVuSans-20"/>
      <path d="M 31 75.875 
Q 24.46875 64.65625 21.28125 53.65625 
Q 18.109375 42.671875 18.109375 31.390625 
Q 18.109375 20.125 21.3125 9.0625 
Q 24.515625 -2 31 -13.1875 
L 23.1875 -13.1875 
Q 15.875 -1.703125 12.234375 9.375 
Q 8.59375 20.453125 8.59375 31.390625 
Q 8.59375 42.28125 12.203125 53.3125 
Q 15.828125 64.359375 23.1875 75.875 
z
" id="DejaVuSans-28"/>
      <path d="M 72.703125 32.078125 
Q 68.453125 32.078125 66.03125 28.46875 
Q 63.625 24.859375 63.625 18.40625 
Q 63.625 12.0625 66.03125 8.421875 
Q 68.453125 4.78125 72.703125 4.78125 
Q 76.859375 4.78125 79.265625 8.421875 
Q 81.6875 12.0625 81.6875 18.40625 
Q 81.6875 24.8125 79.265625 28.4375 
Q 76.859375 32.078125 72.703125 32.078125 
z
M 72.703125 38.28125 
Q 80.421875 38.28125 84.953125 32.90625 
Q 89.5 27.546875 89.5 18.40625 
Q 89.5 9.28125 84.9375 3.921875 
Q 80.375 -1.421875 72.703125 -1.421875 
Q 64.890625 -1.421875 60.34375 3.921875 
Q 55.8125 9.28125 55.8125 18.40625 
Q 55.8125 27.59375 60.375 32.9375 
Q 64.9375 38.28125 72.703125 38.28125 
z
M 22.3125 68.015625 
Q 18.109375 68.015625 15.6875 64.375 
Q 13.28125 60.75 13.28125 54.390625 
Q 13.28125 47.953125 15.671875 44.328125 
Q 18.0625 40.71875 22.3125 40.71875 
Q 26.5625 40.71875 28.96875 44.328125 
Q 31.390625 47.953125 31.390625 54.390625 
Q 31.390625 60.6875 28.953125 64.34375 
Q 26.515625 68.015625 22.3125 68.015625 
z
M 66.40625 74.21875 
L 74.21875 74.21875 
L 28.609375 -1.421875 
L 20.796875 -1.421875 
z
M 22.3125 74.21875 
Q 30.03125 74.21875 34.609375 68.875 
Q 39.203125 63.53125 39.203125 54.390625 
Q 39.203125 45.171875 34.640625 39.84375 
Q 30.078125 34.515625 22.3125 34.515625 
Q 14.546875 34.515625 10.03125 39.859375 
Q 5.515625 45.21875 5.515625 54.390625 
Q 5.515625 63.484375 10.046875 68.84375 
Q 14.59375 74.21875 22.3125 74.21875 
z
" id="DejaVuSans-25"/>
      <path d="M 8.015625 75.875 
L 15.828125 75.875 
Q 23.140625 64.359375 26.78125 53.3125 
Q 30.421875 42.28125 30.421875 31.390625 
Q 30.421875 20.453125 26.78125 9.375 
Q 23.140625 -1.703125 15.828125 -13.1875 
L 8.015625 -13.1875 
Q 14.5 -2 17.703125 9.0625 
Q 20.90625 20.125 20.90625 31.390625 
Q 20.90625 42.671875 17.703125 53.65625 
Q 14.5 64.65625 8.015625 75.875 
z
" id="DejaVuSans-29"/>
     </defs>
     <g transform="translate(53.215312 258.154206)rotate(-90)scale(0.1 -0.1)">
      <use xlink:href="#DejaVuSans-65"/>
      <use x="61.523438" xlink:href="#DejaVuSans-72"/>
      <use x="102.621094" xlink:href="#DejaVuSans-72"/>
      <use x="143.703125" xlink:href="#DejaVuSans-6f"/>
      <use x="204.884766" xlink:href="#DejaVuSans-72"/>
      <use x="245.998047" xlink:href="#DejaVuSans-20"/>
      <use x="277.785156" xlink:href="#DejaVuSans-28"/>
      <use x="316.798828" xlink:href="#DejaVuSans-25"/>
      <use x="411.818359" xlink:href="#DejaVuSans-29"/>
     </g>
    </g>
   </g>
   <g id="line2d_35">
    <path clip-path="url(#p29869e5730)" d="M 101.289273 72.3168 
L 102.565449 110.913455 
L 103.841625 162.914169 
L 105.117801 204.238022 
L 106.393977 227.943054 
L 107.670153 248.241088 
L 108.946329 263.676551 
L 110.222505 276.208867 
L 111.498681 285.534126 
L 112.774858 296.09902 
L 114.051034 303.840745 
L 115.32721 309.111196 
L 116.603386 315.709256 
L 119.155738 321.875444 
L 120.431914 326.090205 
L 121.70809 327.529781 
L 122.984266 330.320961 
L 124.260442 331.832517 
L 126.812794 335.439456 
L 128.088971 336.639104 
L 129.365147 338.118669 
L 130.641323 339.078387 
L 131.917499 341.373712 
L 133.193675 341.197764 
L 134.469851 340.613935 
L 135.746027 342.293442 
L 137.022203 343.077211 
L 138.298379 344.292854 
L 139.574555 345.068626 
L 140.850731 345.676447 
L 142.126908 346.508203 
L 143.403084 345.572478 
L 144.67926 345.388532 
L 145.955436 347.659864 
L 147.231612 346.724139 
L 149.783964 348.859512 
L 151.06014 348.035754 
L 152.336316 348.419641 
L 153.612492 347.899794 
L 156.164844 349.763246 
L 157.441021 350.970891 
L 158.717197 351.394767 
L 159.993373 350.451044 
L 161.269549 350.107145 
L 162.545725 350.994884 
L 163.821901 351.474743 
L 165.098077 350.890915 
L 166.374253 350.866922 
L 167.650429 352.274508 
L 168.926605 352.474449 
L 170.202781 351.186828 
L 171.478958 352.482447 
L 172.755134 352.626404 
L 174.03131 352.154543 
L 175.307486 352.322494 
L 176.583662 353.042282 
L 177.859838 352.578419 
L 179.136014 353.682094 
L 180.41219 353.482153 
L 181.688366 353.090268 
L 182.964542 354.169951 
L 184.240718 353.674097 
L 185.516895 353.314202 
L 186.793071 353.098266 
L 188.069247 353.706087 
L 190.621599 354.37789 
L 191.897775 354.24193 
L 193.173951 353.810057 
L 194.450127 354.633814 
L 195.726303 354.353897 
L 197.002479 354.985711 
L 200.831008 354.737784 
L 202.107184 355.05769 
L 203.38336 355.857455 
L 204.659536 354.481859 
L 205.935712 354.353897 
L 207.211888 355.817466 
L 208.488064 355.097678 
L 209.76424 355.369598 
L 211.040416 355.433579 
L 212.316592 354.777772 
L 213.592768 354.64981 
L 214.868945 355.87345 
L 216.145121 356.425288 
L 217.421297 356.497267 
L 219.973649 355.609528 
L 221.249825 356.913144 
L 222.526001 356.361307 
L 223.802177 356.033403 
L 225.078353 356.033403 
L 226.354529 356.713203 
L 227.630705 356.185358 
L 228.906881 356.569245 
L 230.183058 356.809175 
L 231.459234 356.201354 
L 232.73541 356.873156 
L 234.011586 357.09709 
L 235.287762 355.169657 
L 236.563938 355.897443 
L 237.840114 356.289328 
L 239.11629 355.05769 
L 240.392466 356.617231 
L 241.668642 355.665511 
L 242.944818 357.432992 
L 244.220995 356.817173 
L 245.497171 356.697208 
L 246.773347 357.385006 
L 249.325699 356.65722 
L 250.601875 356.633227 
L 251.878051 357.7449 
L 253.154227 356.577243 
L 254.430403 357.664923 
L 255.706579 356.681213 
L 256.982755 357.33702 
L 258.258931 357.049104 
L 259.535108 357.329022 
L 260.811284 357.241048 
L 262.08746 358.072804 
L 263.363636 357.385006 
L 264.639812 357.073097 
L 265.915988 357.36901 
L 267.192164 357.448987 
L 268.46834 357.049104 
L 269.744516 357.544959 
L 271.020692 356.92914 
L 272.296868 357.289034 
L 273.573045 357.073097 
L 274.849221 357.60894 
L 276.125397 357.760895 
L 277.401573 357.448987 
L 278.677749 356.905147 
L 279.953925 357.864865 
L 281.230101 357.456985 
L 282.506277 357.672921 
L 283.782453 358.712615 
L 285.058629 357.329022 
L 286.334805 357.808881 
L 287.610982 357.576949 
L 288.887158 357.600942 
L 290.163334 357.512968 
L 291.43951 357.281036 
L 292.715686 357.832874 
L 293.991862 357.121083 
L 295.268038 357.528963 
L 296.544214 357.305029 
L 297.82039 358.216761 
L 299.096566 358.184771 
L 300.372742 357.600942 
L 301.648918 357.161072 
L 302.925095 357.584947 
L 304.201271 358.848575 
L 305.477447 358.232757 
L 306.753623 357.856867 
L 308.029799 358.83258 
L 309.305975 358.4247 
L 310.582151 358.216761 
L 311.858327 357.153074 
L 313.134503 358.488681 
L 314.410679 359.07251 
L 315.686855 358.416702 
L 316.963032 358.456691 
L 318.239208 357.848869 
L 319.515384 357.47298 
L 320.79156 358.160778 
L 322.067736 357.888858 
L 323.343912 358.656632 
L 325.896264 358.120789 
L 327.17244 358.176773 
L 328.448616 358.952545 
L 329.724792 358.880566 
L 331.000968 358.93655 
L 333.553321 357.864865 
L 334.829497 358.120789 
L 336.105673 359.352427 
L 337.381849 358.600648 
L 338.658025 359.408411 
L 339.934201 357.017114 
L 341.210377 358.216761 
L 342.486553 358.984536 
L 343.762729 358.496679 
L 345.038905 359.184477 
L 346.315082 358.96854 
L 347.591258 358.392709 
L 348.867434 358.200766 
L 350.14361 358.440695 
L 351.419786 358.56066 
L 352.695962 358.552662 
L 353.972138 358.360719 
L 355.248314 358.488681 
L 356.52449 377.603063 
L 357.800666 381.857812 
L 359.076842 382.585598 
L 360.353018 383.87322 
L 361.629195 384.72097 
L 362.905371 384.968898 
L 364.181547 385.648698 
L 365.457723 385.552726 
L 366.733899 385.848639 
L 368.010075 386.328498 
L 369.286251 386.528439 
L 370.562427 386.344493 
L 371.838603 387.704094 
L 373.114779 387.368192 
L 374.390955 387.744082 
L 375.667132 387.560136 
L 376.943308 387.968016 
L 378.219484 388.151962 
L 379.49566 387.984011 
L 380.771836 387.528145 
L 382.048012 387.944023 
L 384.600364 389.00771 
L 388.428892 388.375896 
L 389.705069 389.319619 
L 390.981245 388.583835 
L 392.257421 388.847757 
L 393.533597 389.479572 
L 394.809773 389.471574 
L 396.085949 389.767487 
L 398.638301 389.799478 
L 399.914477 389.471574 
L 402.466829 389.943435 
L 403.743005 389.847464 
L 406.295358 390.463283 
L 407.571534 389.447581 
L 408.84771 390.175367 
L 411.400062 390.327322 
L 412.676238 390.151374 
L 413.952414 390.703212 
L 415.22859 389.687511 
L 416.504766 390.43929 
L 417.780942 391.055109 
L 419.057119 390.935144 
L 420.333295 395.445818 
L 422.885647 395.917679 
L 424.161823 396.365548 
L 425.437999 396.429529 
L 426.714175 396.709446 
L 427.990351 396.773428 
L 429.266527 396.229588 
L 430.542703 396.277573 
L 431.818879 396.781425 
L 435.647408 396.325559 
L 436.923584 396.709446 
L 438.19976 396.541496 
L 440.752112 397.14132 
L 442.028288 397.117327 
L 443.304464 396.725442 
L 444.58064 397.573193 
L 445.856816 396.813416 
L 447.132992 397.021355 
L 448.409169 397.045348 
L 449.685345 396.861402 
L 450.961521 397.44523 
L 452.237697 396.90139 
L 453.513873 396.725442 
L 454.790049 397.181308 
L 456.066225 397.501214 
L 457.342401 397.349258 
L 458.618577 397.03735 
L 459.894753 396.917385 
L 461.170929 397.253287 
L 462.447105 396.76543 
L 463.723282 397.093334 
L 464.999458 396.709446 
L 466.275634 397.565195 
L 467.55181 397.149317 
L 470.104162 397.165312 
L 471.380338 397.71715 
L 472.656514 397.03735 
L 473.93269 397.98907 
L 475.208866 397.645171 
L 476.485042 396.781425 
L 477.761219 397.181308 
L 479.037395 397.789129 
L 481.589747 397.565195 
L 482.865923 397.461226 
L 484.142099 397.661167 
L 485.418275 398.173016 
L 486.694451 398.213005 
L 487.970627 397.613181 
L 490.522979 397.837115 
L 491.799156 398.244995 
L 494.351508 398.468929 
L 496.90386 398.069047 
L 498.180036 397.613181 
L 500.732388 398.181014 
L 502.008564 398.348965 
L 503.28474 398.053052 
L 505.837092 397.949082 
L 507.113269 398.149023 
L 508.389445 397.517209 
L 509.665621 397.773134 
L 512.217973 398.828824 
L 513.494149 398.524913 
L 514.770325 398.428941 
L 516.046501 398.468929 
L 518.598853 398.221002 
L 519.875029 398.021061 
L 521.151206 398.53291 
L 522.427382 398.556903 
L 523.703558 398.748847 
L 524.979734 397.645171 
L 526.25591 398.348965 
L 527.532086 398.09304 
L 528.808262 397.453228 
L 530.084438 398.9088 
L 531.360614 398.524913 
L 533.912966 398.021061 
L 535.189142 398.748847 
L 536.465319 398.580896 
L 537.741495 397.677162 
L 539.017671 398.12503 
L 540.293847 397.98907 
L 541.570023 398.436939 
L 542.846199 398.380955 
L 544.122375 398.013063 
L 545.398551 398.356962 
L 546.674727 398.165019 
L 546.674727 398.165019 
" style="fill:none;stroke:#1f77b4;stroke-dasharray:5.55,2.4;stroke-dashoffset:0;stroke-width:1.5;"/>
   </g>
   <g id="line2d_36">
    <path clip-path="url(#p29869e5730)" d="M 101.289273 88.280108 
L 102.565449 137.625603 
L 103.841625 181.772626 
L 105.117801 199.407442 
L 106.393977 234.79704 
L 107.670153 249.992573 
L 108.946329 278.424216 
L 110.222505 278.584169 
L 111.498681 290.820572 
L 112.774858 285.382171 
L 114.051034 304.77647 
L 115.32721 304.496552 
L 116.603386 311.254566 
L 117.879562 315.653273 
L 119.155738 313.853801 
L 120.431914 313.014048 
L 121.70809 322.33131 
L 122.984266 326.450099 
L 124.260442 302.737069 
L 125.536618 317.292791 
L 126.812794 321.731486 
L 128.088971 330.568888 
L 129.365147 328.649452 
L 130.641323 327.849687 
L 131.917499 330.808818 
L 133.193675 326.330134 
L 134.469851 336.68709 
L 135.746027 333.288089 
L 137.022203 335.487442 
L 138.298379 328.729429 
L 139.574555 334.967595 
L 140.850731 323.730898 
L 142.126908 329.329253 
L 143.403084 320.291909 
L 144.67926 336.807054 
L 145.955436 328.529488 
L 148.507788 338.566537 
L 149.783964 329.289264 
L 151.06014 332.088441 
L 152.336316 332.768242 
L 153.612492 331.328665 
L 154.888668 338.04669 
L 156.164844 332.088441 
L 157.441021 334.527724 
L 158.717197 334.247807 
L 159.993373 340.086091 
L 161.269549 344.524786 
L 162.545725 339.726196 
L 163.821901 337.926725 
L 165.098077 336.567125 
L 166.374253 339.166361 
L 167.650429 329.1693 
L 168.926605 336.567125 
L 170.202781 341.725609 
L 171.478958 327.249864 
L 172.755134 343.884974 
L 174.03131 336.127254 
L 175.307486 332.768242 
L 176.583662 337.526843 
L 177.859838 343.245162 
L 179.136014 340.765891 
L 180.41219 341.125785 
L 181.688366 333.687971 
L 182.964542 341.845573 
L 184.240718 341.725609 
L 185.516895 331.648571 
L 186.793071 334.527724 
L 188.069247 335.08756 
L 189.345423 340.166067 
L 190.621599 343.445103 
L 191.897775 337.36689 
L 193.173951 339.246337 
L 194.450127 332.528312 
L 195.726303 338.926432 
L 197.002479 336.727078 
L 198.278655 342.245456 
L 199.554831 331.728547 
L 202.107184 343.52508 
L 203.38336 335.207525 
L 204.659536 332.488324 
L 205.935712 339.686208 
L 207.211888 341.765597 
L 208.488064 341.765597 
L 209.76424 335.807348 
L 211.040416 336.607113 
L 212.316592 334.767654 
L 213.592768 329.8491 
L 214.868945 340.445985 
L 216.145121 341.725609 
L 217.421297 336.567125 
L 218.697473 341.205762 
L 219.973649 343.804997 
L 221.249825 343.125197 
L 222.526001 340.725903 
L 223.802177 340.32602 
L 225.078353 339.486267 
L 226.354529 334.727666 
L 227.630705 334.047866 
L 228.906881 341.125785 
L 230.183058 336.207231 
L 231.459234 336.807054 
L 232.73541 342.965244 
L 234.011586 337.726784 
L 235.287762 338.28662 
L 236.563938 333.128136 
L 237.840114 334.007877 
L 239.11629 335.567419 
L 240.392466 341.045809 
L 241.668642 339.886149 
L 242.944818 337.606819 
L 244.220995 343.52508 
L 245.497171 340.725903 
L 246.773347 346.084327 
L 248.049523 337.12696 
L 249.325699 333.847924 
L 250.601875 337.086972 
L 251.878051 342.325432 
L 253.154227 332.008465 
L 254.430403 328.809405 
L 255.706579 338.246631 
L 256.982755 343.085209 
L 258.258931 339.846161 
L 259.535108 339.766185 
L 260.811284 344.20488 
L 263.363636 343.245162 
L 264.639812 341.325726 
L 265.915988 336.567125 
L 267.192164 327.009934 
L 268.46834 348.563599 
L 269.744516 333.687971 
L 271.020692 331.088735 
L 272.296868 330.049041 
L 273.573045 332.328371 
L 274.849221 343.365127 
L 276.125397 336.247219 
L 277.401573 330.968771 
L 278.677749 335.207525 
L 279.953925 341.765597 
L 281.230101 341.92555 
L 282.506277 332.968183 
L 283.782453 340.485973 
L 285.058629 340.286032 
L 286.334805 341.165773 
L 287.610982 339.806173 
L 288.887158 344.524786 
L 290.163334 344.88468 
L 291.43951 338.246631 
L 292.715686 330.928782 
L 293.991862 342.365421 
L 295.268038 327.369829 
L 296.544214 339.166361 
L 297.82039 338.846455 
L 299.096566 339.246337 
L 300.372742 342.165479 
L 301.648918 346.604175 
L 302.925095 342.60535 
L 304.201271 339.166361 
L 305.477447 341.485679 
L 306.753623 340.445985 
L 308.029799 342.685327 
L 309.305975 341.68562 
L 310.582151 341.00582 
L 311.858327 340.925844 
L 313.134503 344.244868 
L 314.410679 340.086091 
L 315.686855 342.60535 
L 316.963032 344.484798 
L 318.239208 341.205762 
L 319.515384 343.765009 
L 320.79156 340.366008 
L 322.067736 342.205468 
L 323.343912 343.765009 
L 324.620088 337.446866 
L 325.896264 344.524786 
L 327.17244 334.647689 
L 328.448616 348.683563 
L 329.724792 341.645632 
L 331.000968 346.724139 
L 332.277145 344.724727 
L 333.553321 330.888794 
L 334.829497 344.564774 
L 336.105673 344.284856 
L 337.381849 340.166067 
L 338.658025 338.126667 
L 339.934201 343.485092 
L 341.210377 340.286032 
L 342.486553 341.525667 
L 343.762729 328.889382 
L 345.038905 341.165773 
L 346.315082 336.887031 
L 347.591258 344.764715 
L 348.867434 344.364833 
L 350.14361 342.005526 
L 351.419786 337.886737 
L 352.695962 336.367184 
L 353.972138 341.045809 
L 355.248314 336.327196 
L 356.52449 357.041107 
L 357.800666 357.241048 
L 359.076842 358.960543 
L 360.353018 357.121083 
L 361.629195 358.680625 
L 364.181547 358.080801 
L 365.457723 356.881154 
L 366.733899 359.520378 
L 368.010075 359.600355 
L 369.286251 358.520672 
L 370.562427 360.200178 
L 371.838603 359.360425 
L 373.114779 356.841166 
L 374.390955 357.401001 
L 375.667132 358.480684 
L 376.943308 356.801177 
L 378.219484 359.200472 
L 379.49566 357.401001 
L 382.048012 358.880566 
L 383.324188 358.680625 
L 384.600364 359.000531 
L 385.87654 357.520966 
L 387.152716 359.000531 
L 388.428892 358.160778 
L 389.705069 357.041107 
L 392.257421 355.481565 
L 393.533597 358.720613 
L 394.809773 357.800883 
L 396.085949 358.280742 
L 397.362125 356.801177 
L 398.638301 356.321318 
L 399.914477 356.441283 
L 401.190653 357.600942 
L 402.466829 353.3222 
L 403.743005 354.481859 
L 405.019182 356.681213 
L 406.295358 355.881448 
L 407.571534 357.560954 
L 408.84771 356.081389 
L 410.123886 357.480977 
L 411.400062 356.241342 
L 412.676238 354.281918 
L 413.952414 357.88086 
L 415.22859 359.48039 
L 416.504766 356.161365 
L 417.780942 358.520672 
L 419.057119 354.041988 
L 420.333295 360.999943 
L 421.609471 360.120202 
L 422.885647 359.680331 
L 424.161823 360.680037 
L 425.437999 360.000237 
L 426.714175 361.159896 
L 427.990351 359.840284 
L 429.266527 360.360131 
L 430.542703 360.600061 
L 431.818879 361.479802 
L 433.095055 359.680331 
L 434.371232 358.400707 
L 435.647408 359.320437 
L 436.923584 359.92026 
L 438.19976 360.000237 
L 439.475936 359.840284 
L 440.752112 360.560072 
L 442.028288 360.760014 
L 443.304464 359.680331 
L 444.58064 361.879685 
L 445.856816 360.360131 
L 447.132992 360.280155 
L 448.409169 360.959955 
L 449.685345 360.800002 
L 450.961521 359.720319 
L 452.237697 359.800296 
L 453.513873 360.560072 
L 454.790049 360.680037 
L 456.066225 358.920554 
L 457.342401 361.279861 
L 458.618577 360.480096 
L 459.894753 360.640049 
L 461.170929 360.040225 
L 462.447105 360.959955 
L 463.723282 359.600355 
L 464.999458 358.640637 
L 466.275634 360.16019 
L 467.55181 359.040519 
L 468.827986 358.440695 
L 470.104162 360.120202 
L 471.380338 361.239873 
L 472.656514 358.80059 
L 473.93269 359.120496 
L 475.208866 359.840284 
L 476.485042 359.760307 
L 477.761219 360.320143 
L 479.037395 361.199884 
L 480.313571 358.960543 
L 481.589747 360.16019 
L 482.865923 360.879978 
L 484.142099 359.960249 
L 485.418275 360.16019 
L 486.694451 361.399826 
L 487.970627 361.239873 
L 489.246803 360.919967 
L 490.522979 359.440402 
L 491.799156 360.200178 
L 493.075332 361.239873 
L 494.351508 359.200472 
L 495.627684 359.160484 
L 496.90386 359.320437 
L 498.180036 361.239873 
L 499.456212 361.879685 
L 500.732388 360.520084 
L 502.008564 360.879978 
L 503.28474 359.960249 
L 504.560916 361.679743 
L 505.837092 358.760601 
L 508.389445 360.120202 
L 509.665621 359.440402 
L 510.941797 359.880272 
L 512.217973 360.080213 
L 513.494149 360.800002 
L 514.770325 361.039931 
L 516.046501 360.480096 
L 518.598853 360.240166 
L 519.875029 359.760307 
L 521.151206 358.840578 
L 522.427382 359.320437 
L 523.703558 360.640049 
L 524.979734 360.560072 
L 526.25591 360.760014 
L 527.532086 360.080213 
L 528.808262 359.640343 
L 530.084438 361.399826 
L 531.360614 361.839696 
L 532.63679 361.799708 
L 533.912966 358.920554 
L 535.189142 361.239873 
L 536.465319 358.840578 
L 537.741495 360.640049 
L 539.017671 360.000237 
L 540.293847 361.679743 
L 541.570023 359.960249 
L 542.846199 360.200178 
L 544.122375 360.240166 
L 545.398551 362.119614 
L 546.674727 359.760307 
L 546.674727 359.760307 
" style="fill:none;stroke:#ff7f0e;stroke-linecap:square;stroke-width:1.5;"/>
   </g>
   <g id="patch_3">
    <path d="M 79.02 415.2384 
L 79.02 55.9872 
" style="fill:none;stroke:#000000;stroke-linecap:square;stroke-linejoin:miter;stroke-width:0.8;"/>
   </g>
   <g id="patch_4">
    <path d="M 568.944 415.2384 
L 568.944 55.9872 
" style="fill:none;stroke:#000000;stroke-linecap:square;stroke-linejoin:miter;stroke-width:0.8;"/>
   </g>
   <g id="patch_5">
    <path d="M 79.02 415.2384 
L 568.944 415.2384 
" style="fill:none;stroke:#000000;stroke-linecap:square;stroke-linejoin:miter;stroke-width:0.8;"/>
   </g>
   <g id="patch_6">
    <path d="M 79.02 55.9872 
L 568.944 55.9872 
" style="fill:none;stroke:#000000;stroke-linecap:square;stroke-linejoin:miter;stroke-width:0.8;"/>
   </g>
   <g id="text_20">
    <!-- Model ALL-CNN-C -->
    <defs>
     <path d="M 9.8125 72.90625 
L 24.515625 72.90625 
L 43.109375 23.296875 
L 61.8125 72.90625 
L 76.515625 72.90625 
L 76.515625 0 
L 66.890625 0 
L 66.890625 64.015625 
L 48.09375 14.015625 
L 38.1875 14.015625 
L 19.390625 64.015625 
L 19.390625 0 
L 9.8125 0 
z
" id="DejaVuSans-4d"/>
     <path d="M 45.40625 46.390625 
L 45.40625 75.984375 
L 54.390625 75.984375 
L 54.390625 0 
L 45.40625 0 
L 45.40625 8.203125 
Q 42.578125 3.328125 38.25 0.953125 
Q 33.9375 -1.421875 27.875 -1.421875 
Q 17.96875 -1.421875 11.734375 6.484375 
Q 5.515625 14.40625 5.515625 27.296875 
Q 5.515625 40.1875 11.734375 48.09375 
Q 17.96875 56 27.875 56 
Q 33.9375 56 38.25 53.625 
Q 42.578125 51.265625 45.40625 46.390625 
z
M 14.796875 27.296875 
Q 14.796875 17.390625 18.875 11.75 
Q 22.953125 6.109375 30.078125 6.109375 
Q 37.203125 6.109375 41.296875 11.75 
Q 45.40625 17.390625 45.40625 27.296875 
Q 45.40625 37.203125 41.296875 42.84375 
Q 37.203125 48.484375 30.078125 48.484375 
Q 22.953125 48.484375 18.875 42.84375 
Q 14.796875 37.203125 14.796875 27.296875 
z
" id="DejaVuSans-64"/>
     <path d="M 9.421875 75.984375 
L 18.40625 75.984375 
L 18.40625 0 
L 9.421875 0 
z
" id="DejaVuSans-6c"/>
     <path d="M 34.1875 63.1875 
L 20.796875 26.90625 
L 47.609375 26.90625 
z
M 28.609375 72.90625 
L 39.796875 72.90625 
L 67.578125 0 
L 57.328125 0 
L 50.6875 18.703125 
L 17.828125 18.703125 
L 11.1875 0 
L 0.78125 0 
z
" id="DejaVuSans-41"/>
     <path d="M 9.8125 72.90625 
L 19.671875 72.90625 
L 19.671875 8.296875 
L 55.171875 8.296875 
L 55.171875 0 
L 9.8125 0 
z
" id="DejaVuSans-4c"/>
     <path d="M 4.890625 31.390625 
L 31.203125 31.390625 
L 31.203125 23.390625 
L 4.890625 23.390625 
z
" id="DejaVuSans-2d"/>
     <path d="M 64.40625 67.28125 
L 64.40625 56.890625 
Q 59.421875 61.53125 53.78125 63.8125 
Q 48.140625 66.109375 41.796875 66.109375 
Q 29.296875 66.109375 22.65625 58.46875 
Q 16.015625 50.828125 16.015625 36.375 
Q 16.015625 21.96875 22.65625 14.328125 
Q 29.296875 6.6875 41.796875 6.6875 
Q 48.140625 6.6875 53.78125 8.984375 
Q 59.421875 11.28125 64.40625 15.921875 
L 64.40625 5.609375 
Q 59.234375 2.09375 53.4375 0.328125 
Q 47.65625 -1.421875 41.21875 -1.421875 
Q 24.65625 -1.421875 15.125 8.703125 
Q 5.609375 18.84375 5.609375 36.375 
Q 5.609375 53.953125 15.125 64.078125 
Q 24.65625 74.21875 41.21875 74.21875 
Q 47.75 74.21875 53.53125 72.484375 
Q 59.328125 70.75 64.40625 67.28125 
z
" id="DejaVuSans-43"/>
     <path d="M 9.8125 72.90625 
L 23.09375 72.90625 
L 55.421875 11.921875 
L 55.421875 72.90625 
L 64.984375 72.90625 
L 64.984375 0 
L 51.703125 0 
L 19.390625 60.984375 
L 19.390625 0 
L 9.8125 0 
z
" id="DejaVuSans-4e"/>
    </defs>
    <g transform="translate(271.58325 49.9872)scale(0.12 -0.12)">
     <use xlink:href="#DejaVuSans-4d"/>
     <use x="86.279297" xlink:href="#DejaVuSans-6f"/>
     <use x="147.460938" xlink:href="#DejaVuSans-64"/>
     <use x="210.9375" xlink:href="#DejaVuSans-65"/>
     <use x="272.460938" xlink:href="#DejaVuSans-6c"/>
     <use x="300.244141" xlink:href="#DejaVuSans-20"/>
     <use x="332.03125" xlink:href="#DejaVuSans-41"/>
     <use x="400.439453" xlink:href="#DejaVuSans-4c"/>
     <use x="456.152344" xlink:href="#DejaVuSans-4c"/>
     <use x="511.849609" xlink:href="#DejaVuSans-2d"/>
     <use x="547.933594" xlink:href="#DejaVuSans-43"/>
     <use x="617.757812" xlink:href="#DejaVuSans-4e"/>
     <use x="692.5625" xlink:href="#DejaVuSans-4e"/>
     <use x="767.367188" xlink:href="#DejaVuSans-2d"/>
     <use x="803.451172" xlink:href="#DejaVuSans-43"/>
    </g>
   </g>
   <g id="legend_1">
    <g id="patch_7">
     <path d="M 478.890875 93.34345 
L 561.944 93.34345 
Q 563.944 93.34345 563.944 91.34345 
L 563.944 62.9872 
Q 563.944 60.9872 561.944 60.9872 
L 478.890875 60.9872 
Q 476.890875 60.9872 476.890875 62.9872 
L 476.890875 91.34345 
Q 476.890875 93.34345 478.890875 93.34345 
z
" style="fill:#ffffff;opacity:0.8;stroke:#cccccc;stroke-linejoin:miter;"/>
    </g>
    <g id="line2d_37">
     <path d="M 480.890875 69.085638 
L 500.890875 69.085638 
" style="fill:none;stroke:#1f77b4;stroke-dasharray:5.55,2.4;stroke-dashoffset:0;stroke-width:1.5;"/>
    </g>
    <g id="line2d_38"/>
    <g id="text_21">
     <!-- train error -->
     <defs>
      <path d="M 18.3125 70.21875 
L 18.3125 54.6875 
L 36.8125 54.6875 
L 36.8125 47.703125 
L 18.3125 47.703125 
L 18.3125 18.015625 
Q 18.3125 11.328125 20.140625 9.421875 
Q 21.96875 7.515625 27.59375 7.515625 
L 36.8125 7.515625 
L 36.8125 0 
L 27.59375 0 
Q 17.1875 0 13.234375 3.875 
Q 9.28125 7.765625 9.28125 18.015625 
L 9.28125 47.703125 
L 2.6875 47.703125 
L 2.6875 54.6875 
L 9.28125 54.6875 
L 9.28125 70.21875 
z
" id="DejaVuSans-74"/>
      <path d="M 34.28125 27.484375 
Q 23.390625 27.484375 19.1875 25 
Q 14.984375 22.515625 14.984375 16.5 
Q 14.984375 11.71875 18.140625 8.90625 
Q 21.296875 6.109375 26.703125 6.109375 
Q 34.1875 6.109375 38.703125 11.40625 
Q 43.21875 16.703125 43.21875 25.484375 
L 43.21875 27.484375 
z
M 52.203125 31.203125 
L 52.203125 0 
L 43.21875 0 
L 43.21875 8.296875 
Q 40.140625 3.328125 35.546875 0.953125 
Q 30.953125 -1.421875 24.3125 -1.421875 
Q 15.921875 -1.421875 10.953125 3.296875 
Q 6 8.015625 6 15.921875 
Q 6 25.140625 12.171875 29.828125 
Q 18.359375 34.515625 30.609375 34.515625 
L 43.21875 34.515625 
L 43.21875 35.40625 
Q 43.21875 41.609375 39.140625 45 
Q 35.0625 48.390625 27.6875 48.390625 
Q 23 48.390625 18.546875 47.265625 
Q 14.109375 46.140625 10.015625 43.890625 
L 10.015625 52.203125 
Q 14.9375 54.109375 19.578125 55.046875 
Q 24.21875 56 28.609375 56 
Q 40.484375 56 46.34375 49.84375 
Q 52.203125 43.703125 52.203125 31.203125 
z
" id="DejaVuSans-61"/>
      <path d="M 9.421875 54.6875 
L 18.40625 54.6875 
L 18.40625 0 
L 9.421875 0 
z
M 9.421875 75.984375 
L 18.40625 75.984375 
L 18.40625 64.59375 
L 9.421875 64.59375 
z
" id="DejaVuSans-69"/>
      <path d="M 54.890625 33.015625 
L 54.890625 0 
L 45.90625 0 
L 45.90625 32.71875 
Q 45.90625 40.484375 42.875 44.328125 
Q 39.84375 48.1875 33.796875 48.1875 
Q 26.515625 48.1875 22.3125 43.546875 
Q 18.109375 38.921875 18.109375 30.90625 
L 18.109375 0 
L 9.078125 0 
L 9.078125 54.6875 
L 18.109375 54.6875 
L 18.109375 46.1875 
Q 21.34375 51.125 25.703125 53.5625 
Q 30.078125 56 35.796875 56 
Q 45.21875 56 50.046875 50.171875 
Q 54.890625 44.34375 54.890625 33.015625 
z
" id="DejaVuSans-6e"/>
     </defs>
     <g transform="translate(508.890875 72.585638)scale(0.1 -0.1)">
      <use xlink:href="#DejaVuSans-74"/>
      <use x="39.208984" xlink:href="#DejaVuSans-72"/>
      <use x="80.322266" xlink:href="#DejaVuSans-61"/>
      <use x="141.601562" xlink:href="#DejaVuSans-69"/>
      <use x="169.384766" xlink:href="#DejaVuSans-6e"/>
      <use x="232.763672" xlink:href="#DejaVuSans-20"/>
      <use x="264.550781" xlink:href="#DejaVuSans-65"/>
      <use x="326.074219" xlink:href="#DejaVuSans-72"/>
      <use x="367.171875" xlink:href="#DejaVuSans-72"/>
      <use x="408.253906" xlink:href="#DejaVuSans-6f"/>
      <use x="469.435547" xlink:href="#DejaVuSans-72"/>
     </g>
    </g>
    <g id="line2d_39">
     <path d="M 480.890875 83.763763 
L 500.890875 83.763763 
" style="fill:none;stroke:#ff7f0e;stroke-linecap:square;stroke-width:1.5;"/>
    </g>
    <g id="line2d_40"/>
    <g id="text_22">
     <!-- test error -->
     <defs>
      <path d="M 44.28125 53.078125 
L 44.28125 44.578125 
Q 40.484375 46.53125 36.375 47.5 
Q 32.28125 48.484375 27.875 48.484375 
Q 21.1875 48.484375 17.84375 46.4375 
Q 14.5 44.390625 14.5 40.28125 
Q 14.5 37.15625 16.890625 35.375 
Q 19.28125 33.59375 26.515625 31.984375 
L 29.59375 31.296875 
Q 39.15625 29.25 43.1875 25.515625 
Q 47.21875 21.78125 47.21875 15.09375 
Q 47.21875 7.46875 41.1875 3.015625 
Q 35.15625 -1.421875 24.609375 -1.421875 
Q 20.21875 -1.421875 15.453125 -0.5625 
Q 10.6875 0.296875 5.421875 2 
L 5.421875 11.28125 
Q 10.40625 8.6875 15.234375 7.390625 
Q 20.0625 6.109375 24.8125 6.109375 
Q 31.15625 6.109375 34.5625 8.28125 
Q 37.984375 10.453125 37.984375 14.40625 
Q 37.984375 18.0625 35.515625 20.015625 
Q 33.0625 21.96875 24.703125 23.78125 
L 21.578125 24.515625 
Q 13.234375 26.265625 9.515625 29.90625 
Q 5.8125 33.546875 5.8125 39.890625 
Q 5.8125 47.609375 11.28125 51.796875 
Q 16.75 56 26.8125 56 
Q 31.78125 56 36.171875 55.265625 
Q 40.578125 54.546875 44.28125 53.078125 
z
" id="DejaVuSans-73"/>
     </defs>
     <g transform="translate(508.890875 87.263763)scale(0.1 -0.1)">
      <use xlink:href="#DejaVuSans-74"/>
      <use x="39.208984" xlink:href="#DejaVuSans-65"/>
      <use x="100.732422" xlink:href="#DejaVuSans-73"/>
      <use x="152.832031" xlink:href="#DejaVuSans-74"/>
      <use x="192.041016" xlink:href="#DejaVuSans-20"/>
      <use x="223.828125" xlink:href="#DejaVuSans-65"/>
      <use x="285.351562" xlink:href="#DejaVuSans-72"/>
      <use x="326.449219" xlink:href="#DejaVuSans-72"/>
      <use x="367.53125" xlink:href="#DejaVuSans-6f"/>
      <use x="428.712891" xlink:href="#DejaVuSans-72"/>
     </g>
    </g>
   </g>
  </g>
 </g>
 <defs>
  <clipPath id="p29869e5730">
   <rect height="359.2512" width="489.924" x="79.02" y="55.9872"/>
  </clipPath>
 </defs>
</svg>
