<?xml version="1.0" encoding="utf-8" standalone="no"?>
<!DOCTYPE svg PUBLIC "-//W3C//DTD SVG 1.1//EN"
  "http://www.w3.org/Graphics/SVG/1.1/DTD/svg11.dtd">
<!-- Created with matplotlib (http://matplotlib.org/) -->
<svg height="499pt" version="1.1" viewBox="0 0 664 499" width="664pt" xmlns="http://www.w3.org/2000/svg" xmlns:xlink="http://www.w3.org/1999/xlink">
 <defs>
  <style type="text/css">
*{stroke-linecap:butt;stroke-linejoin:round;}
  </style>
 </defs>
 <g id="figure_1">
  <g id="patch_1">
   <path d="M 0 499.68 
L 664.56 499.68 
L 664.56 0 
L 0 0 
z
" style="fill:#ffffff;"/>
  </g>
  <g id="axes_1">
   <g id="patch_2">
    <path d="M 83.07 444.7152 
L 598.104 444.7152 
L 598.104 59.9616 
L 83.07 59.9616 
z
" style="fill:#ffffff;"/>
   </g>
   <g id="matplotlib.axis_1">
    <g id="xtick_1">
     <g id="line2d_1">
      <path clip-path="url(#p76b2cd44a0)" d="M 106.480636 444.7152 
L 106.480636 59.9616 
" style="fill:none;stroke:#b0b0b0;stroke-linecap:square;stroke-width:0.8;"/>
     </g>
     <g id="line2d_2">
      <defs>
       <path d="M 0 0 
L 0 3.5 
" id="md443749898" style="stroke:#000000;stroke-width:0.8;"/>
      </defs>
      <g>
       <use style="stroke:#000000;stroke-width:0.8;" x="106.480636" xlink:href="#md443749898" y="444.7152"/>
      </g>
     </g>
     <g id="text_1">
      <!-- 0 -->
      <defs>
       <path d="M 31.78125 66.40625 
Q 24.171875 66.40625 20.328125 58.90625 
Q 16.5 51.421875 16.5 36.375 
Q 16.5 21.390625 20.328125 13.890625 
Q 24.171875 6.390625 31.78125 6.390625 
Q 39.453125 6.390625 43.28125 13.890625 
Q 47.125 21.390625 47.125 36.375 
Q 47.125 51.421875 43.28125 58.90625 
Q 39.453125 66.40625 31.78125 66.40625 
z
M 31.78125 74.21875 
Q 44.046875 74.21875 50.515625 64.515625 
Q 56.984375 54.828125 56.984375 36.375 
Q 56.984375 17.96875 50.515625 8.265625 
Q 44.046875 -1.421875 31.78125 -1.421875 
Q 19.53125 -1.421875 13.0625 8.265625 
Q 6.59375 17.96875 6.59375 36.375 
Q 6.59375 54.828125 13.0625 64.515625 
Q 19.53125 74.21875 31.78125 74.21875 
z
" id="DejaVuSans-30"/>
      </defs>
      <g transform="translate(103.299386 459.313638)scale(0.1 -0.1)">
       <use xlink:href="#DejaVuSans-30"/>
      </g>
     </g>
    </g>
    <g id="xtick_2">
     <g id="line2d_3">
      <path clip-path="url(#p76b2cd44a0)" d="M 173.559824 444.7152 
L 173.559824 59.9616 
" style="fill:none;stroke:#b0b0b0;stroke-linecap:square;stroke-width:0.8;"/>
     </g>
     <g id="line2d_4">
      <g>
       <use style="stroke:#000000;stroke-width:0.8;" x="173.559824" xlink:href="#md443749898" y="444.7152"/>
      </g>
     </g>
     <g id="text_2">
      <!-- 50 -->
      <defs>
       <path d="M 10.796875 72.90625 
L 49.515625 72.90625 
L 49.515625 64.59375 
L 19.828125 64.59375 
L 19.828125 46.734375 
Q 21.96875 47.46875 24.109375 47.828125 
Q 26.265625 48.1875 28.421875 48.1875 
Q 40.625 48.1875 47.75 41.5 
Q 54.890625 34.8125 54.890625 23.390625 
Q 54.890625 11.625 47.5625 5.09375 
Q 40.234375 -1.421875 26.90625 -1.421875 
Q 22.3125 -1.421875 17.546875 -0.640625 
Q 12.796875 0.140625 7.71875 1.703125 
L 7.71875 11.625 
Q 12.109375 9.234375 16.796875 8.0625 
Q 21.484375 6.890625 26.703125 6.890625 
Q 35.15625 6.890625 40.078125 11.328125 
Q 45.015625 15.765625 45.015625 23.390625 
Q 45.015625 31 40.078125 35.4375 
Q 35.15625 39.890625 26.703125 39.890625 
Q 22.75 39.890625 18.8125 39.015625 
Q 14.890625 38.140625 10.796875 36.28125 
z
" id="DejaVuSans-35"/>
      </defs>
      <g transform="translate(167.197324 459.313638)scale(0.1 -0.1)">
       <use xlink:href="#DejaVuSans-35"/>
       <use x="63.623047" xlink:href="#DejaVuSans-30"/>
      </g>
     </g>
    </g>
    <g id="xtick_3">
     <g id="line2d_5">
      <path clip-path="url(#p76b2cd44a0)" d="M 240.639011 444.7152 
L 240.639011 59.9616 
" style="fill:none;stroke:#b0b0b0;stroke-linecap:square;stroke-width:0.8;"/>
     </g>
     <g id="line2d_6">
      <g>
       <use style="stroke:#000000;stroke-width:0.8;" x="240.639011" xlink:href="#md443749898" y="444.7152"/>
      </g>
     </g>
     <g id="text_3">
      <!-- 100 -->
      <defs>
       <path d="M 12.40625 8.296875 
L 28.515625 8.296875 
L 28.515625 63.921875 
L 10.984375 60.40625 
L 10.984375 69.390625 
L 28.421875 72.90625 
L 38.28125 72.90625 
L 38.28125 8.296875 
L 54.390625 8.296875 
L 54.390625 0 
L 12.40625 0 
z
" id="DejaVuSans-31"/>
      </defs>
      <g transform="translate(231.095261 459.313638)scale(0.1 -0.1)">
       <use xlink:href="#DejaVuSans-31"/>
       <use x="63.623047" xlink:href="#DejaVuSans-30"/>
       <use x="127.246094" xlink:href="#DejaVuSans-30"/>
      </g>
     </g>
    </g>
    <g id="xtick_4">
     <g id="line2d_7">
      <path clip-path="url(#p76b2cd44a0)" d="M 307.718198 444.7152 
L 307.718198 59.9616 
" style="fill:none;stroke:#b0b0b0;stroke-linecap:square;stroke-width:0.8;"/>
     </g>
     <g id="line2d_8">
      <g>
       <use style="stroke:#000000;stroke-width:0.8;" x="307.718198" xlink:href="#md443749898" y="444.7152"/>
      </g>
     </g>
     <g id="text_4">
      <!-- 150 -->
      <g transform="translate(298.174448 459.313638)scale(0.1 -0.1)">
       <use xlink:href="#DejaVuSans-31"/>
       <use x="63.623047" xlink:href="#DejaVuSans-35"/>
       <use x="127.246094" xlink:href="#DejaVuSans-30"/>
      </g>
     </g>
    </g>
    <g id="xtick_5">
     <g id="line2d_9">
      <path clip-path="url(#p76b2cd44a0)" d="M 374.797386 444.7152 
L 374.797386 59.9616 
" style="fill:none;stroke:#b0b0b0;stroke-linecap:square;stroke-width:0.8;"/>
     </g>
     <g id="line2d_10">
      <g>
       <use style="stroke:#000000;stroke-width:0.8;" x="374.797386" xlink:href="#md443749898" y="444.7152"/>
      </g>
     </g>
     <g id="text_5">
      <!-- 200 -->
      <defs>
       <path d="M 19.1875 8.296875 
L 53.609375 8.296875 
L 53.609375 0 
L 7.328125 0 
L 7.328125 8.296875 
Q 12.9375 14.109375 22.625 23.890625 
Q 32.328125 33.6875 34.8125 36.53125 
Q 39.546875 41.84375 41.421875 45.53125 
Q 43.3125 49.21875 43.3125 52.78125 
Q 43.3125 58.59375 39.234375 62.25 
Q 35.15625 65.921875 28.609375 65.921875 
Q 23.96875 65.921875 18.8125 64.3125 
Q 13.671875 62.703125 7.8125 59.421875 
L 7.8125 69.390625 
Q 13.765625 71.78125 18.9375 73 
Q 24.125 74.21875 28.421875 74.21875 
Q 39.75 74.21875 46.484375 68.546875 
Q 53.21875 62.890625 53.21875 53.421875 
Q 53.21875 48.921875 51.53125 44.890625 
Q 49.859375 40.875 45.40625 35.40625 
Q 44.1875 33.984375 37.640625 27.21875 
Q 31.109375 20.453125 19.1875 8.296875 
z
" id="DejaVuSans-32"/>
      </defs>
      <g transform="translate(365.253636 459.313638)scale(0.1 -0.1)">
       <use xlink:href="#DejaVuSans-32"/>
       <use x="63.623047" xlink:href="#DejaVuSans-30"/>
       <use x="127.246094" xlink:href="#DejaVuSans-30"/>
      </g>
     </g>
    </g>
    <g id="xtick_6">
     <g id="line2d_11">
      <path clip-path="url(#p76b2cd44a0)" d="M 441.876573 444.7152 
L 441.876573 59.9616 
" style="fill:none;stroke:#b0b0b0;stroke-linecap:square;stroke-width:0.8;"/>
     </g>
     <g id="line2d_12">
      <g>
       <use style="stroke:#000000;stroke-width:0.8;" x="441.876573" xlink:href="#md443749898" y="444.7152"/>
      </g>
     </g>
     <g id="text_6">
      <!-- 250 -->
      <g transform="translate(432.332823 459.313638)scale(0.1 -0.1)">
       <use xlink:href="#DejaVuSans-32"/>
       <use x="63.623047" xlink:href="#DejaVuSans-35"/>
       <use x="127.246094" xlink:href="#DejaVuSans-30"/>
      </g>
     </g>
    </g>
    <g id="xtick_7">
     <g id="line2d_13">
      <path clip-path="url(#p76b2cd44a0)" d="M 508.95576 444.7152 
L 508.95576 59.9616 
" style="fill:none;stroke:#b0b0b0;stroke-linecap:square;stroke-width:0.8;"/>
     </g>
     <g id="line2d_14">
      <g>
       <use style="stroke:#000000;stroke-width:0.8;" x="508.95576" xlink:href="#md443749898" y="444.7152"/>
      </g>
     </g>
     <g id="text_7">
      <!-- 300 -->
      <defs>
       <path d="M 40.578125 39.3125 
Q 47.65625 37.796875 51.625 33 
Q 55.609375 28.21875 55.609375 21.1875 
Q 55.609375 10.40625 48.1875 4.484375 
Q 40.765625 -1.421875 27.09375 -1.421875 
Q 22.515625 -1.421875 17.65625 -0.515625 
Q 12.796875 0.390625 7.625 2.203125 
L 7.625 11.71875 
Q 11.71875 9.328125 16.59375 8.109375 
Q 21.484375 6.890625 26.8125 6.890625 
Q 36.078125 6.890625 40.9375 10.546875 
Q 45.796875 14.203125 45.796875 21.1875 
Q 45.796875 27.640625 41.28125 31.265625 
Q 36.765625 34.90625 28.71875 34.90625 
L 20.21875 34.90625 
L 20.21875 43.015625 
L 29.109375 43.015625 
Q 36.375 43.015625 40.234375 45.921875 
Q 44.09375 48.828125 44.09375 54.296875 
Q 44.09375 59.90625 40.109375 62.90625 
Q 36.140625 65.921875 28.71875 65.921875 
Q 24.65625 65.921875 20.015625 65.03125 
Q 15.375 64.15625 9.8125 62.3125 
L 9.8125 71.09375 
Q 15.4375 72.65625 20.34375 73.4375 
Q 25.25 74.21875 29.59375 74.21875 
Q 40.828125 74.21875 47.359375 69.109375 
Q 53.90625 64.015625 53.90625 55.328125 
Q 53.90625 49.265625 50.4375 45.09375 
Q 46.96875 40.921875 40.578125 39.3125 
z
" id="DejaVuSans-33"/>
      </defs>
      <g transform="translate(499.41201 459.313638)scale(0.1 -0.1)">
       <use xlink:href="#DejaVuSans-33"/>
       <use x="63.623047" xlink:href="#DejaVuSans-30"/>
       <use x="127.246094" xlink:href="#DejaVuSans-30"/>
      </g>
     </g>
    </g>
    <g id="xtick_8">
     <g id="line2d_15">
      <path clip-path="url(#p76b2cd44a0)" d="M 576.034947 444.7152 
L 576.034947 59.9616 
" style="fill:none;stroke:#b0b0b0;stroke-linecap:square;stroke-width:0.8;"/>
     </g>
     <g id="line2d_16">
      <g>
       <use style="stroke:#000000;stroke-width:0.8;" x="576.034947" xlink:href="#md443749898" y="444.7152"/>
      </g>
     </g>
     <g id="text_8">
      <!-- 350 -->
      <g transform="translate(566.491197 459.313638)scale(0.1 -0.1)">
       <use xlink:href="#DejaVuSans-33"/>
       <use x="63.623047" xlink:href="#DejaVuSans-35"/>
       <use x="127.246094" xlink:href="#DejaVuSans-30"/>
      </g>
     </g>
    </g>
    <g id="text_9">
     <!-- epoch -->
     <defs>
      <path d="M 56.203125 29.59375 
L 56.203125 25.203125 
L 14.890625 25.203125 
Q 15.484375 15.921875 20.484375 11.0625 
Q 25.484375 6.203125 34.421875 6.203125 
Q 39.59375 6.203125 44.453125 7.46875 
Q 49.3125 8.734375 54.109375 11.28125 
L 54.109375 2.78125 
Q 49.265625 0.734375 44.1875 -0.34375 
Q 39.109375 -1.421875 33.890625 -1.421875 
Q 20.796875 -1.421875 13.15625 6.1875 
Q 5.515625 13.8125 5.515625 26.8125 
Q 5.515625 40.234375 12.765625 48.109375 
Q 20.015625 56 32.328125 56 
Q 43.359375 56 49.78125 48.890625 
Q 56.203125 41.796875 56.203125 29.59375 
z
M 47.21875 32.234375 
Q 47.125 39.59375 43.09375 43.984375 
Q 39.0625 48.390625 32.421875 48.390625 
Q 24.90625 48.390625 20.390625 44.140625 
Q 15.875 39.890625 15.1875 32.171875 
z
" id="DejaVuSans-65"/>
      <path d="M 18.109375 8.203125 
L 18.109375 -20.796875 
L 9.078125 -20.796875 
L 9.078125 54.6875 
L 18.109375 54.6875 
L 18.109375 46.390625 
Q 20.953125 51.265625 25.265625 53.625 
Q 29.59375 56 35.59375 56 
Q 45.5625 56 51.78125 48.09375 
Q 58.015625 40.1875 58.015625 27.296875 
Q 58.015625 14.40625 51.78125 6.484375 
Q 45.5625 -1.421875 35.59375 -1.421875 
Q 29.59375 -1.421875 25.265625 0.953125 
Q 20.953125 3.328125 18.109375 8.203125 
z
M 48.6875 27.296875 
Q 48.6875 37.203125 44.609375 42.84375 
Q 40.53125 48.484375 33.40625 48.484375 
Q 26.265625 48.484375 22.1875 42.84375 
Q 18.109375 37.203125 18.109375 27.296875 
Q 18.109375 17.390625 22.1875 11.75 
Q 26.265625 6.109375 33.40625 6.109375 
Q 40.53125 6.109375 44.609375 11.75 
Q 48.6875 17.390625 48.6875 27.296875 
z
" id="DejaVuSans-70"/>
      <path d="M 30.609375 48.390625 
Q 23.390625 48.390625 19.1875 42.75 
Q 14.984375 37.109375 14.984375 27.296875 
Q 14.984375 17.484375 19.15625 11.84375 
Q 23.34375 6.203125 30.609375 6.203125 
Q 37.796875 6.203125 41.984375 11.859375 
Q 46.1875 17.53125 46.1875 27.296875 
Q 46.1875 37.015625 41.984375 42.703125 
Q 37.796875 48.390625 30.609375 48.390625 
z
M 30.609375 56 
Q 42.328125 56 49.015625 48.375 
Q 55.71875 40.765625 55.71875 27.296875 
Q 55.71875 13.875 49.015625 6.21875 
Q 42.328125 -1.421875 30.609375 -1.421875 
Q 18.84375 -1.421875 12.171875 6.21875 
Q 5.515625 13.875 5.515625 27.296875 
Q 5.515625 40.765625 12.171875 48.375 
Q 18.84375 56 30.609375 56 
z
" id="DejaVuSans-6f"/>
      <path d="M 48.78125 52.59375 
L 48.78125 44.1875 
Q 44.96875 46.296875 41.140625 47.34375 
Q 37.3125 48.390625 33.40625 48.390625 
Q 24.65625 48.390625 19.8125 42.84375 
Q 14.984375 37.3125 14.984375 27.296875 
Q 14.984375 17.28125 19.8125 11.734375 
Q 24.65625 6.203125 33.40625 6.203125 
Q 37.3125 6.203125 41.140625 7.25 
Q 44.96875 8.296875 48.78125 10.40625 
L 48.78125 2.09375 
Q 45.015625 0.34375 40.984375 -0.53125 
Q 36.96875 -1.421875 32.421875 -1.421875 
Q 20.0625 -1.421875 12.78125 6.34375 
Q 5.515625 14.109375 5.515625 27.296875 
Q 5.515625 40.671875 12.859375 48.328125 
Q 20.21875 56 33.015625 56 
Q 37.15625 56 41.109375 55.140625 
Q 45.0625 54.296875 48.78125 52.59375 
z
" id="DejaVuSans-63"/>
      <path d="M 54.890625 33.015625 
L 54.890625 0 
L 45.90625 0 
L 45.90625 32.71875 
Q 45.90625 40.484375 42.875 44.328125 
Q 39.84375 48.1875 33.796875 48.1875 
Q 26.515625 48.1875 22.3125 43.546875 
Q 18.109375 38.921875 18.109375 30.90625 
L 18.109375 0 
L 9.078125 0 
L 9.078125 75.984375 
L 18.109375 75.984375 
L 18.109375 46.1875 
Q 21.34375 51.125 25.703125 53.5625 
Q 30.078125 56 35.796875 56 
Q 45.21875 56 50.046875 50.171875 
Q 54.890625 44.34375 54.890625 33.015625 
z
" id="DejaVuSans-68"/>
     </defs>
     <g transform="translate(325.358875 472.991762)scale(0.1 -0.1)">
      <use xlink:href="#DejaVuSans-65"/>
      <use x="61.523438" xlink:href="#DejaVuSans-70"/>
      <use x="125" xlink:href="#DejaVuSans-6f"/>
      <use x="186.181641" xlink:href="#DejaVuSans-63"/>
      <use x="241.162109" xlink:href="#DejaVuSans-68"/>
     </g>
    </g>
   </g>
   <g id="matplotlib.axis_2">
    <g id="ytick_1">
     <g id="line2d_17">
      <path clip-path="url(#p76b2cd44a0)" d="M 83.07 425.412981 
L 598.104 425.412981 
" style="fill:none;stroke:#b0b0b0;stroke-linecap:square;stroke-width:0.8;"/>
     </g>
     <g id="line2d_18">
      <defs>
       <path d="M 0 0 
L -3.5 0 
" id="m35e12a79dc" style="stroke:#000000;stroke-width:0.8;"/>
      </defs>
      <g>
       <use style="stroke:#000000;stroke-width:0.8;" x="83.07" xlink:href="#m35e12a79dc" y="425.412981"/>
      </g>
     </g>
     <g id="text_10">
      <!-- 10 -->
      <g transform="translate(63.345 429.2122)scale(0.1 -0.1)">
       <use xlink:href="#DejaVuSans-31"/>
       <use x="63.623047" xlink:href="#DejaVuSans-30"/>
      </g>
     </g>
    </g>
    <g id="ytick_2">
     <g id="line2d_19">
      <path clip-path="url(#p76b2cd44a0)" d="M 83.07 378.915055 
L 598.104 378.915055 
" style="fill:none;stroke:#b0b0b0;stroke-linecap:square;stroke-width:0.8;"/>
     </g>
     <g id="line2d_20">
      <g>
       <use style="stroke:#000000;stroke-width:0.8;" x="83.07" xlink:href="#m35e12a79dc" y="378.915055"/>
      </g>
     </g>
     <g id="text_11">
      <!-- 20 -->
      <g transform="translate(63.345 382.714273)scale(0.1 -0.1)">
       <use xlink:href="#DejaVuSans-32"/>
       <use x="63.623047" xlink:href="#DejaVuSans-30"/>
      </g>
     </g>
    </g>
    <g id="ytick_3">
     <g id="line2d_21">
      <path clip-path="url(#p76b2cd44a0)" d="M 83.07 332.417128 
L 598.104 332.417128 
" style="fill:none;stroke:#b0b0b0;stroke-linecap:square;stroke-width:0.8;"/>
     </g>
     <g id="line2d_22">
      <g>
       <use style="stroke:#000000;stroke-width:0.8;" x="83.07" xlink:href="#m35e12a79dc" y="332.417128"/>
      </g>
     </g>
     <g id="text_12">
      <!-- 30 -->
      <g transform="translate(63.345 336.216347)scale(0.1 -0.1)">
       <use xlink:href="#DejaVuSans-33"/>
       <use x="63.623047" xlink:href="#DejaVuSans-30"/>
      </g>
     </g>
    </g>
    <g id="ytick_4">
     <g id="line2d_23">
      <path clip-path="url(#p76b2cd44a0)" d="M 83.07 285.919202 
L 598.104 285.919202 
" style="fill:none;stroke:#b0b0b0;stroke-linecap:square;stroke-width:0.8;"/>
     </g>
     <g id="line2d_24">
      <g>
       <use style="stroke:#000000;stroke-width:0.8;" x="83.07" xlink:href="#m35e12a79dc" y="285.919202"/>
      </g>
     </g>
     <g id="text_13">
      <!-- 40 -->
      <defs>
       <path d="M 37.796875 64.3125 
L 12.890625 25.390625 
L 37.796875 25.390625 
z
M 35.203125 72.90625 
L 47.609375 72.90625 
L 47.609375 25.390625 
L 58.015625 25.390625 
L 58.015625 17.1875 
L 47.609375 17.1875 
L 47.609375 0 
L 37.796875 0 
L 37.796875 17.1875 
L 4.890625 17.1875 
L 4.890625 26.703125 
z
" id="DejaVuSans-34"/>
      </defs>
      <g transform="translate(63.345 289.718421)scale(0.1 -0.1)">
       <use xlink:href="#DejaVuSans-34"/>
       <use x="63.623047" xlink:href="#DejaVuSans-30"/>
      </g>
     </g>
    </g>
    <g id="ytick_5">
     <g id="line2d_25">
      <path clip-path="url(#p76b2cd44a0)" d="M 83.07 239.421276 
L 598.104 239.421276 
" style="fill:none;stroke:#b0b0b0;stroke-linecap:square;stroke-width:0.8;"/>
     </g>
     <g id="line2d_26">
      <g>
       <use style="stroke:#000000;stroke-width:0.8;" x="83.07" xlink:href="#m35e12a79dc" y="239.421276"/>
      </g>
     </g>
     <g id="text_14">
      <!-- 50 -->
      <g transform="translate(63.345 243.220495)scale(0.1 -0.1)">
       <use xlink:href="#DejaVuSans-35"/>
       <use x="63.623047" xlink:href="#DejaVuSans-30"/>
      </g>
     </g>
    </g>
    <g id="ytick_6">
     <g id="line2d_27">
      <path clip-path="url(#p76b2cd44a0)" d="M 83.07 192.92335 
L 598.104 192.92335 
" style="fill:none;stroke:#b0b0b0;stroke-linecap:square;stroke-width:0.8;"/>
     </g>
     <g id="line2d_28">
      <g>
       <use style="stroke:#000000;stroke-width:0.8;" x="83.07" xlink:href="#m35e12a79dc" y="192.92335"/>
      </g>
     </g>
     <g id="text_15">
      <!-- 60 -->
      <defs>
       <path d="M 33.015625 40.375 
Q 26.375 40.375 22.484375 35.828125 
Q 18.609375 31.296875 18.609375 23.390625 
Q 18.609375 15.53125 22.484375 10.953125 
Q 26.375 6.390625 33.015625 6.390625 
Q 39.65625 6.390625 43.53125 10.953125 
Q 47.40625 15.53125 47.40625 23.390625 
Q 47.40625 31.296875 43.53125 35.828125 
Q 39.65625 40.375 33.015625 40.375 
z
M 52.59375 71.296875 
L 52.59375 62.3125 
Q 48.875 64.0625 45.09375 64.984375 
Q 41.3125 65.921875 37.59375 65.921875 
Q 27.828125 65.921875 22.671875 59.328125 
Q 17.53125 52.734375 16.796875 39.40625 
Q 19.671875 43.65625 24.015625 45.921875 
Q 28.375 48.1875 33.59375 48.1875 
Q 44.578125 48.1875 50.953125 41.515625 
Q 57.328125 34.859375 57.328125 23.390625 
Q 57.328125 12.15625 50.6875 5.359375 
Q 44.046875 -1.421875 33.015625 -1.421875 
Q 20.359375 -1.421875 13.671875 8.265625 
Q 6.984375 17.96875 6.984375 36.375 
Q 6.984375 53.65625 15.1875 63.9375 
Q 23.390625 74.21875 37.203125 74.21875 
Q 40.921875 74.21875 44.703125 73.484375 
Q 48.484375 72.75 52.59375 71.296875 
z
" id="DejaVuSans-36"/>
      </defs>
      <g transform="translate(63.345 196.722569)scale(0.1 -0.1)">
       <use xlink:href="#DejaVuSans-36"/>
       <use x="63.623047" xlink:href="#DejaVuSans-30"/>
      </g>
     </g>
    </g>
    <g id="ytick_7">
     <g id="line2d_29">
      <path clip-path="url(#p76b2cd44a0)" d="M 83.07 146.425424 
L 598.104 146.425424 
" style="fill:none;stroke:#b0b0b0;stroke-linecap:square;stroke-width:0.8;"/>
     </g>
     <g id="line2d_30">
      <g>
       <use style="stroke:#000000;stroke-width:0.8;" x="83.07" xlink:href="#m35e12a79dc" y="146.425424"/>
      </g>
     </g>
     <g id="text_16">
      <!-- 70 -->
      <defs>
       <path d="M 8.203125 72.90625 
L 55.078125 72.90625 
L 55.078125 68.703125 
L 28.609375 0 
L 18.3125 0 
L 43.21875 64.59375 
L 8.203125 64.59375 
z
" id="DejaVuSans-37"/>
      </defs>
      <g transform="translate(63.345 150.224642)scale(0.1 -0.1)">
       <use xlink:href="#DejaVuSans-37"/>
       <use x="63.623047" xlink:href="#DejaVuSans-30"/>
      </g>
     </g>
    </g>
    <g id="ytick_8">
     <g id="line2d_31">
      <path clip-path="url(#p76b2cd44a0)" d="M 83.07 99.927498 
L 598.104 99.927498 
" style="fill:none;stroke:#b0b0b0;stroke-linecap:square;stroke-width:0.8;"/>
     </g>
     <g id="line2d_32">
      <g>
       <use style="stroke:#000000;stroke-width:0.8;" x="83.07" xlink:href="#m35e12a79dc" y="99.927498"/>
      </g>
     </g>
     <g id="text_17">
      <!-- 80 -->
      <defs>
       <path d="M 31.78125 34.625 
Q 24.75 34.625 20.71875 30.859375 
Q 16.703125 27.09375 16.703125 20.515625 
Q 16.703125 13.921875 20.71875 10.15625 
Q 24.75 6.390625 31.78125 6.390625 
Q 38.8125 6.390625 42.859375 10.171875 
Q 46.921875 13.96875 46.921875 20.515625 
Q 46.921875 27.09375 42.890625 30.859375 
Q 38.875 34.625 31.78125 34.625 
z
M 21.921875 38.8125 
Q 15.578125 40.375 12.03125 44.71875 
Q 8.5 49.078125 8.5 55.328125 
Q 8.5 64.0625 14.71875 69.140625 
Q 20.953125 74.21875 31.78125 74.21875 
Q 42.671875 74.21875 48.875 69.140625 
Q 55.078125 64.0625 55.078125 55.328125 
Q 55.078125 49.078125 51.53125 44.71875 
Q 48 40.375 41.703125 38.8125 
Q 48.828125 37.15625 52.796875 32.3125 
Q 56.78125 27.484375 56.78125 20.515625 
Q 56.78125 9.90625 50.3125 4.234375 
Q 43.84375 -1.421875 31.78125 -1.421875 
Q 19.734375 -1.421875 13.25 4.234375 
Q 6.78125 9.90625 6.78125 20.515625 
Q 6.78125 27.484375 10.78125 32.3125 
Q 14.796875 37.15625 21.921875 38.8125 
z
M 18.3125 54.390625 
Q 18.3125 48.734375 21.84375 45.5625 
Q 25.390625 42.390625 31.78125 42.390625 
Q 38.140625 42.390625 41.71875 45.5625 
Q 45.3125 48.734375 45.3125 54.390625 
Q 45.3125 60.0625 41.71875 63.234375 
Q 38.140625 66.40625 31.78125 66.40625 
Q 25.390625 66.40625 21.84375 63.234375 
Q 18.3125 60.0625 18.3125 54.390625 
z
" id="DejaVuSans-38"/>
      </defs>
      <g transform="translate(63.345 103.726716)scale(0.1 -0.1)">
       <use xlink:href="#DejaVuSans-38"/>
       <use x="63.623047" xlink:href="#DejaVuSans-30"/>
      </g>
     </g>
    </g>
    <g id="text_18">
     <!-- error (%) -->
     <defs>
      <path d="M 41.109375 46.296875 
Q 39.59375 47.171875 37.8125 47.578125 
Q 36.03125 48 33.890625 48 
Q 26.265625 48 22.1875 43.046875 
Q 18.109375 38.09375 18.109375 28.8125 
L 18.109375 0 
L 9.078125 0 
L 9.078125 54.6875 
L 18.109375 54.6875 
L 18.109375 46.1875 
Q 20.953125 51.171875 25.484375 53.578125 
Q 30.03125 56 36.53125 56 
Q 37.453125 56 38.578125 55.875 
Q 39.703125 55.765625 41.0625 55.515625 
z
" id="DejaVuSans-72"/>
      <path id="DejaVuSans-20"/>
      <path d="M 31 75.875 
Q 24.46875 64.65625 21.28125 53.65625 
Q 18.109375 42.671875 18.109375 31.390625 
Q 18.109375 20.125 21.3125 9.0625 
Q 24.515625 -2 31 -13.1875 
L 23.1875 -13.1875 
Q 15.875 -1.703125 12.234375 9.375 
Q 8.59375 20.453125 8.59375 31.390625 
Q 8.59375 42.28125 12.203125 53.3125 
Q 15.828125 64.359375 23.1875 75.875 
z
" id="DejaVuSans-28"/>
      <path d="M 72.703125 32.078125 
Q 68.453125 32.078125 66.03125 28.46875 
Q 63.625 24.859375 63.625 18.40625 
Q 63.625 12.0625 66.03125 8.421875 
Q 68.453125 4.78125 72.703125 4.78125 
Q 76.859375 4.78125 79.265625 8.421875 
Q 81.6875 12.0625 81.6875 18.40625 
Q 81.6875 24.8125 79.265625 28.4375 
Q 76.859375 32.078125 72.703125 32.078125 
z
M 72.703125 38.28125 
Q 80.421875 38.28125 84.953125 32.90625 
Q 89.5 27.546875 89.5 18.40625 
Q 89.5 9.28125 84.9375 3.921875 
Q 80.375 -1.421875 72.703125 -1.421875 
Q 64.890625 -1.421875 60.34375 3.921875 
Q 55.8125 9.28125 55.8125 18.40625 
Q 55.8125 27.59375 60.375 32.9375 
Q 64.9375 38.28125 72.703125 38.28125 
z
M 22.3125 68.015625 
Q 18.109375 68.015625 15.6875 64.375 
Q 13.28125 60.75 13.28125 54.390625 
Q 13.28125 47.953125 15.671875 44.328125 
Q 18.0625 40.71875 22.3125 40.71875 
Q 26.5625 40.71875 28.96875 44.328125 
Q 31.390625 47.953125 31.390625 54.390625 
Q 31.390625 60.6875 28.953125 64.34375 
Q 26.515625 68.015625 22.3125 68.015625 
z
M 66.40625 74.21875 
L 74.21875 74.21875 
L 28.609375 -1.421875 
L 20.796875 -1.421875 
z
M 22.3125 74.21875 
Q 30.03125 74.21875 34.609375 68.875 
Q 39.203125 63.53125 39.203125 54.390625 
Q 39.203125 45.171875 34.640625 39.84375 
Q 30.078125 34.515625 22.3125 34.515625 
Q 14.546875 34.515625 10.03125 39.859375 
Q 5.515625 45.21875 5.515625 54.390625 
Q 5.515625 63.484375 10.046875 68.84375 
Q 14.59375 74.21875 22.3125 74.21875 
z
" id="DejaVuSans-25"/>
      <path d="M 8.015625 75.875 
L 15.828125 75.875 
Q 23.140625 64.359375 26.78125 53.3125 
Q 30.421875 42.28125 30.421875 31.390625 
Q 30.421875 20.453125 26.78125 9.375 
Q 23.140625 -1.703125 15.828125 -13.1875 
L 8.015625 -13.1875 
Q 14.5 -2 17.703125 9.0625 
Q 20.90625 20.125 20.90625 31.390625 
Q 20.90625 42.671875 17.703125 53.65625 
Q 14.5 64.65625 8.015625 75.875 
z
" id="DejaVuSans-29"/>
     </defs>
     <g transform="translate(57.265313 274.879806)rotate(-90)scale(0.1 -0.1)">
      <use xlink:href="#DejaVuSans-65"/>
      <use x="61.523438" xlink:href="#DejaVuSans-72"/>
      <use x="102.621094" xlink:href="#DejaVuSans-72"/>
      <use x="143.703125" xlink:href="#DejaVuSans-6f"/>
      <use x="204.884766" xlink:href="#DejaVuSans-72"/>
      <use x="245.998047" xlink:href="#DejaVuSans-20"/>
      <use x="277.785156" xlink:href="#DejaVuSans-28"/>
      <use x="316.798828" xlink:href="#DejaVuSans-25"/>
      <use x="411.818359" xlink:href="#DejaVuSans-29"/>
     </g>
    </g>
   </g>
   <g id="line2d_33">
    <path clip-path="url(#p76b2cd44a0)" d="M 106.480636 77.4504 
L 107.82222 109.719961 
L 109.163804 134.317364 
L 110.505388 149.996464 
L 111.846971 159.426244 
L 114.530139 196.429294 
L 115.871723 209.002333 
L 117.213306 222.626225 
L 118.55489 240.388433 
L 119.896474 248.692963 
L 121.238058 259.666473 
L 122.579641 267.385129 
L 123.921225 272.081419 
L 125.262809 277.307786 
L 126.604393 283.092128 
L 127.945976 285.630915 
L 129.28756 285.193835 
L 130.629144 292.680001 
L 131.970728 291.647747 
L 133.312311 295.17229 
L 134.653895 296.046451 
L 135.995479 298.827027 
L 137.337063 299.143213 
L 138.678646 303.430321 
L 140.02023 303.634912 
L 141.361814 307.04786 
L 142.703397 307.968519 
L 144.044981 310.330614 
L 146.728149 315.705774 
L 148.069732 317.296003 
L 149.411316 320.764748 
L 150.7529 323.368632 
L 152.094484 323.675518 
L 154.777651 328.278813 
L 156.119235 328.743792 
L 157.460819 333.133197 
L 158.802402 333.0588 
L 160.143986 333.384285 
L 161.48557 333.886463 
L 162.827154 335.941671 
L 164.168737 336.518246 
L 165.510321 335.802178 
L 166.851905 337.792289 
L 168.193489 338.368863 
L 169.535072 339.717303 
L 170.876656 339.001235 
L 172.21824 340.777456 
L 173.559824 339.363919 
L 174.901407 340.414772 
L 176.242991 339.159328 
L 177.584575 341.437726 
L 180.267742 343.985813 
L 181.609326 342.776866 
L 182.95091 342.683871 
L 184.292494 343.399939 
L 185.634077 342.730369 
L 186.975661 344.71118 
L 188.317245 344.906471 
L 189.658829 344.739079 
L 191.000412 345.16686 
L 192.341996 343.623129 
L 193.68358 344.320598 
L 195.025164 345.538843 
L 196.366747 345.306354 
L 197.708331 345.548143 
L 199.049915 346.27351 
L 201.733082 346.06892 
L 204.41625 347.296465 
L 205.757834 346.478101 
L 207.099417 347.054676 
L 208.441001 346.924481 
L 209.782585 346.264211 
L 211.124169 347.259267 
L 212.465752 347.082574 
L 213.807336 348.049731 
L 215.14892 347.259267 
L 216.490504 347.017477 
L 217.832087 348.431014 
L 219.173671 348.617006 
L 220.515255 347.938136 
L 221.856838 347.39876 
L 223.198422 347.919537 
L 225.88159 349.295876 
L 227.223173 349.565564 
L 228.564757 348.189225 
L 229.906341 349.20288 
L 231.247925 348.654204 
L 232.589508 348.421715 
L 233.931092 350.411826 
L 235.272676 348.263622 
L 236.61426 349.574863 
L 237.955843 349.333074 
L 239.297427 350.560619 
L 240.639011 349.723657 
L 241.980595 350.960501 
L 243.322178 350.635016 
L 244.663762 348.858795 
L 246.005346 350.272332 
L 247.34693 351.425481 
L 248.688513 350.886105 
L 250.030097 349.323774 
L 252.713265 350.281632 
L 254.054848 349.760855 
L 256.738016 350.011944 
L 258.0796 350.755911 
L 259.421183 349.435369 
L 260.762767 350.411826 
L 262.104351 351.053497 
L 263.445935 351.481278 
L 264.787518 350.867506 
L 266.129102 351.416181 
L 267.470686 350.635016 
L 268.81227 351.555675 
L 270.153853 352.253144 
L 271.495437 352.708823 
L 272.837021 351.416181 
L 274.178605 352.11365 
L 275.520188 352.597228 
L 276.861772 351.137194 
L 278.203356 352.950613 
L 279.54494 351.006999 
L 280.886523 352.318241 
L 282.228107 351.853262 
L 283.569691 353.155204 
L 284.911275 351.797464 
L 286.252858 351.685869 
L 287.594442 352.039253 
L 288.936026 351.230189 
L 290.27761 350.867506 
L 291.619193 351.602173 
L 292.960777 353.192402 
L 294.302361 354.010765 
L 295.643945 351.43478 
L 296.985528 352.773921 
L 298.327112 352.78322 
L 299.668696 352.085751 
L 301.010279 352.615828 
L 302.351863 351.89046 
L 303.693447 352.904115 
L 305.035031 352.299642 
L 306.376614 353.434191 
L 307.718198 353.806175 
L 309.059782 353.91777 
L 310.401366 353.787575 
L 313.084533 354.029365 
L 314.426117 353.043609 
L 315.767701 351.853262 
L 317.109284 353.861972 
L 319.792452 352.997111 
L 321.134036 353.211001 
L 322.475619 352.866916 
L 323.817203 353.313297 
L 325.158787 354.224656 
L 326.500371 354.410648 
L 327.841954 353.992166 
L 329.183538 353.378394 
L 330.525122 353.303997 
L 331.866706 354.57804 
L 333.208289 354.336251 
L 334.549873 353.489989 
L 335.891457 353.396993 
L 337.233041 354.447846 
L 338.574624 352.866916 
L 339.916208 354.624538 
L 341.257792 353.341195 
L 342.599376 354.875627 
L 343.940959 353.489989 
L 345.282543 352.522832 
L 346.624127 355.03372 
L 347.965711 354.903526 
L 349.307294 353.220301 
L 350.648878 354.987222 
L 351.990462 355.25691 
L 353.332046 355.70329 
L 354.673629 354.457146 
L 356.015213 353.964267 
L 357.356797 355.879982 
L 360.039964 353.722478 
L 361.381548 357.470211 
L 362.723132 355.796286 
L 364.064716 354.382749 
L 365.406299 356.512354 
L 366.747883 356.512354 
L 368.089467 354.950024 
L 369.431051 356.642548 
L 372.114218 356.614649 
L 373.455802 355.489399 
L 374.797386 388.335535 
L 376.138969 393.15272 
L 377.480553 393.227116 
L 378.822137 394.835945 
L 380.163721 394.863843 
L 381.505304 395.905397 
L 382.846888 396.072789 
L 384.188472 395.858899 
L 385.530055 396.853955 
L 386.871639 397.18874 
L 388.213223 396.695862 
L 390.89639 397.346833 
L 392.237974 398.416285 
L 393.579558 397.607221 
L 394.921142 398.769669 
L 396.262725 398.825467 
L 397.604309 398.453483 
L 398.945893 398.490682 
L 400.287477 399.987915 
L 401.62906 398.97426 
L 405.653812 401.038768 
L 406.995395 400.713282 
L 408.336979 400.796979 
L 409.678563 400.527291 
L 411.020147 401.364253 
L 412.36173 401.875731 
L 413.703314 402.219815 
L 415.044898 401.838532 
L 416.386482 402.266313 
L 419.069649 402.77779 
L 420.411233 403.856542 
L 421.752817 402.880086 
L 424.435984 403.112575 
L 425.777568 402.963782 
L 427.119152 402.982381 
L 429.802319 403.865842 
L 431.143903 403.159073 
L 432.485487 404.656307 
L 433.82707 405.465371 
L 435.168654 403.847243 
L 436.510238 404.702805 
L 440.534989 405.25148 
L 441.876573 417.071253 
L 443.218157 418.066309 
L 444.55974 418.48479 
L 445.901324 419.38685 
L 447.242908 419.265955 
L 448.584492 419.489145 
L 449.926075 419.451947 
L 451.267659 420.04712 
L 452.609243 419.814631 
L 453.950827 420.158715 
L 456.633994 419.628639 
L 457.975578 420.233112 
L 459.317162 420.456302 
L 460.658745 420.372606 
L 462.000329 421.62805 
L 463.341913 421.18167 
L 464.683496 420.344707 
L 466.02508 421.469957 
L 467.366664 420.112217 
L 468.708248 421.302564 
L 470.049831 420.884083 
L 471.391415 421.535054 
L 472.732999 421.516455 
L 474.074583 419.935525 
L 475.416166 421.553653 
L 476.75775 421.711746 
L 478.099334 421.562953 
L 479.440918 421.795442 
L 480.782501 421.190969 
L 482.124085 421.274665 
L 483.465669 420.94918 
L 484.807253 422.093029 
L 486.148836 421.414159 
L 488.832004 422.632405 
L 490.173588 421.888438 
L 491.515171 422.437114 
L 492.856755 422.167426 
L 495.539923 422.427814 
L 496.881506 422.009333 
L 498.22309 422.97649 
L 499.564674 422.167426 
L 502.247841 423.41357 
L 503.589425 422.799797 
L 504.931009 422.604506 
L 506.272593 422.660304 
L 507.614176 422.474312 
L 508.95576 425.366483 
L 510.297344 424.817807 
L 511.638928 425.989555 
L 515.663679 425.450179 
L 517.005263 425.636171 
L 518.346846 425.682669 
L 519.68843 426.045353 
L 521.030014 425.013099 
L 522.371598 425.682669 
L 523.713181 425.784964 
L 525.054765 424.938702 
L 526.396349 425.719867 
L 527.737933 426.063952 
L 529.079516 425.524576 
L 530.4211 425.338584 
L 531.762684 425.608272 
L 533.104268 425.44088 
L 535.787435 425.319985 
L 537.129019 426.752121 
L 538.470603 425.598973 
L 539.812186 425.152592 
L 541.15377 426.129049 
L 542.495354 425.998855 
L 543.836937 426.696324 
L 545.178521 426.045353 
L 546.520105 425.171192 
L 547.861689 425.515276 
L 550.544856 426.649826 
L 551.88644 425.840762 
L 553.228024 425.524576 
L 554.569607 425.598973 
L 555.911191 425.412981 
L 557.252775 425.598973 
L 558.594359 425.933758 
L 559.935942 424.510921 
L 561.277526 426.222045 
L 562.61911 425.859361 
L 563.960694 427.2264 
L 565.302277 425.598973 
L 566.643861 426.305741 
L 567.985445 426.073251 
L 569.327029 426.175547 
L 570.668612 426.426636 
L 572.010196 425.682669 
L 573.35178 426.361539 
L 574.693364 426.807919 
L 574.693364 426.807919 
" style="fill:none;stroke:#1f77b4;stroke-linecap:square;stroke-width:1.5;"/>
   </g>
   <g id="line2d_34">
    <path clip-path="url(#p76b2cd44a0)" d="M 106.480636 85.699132 
L 107.82222 126.012834 
L 109.163804 147.029897 
L 110.505388 147.308884 
L 111.846971 166.977507 
L 113.188555 192.086387 
L 114.530139 198.921582 
L 115.871723 220.264131 
L 117.213306 228.308272 
L 118.55489 238.956297 
L 119.896474 245.466007 
L 121.238058 250.627276 
L 122.579641 265.088131 
L 123.921225 287.639626 
L 125.262809 233.934521 
L 126.604393 284.61726 
L 127.945976 294.056339 
L 129.28756 266.204082 
L 130.629144 301.356514 
L 131.970728 293.963344 
L 133.312311 279.827974 
L 134.653895 299.682588 
L 135.995479 301.960987 
L 137.337063 300.287061 
L 138.678646 300.519551 
L 140.02023 298.659634 
L 141.361814 301.124024 
L 142.703397 286.709667 
L 144.044981 310.609601 
L 145.386565 319.723195 
L 146.728149 307.587236 
L 148.069732 312.841502 
L 149.411316 323.024547 
L 150.7529 309.819136 
L 152.094484 326.279402 
L 153.436067 320.420664 
L 154.777651 307.540738 
L 156.119235 337.299411 
L 157.460819 321.722605 
L 158.802402 322.792058 
L 160.143986 329.394763 
L 161.48557 331.394174 
L 162.827154 308.656688 
L 164.168737 348.365917 
L 165.510321 344.506589 
L 166.851905 334.974514 
L 168.193489 333.347087 
L 169.535072 342.69317 
L 170.876656 327.348855 
L 172.21824 344.181104 
L 173.559824 348.691403 
L 174.901407 352.364739 
L 176.242991 343.669627 
L 178.926159 339.205826 
L 180.267742 345.948025 
L 181.609326 323.489527 
L 182.95091 335.857975 
L 184.292494 330.929195 
L 185.634077 350.179336 
L 186.975661 317.119311 
L 188.317245 351.806764 
L 189.658829 345.483046 
L 191.000412 339.99629 
L 192.341996 344.599585 
L 193.68358 316.375344 
L 195.025164 339.205826 
L 196.366747 340.740257 
L 197.708331 336.369452 
L 199.049915 321.536614 
L 200.391499 341.065743 
L 201.733082 357.572507 
L 204.41625 341.205237 
L 205.757834 307.49424 
L 207.099417 346.087519 
L 208.441001 347.063975 
L 209.782585 335.950971 
L 211.124169 351.574274 
L 212.465752 331.859153 
L 213.807336 317.444796 
L 215.14892 327.44185 
L 216.490504 343.111652 
L 217.832087 334.928017 
L 219.173671 343.065154 
L 220.515255 342.321187 
L 221.856838 342.460681 
L 223.198422 349.435369 
L 224.540006 339.717303 
L 225.88159 326.883875 
L 227.223173 348.133428 
L 228.564757 347.993934 
L 229.906341 343.390639 
L 231.247925 356.084573 
L 232.589508 337.252913 
L 233.931092 343.297643 
L 235.272676 356.177569 
L 236.61426 346.598996 
L 237.955843 347.017477 
L 239.297427 325.907419 
L 241.980595 350.923303 
L 243.322178 317.026315 
L 244.663762 345.855029 
L 246.005346 334.695527 
L 247.34693 342.972158 
L 248.688513 335.811477 
L 250.030097 350.876805 
L 251.371681 343.251145 
L 252.713265 344.04161 
L 254.054848 338.926838 
L 255.396432 354.13166 
L 256.738016 330.975693 
L 258.0796 356.782042 
L 259.421183 322.74556 
L 260.762767 362.919768 
L 262.104351 345.762033 
L 263.445935 352.922714 
L 264.787518 331.208182 
L 266.129102 344.692581 
L 267.470686 326.55839 
L 268.81227 356.689046 
L 270.153853 354.13166 
L 271.495437 334.463037 
L 272.837021 332.789112 
L 274.178605 331.71966 
L 275.520188 328.79029 
L 276.861772 340.972747 
L 278.203356 338.508357 
L 279.54494 355.991577 
L 280.886523 345.901527 
L 282.228107 361.106349 
L 283.569691 325.628431 
L 284.911275 357.107527 
L 286.252858 342.972158 
L 287.594442 353.248199 
L 288.936026 356.36356 
L 290.27761 343.483635 
L 291.619193 343.576631 
L 292.960777 311.725551 
L 294.302361 349.388872 
L 295.643945 330.045734 
L 296.985528 343.483635 
L 298.327112 331.580166 
L 299.668696 350.830307 
L 301.010279 352.364739 
L 302.351863 350.411826 
L 303.693447 357.897992 
L 305.035031 335.485992 
L 306.376614 330.417718 
L 307.718198 359.897403 
L 309.059782 349.388872 
L 310.401366 355.945079 
L 311.742949 349.388872 
L 313.084533 351.946257 
L 314.426117 337.99688 
L 315.767701 350.923303 
L 317.109284 335.253502 
L 318.450868 357.619004 
L 319.792452 346.087519 
L 321.134036 341.902705 
L 322.475619 334.695527 
L 323.817203 355.71259 
L 325.158787 333.579577 
L 326.500371 348.319419 
L 327.841954 339.391817 
L 329.183538 355.526598 
L 330.525122 353.248199 
L 333.208289 333.672572 
L 334.549873 361.75732 
L 335.891457 341.902705 
L 337.233041 347.435959 
L 338.574624 338.694349 
L 339.916208 355.387104 
L 341.257792 336.973925 
L 342.599376 343.80912 
L 343.940959 347.947436 
L 345.282543 349.714357 
L 346.624127 340.972747 
L 347.965711 345.529544 
L 349.307294 342.042199 
L 350.648878 329.25527 
L 351.990462 337.206415 
L 353.332046 347.110473 
L 354.673629 338.461859 
L 356.015213 352.318241 
L 357.356797 336.183461 
L 358.698381 356.456556 
L 360.039964 360.222888 
L 361.381548 349.574863 
L 362.723132 347.435959 
L 364.064716 342.088697 
L 365.406299 339.99629 
L 366.747883 362.594283 
L 368.089467 351.016299 
L 369.431051 352.504233 
L 370.772634 332.184639 
L 372.114218 341.112241 
L 373.455802 351.109295 
L 374.797386 381.797926 
L 376.138969 385.099279 
L 378.822137 380.309992 
L 380.163721 383.05337 
L 381.505304 386.447719 
L 382.846888 379.147544 
L 384.188472 382.913876 
L 385.530055 380.914466 
L 386.871639 384.494806 
L 388.213223 378.217586 
L 389.554807 377.706109 
L 390.89639 383.099868 
L 392.237974 379.380034 
L 393.579558 382.309403 
L 394.921142 380.263495 
L 396.262725 377.380623 
L 397.604309 381.007461 
L 398.945893 382.355901 
L 400.287477 387.191686 
L 401.62906 381.93742 
L 402.970644 383.657843 
L 404.312228 383.983329 
L 405.653812 381.193453 
L 406.995395 382.355901 
L 408.336979 382.123412 
L 409.678563 374.31176 
L 411.020147 378.915055 
L 412.36173 383.099868 
L 413.703314 386.726706 
L 415.044898 383.843835 
L 416.386482 381.751428 
L 417.728065 386.168731 
L 419.069649 380.774972 
L 420.411233 381.146955 
L 421.752817 386.63371 
L 423.0944 380.867968 
L 425.777568 385.703752 
L 427.119152 379.287038 
L 428.460735 382.216407 
L 429.802319 378.682565 
L 431.143903 385.378266 
L 432.485487 388.21464 
L 433.82707 383.425354 
L 435.168654 375.42771 
L 436.510238 383.983329 
L 437.851822 386.494217 
L 439.193405 383.843835 
L 440.534989 385.657254 
L 441.876573 393.14342 
L 443.218157 394.817345 
L 445.901324 393.701395 
L 447.242908 394.910341 
L 448.584492 392.957428 
L 449.926075 395.561312 
L 451.267659 392.957428 
L 452.609243 391.051013 
L 453.950827 391.841478 
L 455.29241 390.958018 
L 456.633994 391.701984 
L 457.975578 391.748482 
L 459.317162 390.353545 
L 460.658745 393.980383 
L 462.000329 392.25996 
L 463.341913 393.980383 
L 464.683496 392.538947 
L 466.02508 391.980972 
L 467.366664 392.631943 
L 468.708248 391.376499 
L 470.049831 391.190507 
L 471.391415 392.864433 
L 472.732999 391.097511 
L 474.074583 390.958018 
L 475.416166 391.469495 
L 476.75775 393.422408 
L 478.099334 391.655486 
L 479.440918 392.492449 
L 480.782501 394.538358 
L 482.124085 392.399453 
L 483.465669 392.213462 
L 484.807253 391.004515 
L 486.148836 394.026881 
L 487.49042 390.865022 
L 488.832004 391.376499 
L 490.173588 391.283503 
L 491.515171 390.725528 
L 492.856755 393.282914 
L 494.198339 391.469495 
L 495.539923 391.79498 
L 496.881506 394.631354 
L 498.22309 392.492449 
L 499.564674 392.306457 
L 500.906258 389.749071 
L 502.247841 390.121055 
L 503.589425 390.67903 
L 504.931009 391.515993 
L 506.272593 387.842657 
L 507.614176 392.724939 
L 508.95576 393.096922 
L 512.980511 395.747304 
L 514.322095 392.91093 
L 515.663679 394.770848 
L 517.005263 394.538358 
L 518.346846 393.282914 
L 519.68843 394.305868 
L 521.030014 391.562491 
L 522.371598 393.282914 
L 523.713181 393.37591 
L 525.054765 393.701395 
L 526.396349 392.492449 
L 527.737933 392.120466 
L 529.079516 391.887976 
L 530.4211 392.538947 
L 531.762684 393.887387 
L 533.104268 392.91093 
L 534.445851 392.120466 
L 535.787435 395.421818 
L 537.129019 392.631943 
L 538.470603 393.980383 
L 539.812186 393.422408 
L 541.15377 393.14342 
L 543.836937 393.515404 
L 545.178521 391.051013 
L 546.520105 393.37591 
L 550.544856 392.25996 
L 551.88644 394.026881 
L 553.228024 393.422408 
L 554.569607 392.445951 
L 555.911191 391.841478 
L 557.252775 390.958018 
L 558.594359 393.282914 
L 559.935942 394.212872 
L 561.277526 392.724939 
L 562.61911 393.37591 
L 563.960694 394.631354 
L 565.302277 391.097511 
L 566.643861 391.608989 
L 567.985445 392.352955 
L 569.327029 393.236416 
L 570.668612 393.329412 
L 572.010196 393.189918 
L 573.35178 393.37591 
L 574.693364 391.841478 
L 574.693364 391.841478 
" style="fill:none;stroke:#ff7f0e;stroke-linecap:square;stroke-width:1.5;"/>
   </g>
   <g id="patch_3">
    <path d="M 83.07 444.7152 
L 83.07 59.9616 
" style="fill:none;stroke:#000000;stroke-linecap:square;stroke-linejoin:miter;stroke-width:0.8;"/>
   </g>
   <g id="patch_4">
    <path d="M 598.104 444.7152 
L 598.104 59.9616 
" style="fill:none;stroke:#000000;stroke-linecap:square;stroke-linejoin:miter;stroke-width:0.8;"/>
   </g>
   <g id="patch_5">
    <path d="M 83.07 444.7152 
L 598.104 444.7152 
" style="fill:none;stroke:#000000;stroke-linecap:square;stroke-linejoin:miter;stroke-width:0.8;"/>
   </g>
   <g id="patch_6">
    <path d="M 83.07 59.9616 
L 598.104 59.9616 
" style="fill:none;stroke:#000000;stroke-linecap:square;stroke-linejoin:miter;stroke-width:0.8;"/>
   </g>
   <g id="text_19">
    <!-- Model ALL-CNN-C -->
    <defs>
     <path d="M 9.8125 72.90625 
L 24.515625 72.90625 
L 43.109375 23.296875 
L 61.8125 72.90625 
L 76.515625 72.90625 
L 76.515625 0 
L 66.890625 0 
L 66.890625 64.015625 
L 48.09375 14.015625 
L 38.1875 14.015625 
L 19.390625 64.015625 
L 19.390625 0 
L 9.8125 0 
z
" id="DejaVuSans-4d"/>
     <path d="M 45.40625 46.390625 
L 45.40625 75.984375 
L 54.390625 75.984375 
L 54.390625 0 
L 45.40625 0 
L 45.40625 8.203125 
Q 42.578125 3.328125 38.25 0.953125 
Q 33.9375 -1.421875 27.875 -1.421875 
Q 17.96875 -1.421875 11.734375 6.484375 
Q 5.515625 14.40625 5.515625 27.296875 
Q 5.515625 40.1875 11.734375 48.09375 
Q 17.96875 56 27.875 56 
Q 33.9375 56 38.25 53.625 
Q 42.578125 51.265625 45.40625 46.390625 
z
M 14.796875 27.296875 
Q 14.796875 17.390625 18.875 11.75 
Q 22.953125 6.109375 30.078125 6.109375 
Q 37.203125 6.109375 41.296875 11.75 
Q 45.40625 17.390625 45.40625 27.296875 
Q 45.40625 37.203125 41.296875 42.84375 
Q 37.203125 48.484375 30.078125 48.484375 
Q 22.953125 48.484375 18.875 42.84375 
Q 14.796875 37.203125 14.796875 27.296875 
z
" id="DejaVuSans-64"/>
     <path d="M 9.421875 75.984375 
L 18.40625 75.984375 
L 18.40625 0 
L 9.421875 0 
z
" id="DejaVuSans-6c"/>
     <path d="M 34.1875 63.1875 
L 20.796875 26.90625 
L 47.609375 26.90625 
z
M 28.609375 72.90625 
L 39.796875 72.90625 
L 67.578125 0 
L 57.328125 0 
L 50.6875 18.703125 
L 17.828125 18.703125 
L 11.1875 0 
L 0.78125 0 
z
" id="DejaVuSans-41"/>
     <path d="M 9.8125 72.90625 
L 19.671875 72.90625 
L 19.671875 8.296875 
L 55.171875 8.296875 
L 55.171875 0 
L 9.8125 0 
z
" id="DejaVuSans-4c"/>
     <path d="M 4.890625 31.390625 
L 31.203125 31.390625 
L 31.203125 23.390625 
L 4.890625 23.390625 
z
" id="DejaVuSans-2d"/>
     <path d="M 64.40625 67.28125 
L 64.40625 56.890625 
Q 59.421875 61.53125 53.78125 63.8125 
Q 48.140625 66.109375 41.796875 66.109375 
Q 29.296875 66.109375 22.65625 58.46875 
Q 16.015625 50.828125 16.015625 36.375 
Q 16.015625 21.96875 22.65625 14.328125 
Q 29.296875 6.6875 41.796875 6.6875 
Q 48.140625 6.6875 53.78125 8.984375 
Q 59.421875 11.28125 64.40625 15.921875 
L 64.40625 5.609375 
Q 59.234375 2.09375 53.4375 0.328125 
Q 47.65625 -1.421875 41.21875 -1.421875 
Q 24.65625 -1.421875 15.125 8.703125 
Q 5.609375 18.84375 5.609375 36.375 
Q 5.609375 53.953125 15.125 64.078125 
Q 24.65625 74.21875 41.21875 74.21875 
Q 47.75 74.21875 53.53125 72.484375 
Q 59.328125 70.75 64.40625 67.28125 
z
" id="DejaVuSans-43"/>
     <path d="M 9.8125 72.90625 
L 23.09375 72.90625 
L 55.421875 11.921875 
L 55.421875 72.90625 
L 64.984375 72.90625 
L 64.984375 0 
L 51.703125 0 
L 19.390625 60.984375 
L 19.390625 0 
L 9.8125 0 
z
" id="DejaVuSans-4e"/>
    </defs>
    <g transform="translate(288.18825 53.9616)scale(0.12 -0.12)">
     <use xlink:href="#DejaVuSans-4d"/>
     <use x="86.279297" xlink:href="#DejaVuSans-6f"/>
     <use x="147.460938" xlink:href="#DejaVuSans-64"/>
     <use x="210.9375" xlink:href="#DejaVuSans-65"/>
     <use x="272.460938" xlink:href="#DejaVuSans-6c"/>
     <use x="300.244141" xlink:href="#DejaVuSans-20"/>
     <use x="332.03125" xlink:href="#DejaVuSans-41"/>
     <use x="400.439453" xlink:href="#DejaVuSans-4c"/>
     <use x="456.152344" xlink:href="#DejaVuSans-4c"/>
     <use x="511.849609" xlink:href="#DejaVuSans-2d"/>
     <use x="547.933594" xlink:href="#DejaVuSans-43"/>
     <use x="617.757812" xlink:href="#DejaVuSans-4e"/>
     <use x="692.5625" xlink:href="#DejaVuSans-4e"/>
     <use x="767.367188" xlink:href="#DejaVuSans-2d"/>
     <use x="803.451172" xlink:href="#DejaVuSans-43"/>
    </g>
   </g>
   <g id="legend_1">
    <g id="patch_7">
     <path d="M 508.050875 97.31785 
L 591.104 97.31785 
Q 593.104 97.31785 593.104 95.31785 
L 593.104 66.9616 
Q 593.104 64.9616 591.104 64.9616 
L 508.050875 64.9616 
Q 506.050875 64.9616 506.050875 66.9616 
L 506.050875 95.31785 
Q 506.050875 97.31785 508.050875 97.31785 
z
" style="fill:#ffffff;opacity:0.8;stroke:#cccccc;stroke-linejoin:miter;"/>
    </g>
    <g id="line2d_35">
     <path d="M 510.050875 73.060037 
L 530.050875 73.060037 
" style="fill:none;stroke:#1f77b4;stroke-linecap:square;stroke-width:1.5;"/>
    </g>
    <g id="line2d_36"/>
    <g id="text_20">
     <!-- train error -->
     <defs>
      <path d="M 18.3125 70.21875 
L 18.3125 54.6875 
L 36.8125 54.6875 
L 36.8125 47.703125 
L 18.3125 47.703125 
L 18.3125 18.015625 
Q 18.3125 11.328125 20.140625 9.421875 
Q 21.96875 7.515625 27.59375 7.515625 
L 36.8125 7.515625 
L 36.8125 0 
L 27.59375 0 
Q 17.1875 0 13.234375 3.875 
Q 9.28125 7.765625 9.28125 18.015625 
L 9.28125 47.703125 
L 2.6875 47.703125 
L 2.6875 54.6875 
L 9.28125 54.6875 
L 9.28125 70.21875 
z
" id="DejaVuSans-74"/>
      <path d="M 34.28125 27.484375 
Q 23.390625 27.484375 19.1875 25 
Q 14.984375 22.515625 14.984375 16.5 
Q 14.984375 11.71875 18.140625 8.90625 
Q 21.296875 6.109375 26.703125 6.109375 
Q 34.1875 6.109375 38.703125 11.40625 
Q 43.21875 16.703125 43.21875 25.484375 
L 43.21875 27.484375 
z
M 52.203125 31.203125 
L 52.203125 0 
L 43.21875 0 
L 43.21875 8.296875 
Q 40.140625 3.328125 35.546875 0.953125 
Q 30.953125 -1.421875 24.3125 -1.421875 
Q 15.921875 -1.421875 10.953125 3.296875 
Q 6 8.015625 6 15.921875 
Q 6 25.140625 12.171875 29.828125 
Q 18.359375 34.515625 30.609375 34.515625 
L 43.21875 34.515625 
L 43.21875 35.40625 
Q 43.21875 41.609375 39.140625 45 
Q 35.0625 48.390625 27.6875 48.390625 
Q 23 48.390625 18.546875 47.265625 
Q 14.109375 46.140625 10.015625 43.890625 
L 10.015625 52.203125 
Q 14.9375 54.109375 19.578125 55.046875 
Q 24.21875 56 28.609375 56 
Q 40.484375 56 46.34375 49.84375 
Q 52.203125 43.703125 52.203125 31.203125 
z
" id="DejaVuSans-61"/>
      <path d="M 9.421875 54.6875 
L 18.40625 54.6875 
L 18.40625 0 
L 9.421875 0 
z
M 9.421875 75.984375 
L 18.40625 75.984375 
L 18.40625 64.59375 
L 9.421875 64.59375 
z
" id="DejaVuSans-69"/>
      <path d="M 54.890625 33.015625 
L 54.890625 0 
L 45.90625 0 
L 45.90625 32.71875 
Q 45.90625 40.484375 42.875 44.328125 
Q 39.84375 48.1875 33.796875 48.1875 
Q 26.515625 48.1875 22.3125 43.546875 
Q 18.109375 38.921875 18.109375 30.90625 
L 18.109375 0 
L 9.078125 0 
L 9.078125 54.6875 
L 18.109375 54.6875 
L 18.109375 46.1875 
Q 21.34375 51.125 25.703125 53.5625 
Q 30.078125 56 35.796875 56 
Q 45.21875 56 50.046875 50.171875 
Q 54.890625 44.34375 54.890625 33.015625 
z
" id="DejaVuSans-6e"/>
     </defs>
     <g transform="translate(538.050875 76.560037)scale(0.1 -0.1)">
      <use xlink:href="#DejaVuSans-74"/>
      <use x="39.208984" xlink:href="#DejaVuSans-72"/>
      <use x="80.322266" xlink:href="#DejaVuSans-61"/>
      <use x="141.601562" xlink:href="#DejaVuSans-69"/>
      <use x="169.384766" xlink:href="#DejaVuSans-6e"/>
      <use x="232.763672" xlink:href="#DejaVuSans-20"/>
      <use x="264.550781" xlink:href="#DejaVuSans-65"/>
      <use x="326.074219" xlink:href="#DejaVuSans-72"/>
      <use x="367.171875" xlink:href="#DejaVuSans-72"/>
      <use x="408.253906" xlink:href="#DejaVuSans-6f"/>
      <use x="469.435547" xlink:href="#DejaVuSans-72"/>
     </g>
    </g>
    <g id="line2d_37">
     <path d="M 510.050875 87.738162 
L 530.050875 87.738162 
" style="fill:none;stroke:#ff7f0e;stroke-linecap:square;stroke-width:1.5;"/>
    </g>
    <g id="line2d_38"/>
    <g id="text_21">
     <!-- test error -->
     <defs>
      <path d="M 44.28125 53.078125 
L 44.28125 44.578125 
Q 40.484375 46.53125 36.375 47.5 
Q 32.28125 48.484375 27.875 48.484375 
Q 21.1875 48.484375 17.84375 46.4375 
Q 14.5 44.390625 14.5 40.28125 
Q 14.5 37.15625 16.890625 35.375 
Q 19.28125 33.59375 26.515625 31.984375 
L 29.59375 31.296875 
Q 39.15625 29.25 43.1875 25.515625 
Q 47.21875 21.78125 47.21875 15.09375 
Q 47.21875 7.46875 41.1875 3.015625 
Q 35.15625 -1.421875 24.609375 -1.421875 
Q 20.21875 -1.421875 15.453125 -0.5625 
Q 10.6875 0.296875 5.421875 2 
L 5.421875 11.28125 
Q 10.40625 8.6875 15.234375 7.390625 
Q 20.0625 6.109375 24.8125 6.109375 
Q 31.15625 6.109375 34.5625 8.28125 
Q 37.984375 10.453125 37.984375 14.40625 
Q 37.984375 18.0625 35.515625 20.015625 
Q 33.0625 21.96875 24.703125 23.78125 
L 21.578125 24.515625 
Q 13.234375 26.265625 9.515625 29.90625 
Q 5.8125 33.546875 5.8125 39.890625 
Q 5.8125 47.609375 11.28125 51.796875 
Q 16.75 56 26.8125 56 
Q 31.78125 56 36.171875 55.265625 
Q 40.578125 54.546875 44.28125 53.078125 
z
" id="DejaVuSans-73"/>
     </defs>
     <g transform="translate(538.050875 91.238162)scale(0.1 -0.1)">
      <use xlink:href="#DejaVuSans-74"/>
      <use x="39.208984" xlink:href="#DejaVuSans-65"/>
      <use x="100.732422" xlink:href="#DejaVuSans-73"/>
      <use x="152.832031" xlink:href="#DejaVuSans-74"/>
      <use x="192.041016" xlink:href="#DejaVuSans-20"/>
      <use x="223.828125" xlink:href="#DejaVuSans-65"/>
      <use x="285.351562" xlink:href="#DejaVuSans-72"/>
      <use x="326.449219" xlink:href="#DejaVuSans-72"/>
      <use x="367.53125" xlink:href="#DejaVuSans-6f"/>
      <use x="428.712891" xlink:href="#DejaVuSans-72"/>
     </g>
    </g>
   </g>
  </g>
 </g>
 <defs>
  <clipPath id="p76b2cd44a0">
   <rect height="384.7536" width="515.034" x="83.07" y="59.9616"/>
  </clipPath>
 </defs>
</svg>
