<?xml version="1.0" encoding="utf-8" standalone="no"?>
<!DOCTYPE svg PUBLIC "-//W3C//DTD SVG 1.1//EN"
  "http://www.w3.org/Graphics/SVG/1.1/DTD/svg11.dtd">
<!-- Created with matplotlib (http://matplotlib.org/) -->
<svg height="487pt" version="1.1" viewBox="0 0 709 487" width="709pt" xmlns="http://www.w3.org/2000/svg" xmlns:xlink="http://www.w3.org/1999/xlink">
 <defs>
  <style type="text/css">
*{stroke-linecap:butt;stroke-linejoin:round;}
  </style>
 </defs>
 <g id="figure_1">
  <g id="patch_1">
   <path d="M 0 487.44 
L 709.2 487.44 
L 709.2 0 
L 0 0 
z
" style="fill:#ffffff;"/>
  </g>
  <g id="axes_1">
   <g id="patch_2">
    <path d="M 88.65 433.8216 
L 638.28 433.8216 
L 638.28 58.4928 
L 88.65 58.4928 
z
" style="fill:#ffffff;"/>
   </g>
   <g id="matplotlib.axis_1">
    <g id="xtick_1">
     <g id="line2d_1">
      <path clip-path="url(#p01708fd2ae)" d="M 113.633182 433.8216 
L 113.633182 58.4928 
" style="fill:none;stroke:#b0b0b0;stroke-linecap:square;stroke-width:0.8;"/>
     </g>
     <g id="line2d_2">
      <defs>
       <path d="M 0 0 
L 0 3.5 
" id="m3756b85f2d" style="stroke:#000000;stroke-width:0.8;"/>
      </defs>
      <g>
       <use style="stroke:#000000;stroke-width:0.8;" x="113.633182" xlink:href="#m3756b85f2d" y="433.8216"/>
      </g>
     </g>
     <g id="text_1">
      <!-- 0 -->
      <defs>
       <path d="M 31.78125 66.40625 
Q 24.171875 66.40625 20.328125 58.90625 
Q 16.5 51.421875 16.5 36.375 
Q 16.5 21.390625 20.328125 13.890625 
Q 24.171875 6.390625 31.78125 6.390625 
Q 39.453125 6.390625 43.28125 13.890625 
Q 47.125 21.390625 47.125 36.375 
Q 47.125 51.421875 43.28125 58.90625 
Q 39.453125 66.40625 31.78125 66.40625 
z
M 31.78125 74.21875 
Q 44.046875 74.21875 50.515625 64.515625 
Q 56.984375 54.828125 56.984375 36.375 
Q 56.984375 17.96875 50.515625 8.265625 
Q 44.046875 -1.421875 31.78125 -1.421875 
Q 19.53125 -1.421875 13.0625 8.265625 
Q 6.59375 17.96875 6.59375 36.375 
Q 6.59375 54.828125 13.0625 64.515625 
Q 19.53125 74.21875 31.78125 74.21875 
z
" id="DejaVuSans-30"/>
      </defs>
      <g transform="translate(110.451932 448.420037)scale(0.1 -0.1)">
       <use xlink:href="#DejaVuSans-30"/>
      </g>
     </g>
    </g>
    <g id="xtick_2">
     <g id="line2d_3">
      <path clip-path="url(#p01708fd2ae)" d="M 185.21823 433.8216 
L 185.21823 58.4928 
" style="fill:none;stroke:#b0b0b0;stroke-linecap:square;stroke-width:0.8;"/>
     </g>
     <g id="line2d_4">
      <g>
       <use style="stroke:#000000;stroke-width:0.8;" x="185.21823" xlink:href="#m3756b85f2d" y="433.8216"/>
      </g>
     </g>
     <g id="text_2">
      <!-- 50 -->
      <defs>
       <path d="M 10.796875 72.90625 
L 49.515625 72.90625 
L 49.515625 64.59375 
L 19.828125 64.59375 
L 19.828125 46.734375 
Q 21.96875 47.46875 24.109375 47.828125 
Q 26.265625 48.1875 28.421875 48.1875 
Q 40.625 48.1875 47.75 41.5 
Q 54.890625 34.8125 54.890625 23.390625 
Q 54.890625 11.625 47.5625 5.09375 
Q 40.234375 -1.421875 26.90625 -1.421875 
Q 22.3125 -1.421875 17.546875 -0.640625 
Q 12.796875 0.140625 7.71875 1.703125 
L 7.71875 11.625 
Q 12.109375 9.234375 16.796875 8.0625 
Q 21.484375 6.890625 26.703125 6.890625 
Q 35.15625 6.890625 40.078125 11.328125 
Q 45.015625 15.765625 45.015625 23.390625 
Q 45.015625 31 40.078125 35.4375 
Q 35.15625 39.890625 26.703125 39.890625 
Q 22.75 39.890625 18.8125 39.015625 
Q 14.890625 38.140625 10.796875 36.28125 
z
" id="DejaVuSans-35"/>
      </defs>
      <g transform="translate(178.85573 448.420037)scale(0.1 -0.1)">
       <use xlink:href="#DejaVuSans-35"/>
       <use x="63.623047" xlink:href="#DejaVuSans-30"/>
      </g>
     </g>
    </g>
    <g id="xtick_3">
     <g id="line2d_5">
      <path clip-path="url(#p01708fd2ae)" d="M 256.803278 433.8216 
L 256.803278 58.4928 
" style="fill:none;stroke:#b0b0b0;stroke-linecap:square;stroke-width:0.8;"/>
     </g>
     <g id="line2d_6">
      <g>
       <use style="stroke:#000000;stroke-width:0.8;" x="256.803278" xlink:href="#m3756b85f2d" y="433.8216"/>
      </g>
     </g>
     <g id="text_3">
      <!-- 100 -->
      <defs>
       <path d="M 12.40625 8.296875 
L 28.515625 8.296875 
L 28.515625 63.921875 
L 10.984375 60.40625 
L 10.984375 69.390625 
L 28.421875 72.90625 
L 38.28125 72.90625 
L 38.28125 8.296875 
L 54.390625 8.296875 
L 54.390625 0 
L 12.40625 0 
z
" id="DejaVuSans-31"/>
      </defs>
      <g transform="translate(247.259528 448.420037)scale(0.1 -0.1)">
       <use xlink:href="#DejaVuSans-31"/>
       <use x="63.623047" xlink:href="#DejaVuSans-30"/>
       <use x="127.246094" xlink:href="#DejaVuSans-30"/>
      </g>
     </g>
    </g>
    <g id="xtick_4">
     <g id="line2d_7">
      <path clip-path="url(#p01708fd2ae)" d="M 328.388326 433.8216 
L 328.388326 58.4928 
" style="fill:none;stroke:#b0b0b0;stroke-linecap:square;stroke-width:0.8;"/>
     </g>
     <g id="line2d_8">
      <g>
       <use style="stroke:#000000;stroke-width:0.8;" x="328.388326" xlink:href="#m3756b85f2d" y="433.8216"/>
      </g>
     </g>
     <g id="text_4">
      <!-- 150 -->
      <g transform="translate(318.844576 448.420037)scale(0.1 -0.1)">
       <use xlink:href="#DejaVuSans-31"/>
       <use x="63.623047" xlink:href="#DejaVuSans-35"/>
       <use x="127.246094" xlink:href="#DejaVuSans-30"/>
      </g>
     </g>
    </g>
    <g id="xtick_5">
     <g id="line2d_9">
      <path clip-path="url(#p01708fd2ae)" d="M 399.973375 433.8216 
L 399.973375 58.4928 
" style="fill:none;stroke:#b0b0b0;stroke-linecap:square;stroke-width:0.8;"/>
     </g>
     <g id="line2d_10">
      <g>
       <use style="stroke:#000000;stroke-width:0.8;" x="399.973375" xlink:href="#m3756b85f2d" y="433.8216"/>
      </g>
     </g>
     <g id="text_5">
      <!-- 200 -->
      <defs>
       <path d="M 19.1875 8.296875 
L 53.609375 8.296875 
L 53.609375 0 
L 7.328125 0 
L 7.328125 8.296875 
Q 12.9375 14.109375 22.625 23.890625 
Q 32.328125 33.6875 34.8125 36.53125 
Q 39.546875 41.84375 41.421875 45.53125 
Q 43.3125 49.21875 43.3125 52.78125 
Q 43.3125 58.59375 39.234375 62.25 
Q 35.15625 65.921875 28.609375 65.921875 
Q 23.96875 65.921875 18.8125 64.3125 
Q 13.671875 62.703125 7.8125 59.421875 
L 7.8125 69.390625 
Q 13.765625 71.78125 18.9375 73 
Q 24.125 74.21875 28.421875 74.21875 
Q 39.75 74.21875 46.484375 68.546875 
Q 53.21875 62.890625 53.21875 53.421875 
Q 53.21875 48.921875 51.53125 44.890625 
Q 49.859375 40.875 45.40625 35.40625 
Q 44.1875 33.984375 37.640625 27.21875 
Q 31.109375 20.453125 19.1875 8.296875 
z
" id="DejaVuSans-32"/>
      </defs>
      <g transform="translate(390.429625 448.420037)scale(0.1 -0.1)">
       <use xlink:href="#DejaVuSans-32"/>
       <use x="63.623047" xlink:href="#DejaVuSans-30"/>
       <use x="127.246094" xlink:href="#DejaVuSans-30"/>
      </g>
     </g>
    </g>
    <g id="xtick_6">
     <g id="line2d_11">
      <path clip-path="url(#p01708fd2ae)" d="M 471.558423 433.8216 
L 471.558423 58.4928 
" style="fill:none;stroke:#b0b0b0;stroke-linecap:square;stroke-width:0.8;"/>
     </g>
     <g id="line2d_12">
      <g>
       <use style="stroke:#000000;stroke-width:0.8;" x="471.558423" xlink:href="#m3756b85f2d" y="433.8216"/>
      </g>
     </g>
     <g id="text_6">
      <!-- 250 -->
      <g transform="translate(462.014673 448.420037)scale(0.1 -0.1)">
       <use xlink:href="#DejaVuSans-32"/>
       <use x="63.623047" xlink:href="#DejaVuSans-35"/>
       <use x="127.246094" xlink:href="#DejaVuSans-30"/>
      </g>
     </g>
    </g>
    <g id="xtick_7">
     <g id="line2d_13">
      <path clip-path="url(#p01708fd2ae)" d="M 543.143471 433.8216 
L 543.143471 58.4928 
" style="fill:none;stroke:#b0b0b0;stroke-linecap:square;stroke-width:0.8;"/>
     </g>
     <g id="line2d_14">
      <g>
       <use style="stroke:#000000;stroke-width:0.8;" x="543.143471" xlink:href="#m3756b85f2d" y="433.8216"/>
      </g>
     </g>
     <g id="text_7">
      <!-- 300 -->
      <defs>
       <path d="M 40.578125 39.3125 
Q 47.65625 37.796875 51.625 33 
Q 55.609375 28.21875 55.609375 21.1875 
Q 55.609375 10.40625 48.1875 4.484375 
Q 40.765625 -1.421875 27.09375 -1.421875 
Q 22.515625 -1.421875 17.65625 -0.515625 
Q 12.796875 0.390625 7.625 2.203125 
L 7.625 11.71875 
Q 11.71875 9.328125 16.59375 8.109375 
Q 21.484375 6.890625 26.8125 6.890625 
Q 36.078125 6.890625 40.9375 10.546875 
Q 45.796875 14.203125 45.796875 21.1875 
Q 45.796875 27.640625 41.28125 31.265625 
Q 36.765625 34.90625 28.71875 34.90625 
L 20.21875 34.90625 
L 20.21875 43.015625 
L 29.109375 43.015625 
Q 36.375 43.015625 40.234375 45.921875 
Q 44.09375 48.828125 44.09375 54.296875 
Q 44.09375 59.90625 40.109375 62.90625 
Q 36.140625 65.921875 28.71875 65.921875 
Q 24.65625 65.921875 20.015625 65.03125 
Q 15.375 64.15625 9.8125 62.3125 
L 9.8125 71.09375 
Q 15.4375 72.65625 20.34375 73.4375 
Q 25.25 74.21875 29.59375 74.21875 
Q 40.828125 74.21875 47.359375 69.109375 
Q 53.90625 64.015625 53.90625 55.328125 
Q 53.90625 49.265625 50.4375 45.09375 
Q 46.96875 40.921875 40.578125 39.3125 
z
" id="DejaVuSans-33"/>
      </defs>
      <g transform="translate(533.599721 448.420037)scale(0.1 -0.1)">
       <use xlink:href="#DejaVuSans-33"/>
       <use x="63.623047" xlink:href="#DejaVuSans-30"/>
       <use x="127.246094" xlink:href="#DejaVuSans-30"/>
      </g>
     </g>
    </g>
    <g id="xtick_8">
     <g id="line2d_15">
      <path clip-path="url(#p01708fd2ae)" d="M 614.728519 433.8216 
L 614.728519 58.4928 
" style="fill:none;stroke:#b0b0b0;stroke-linecap:square;stroke-width:0.8;"/>
     </g>
     <g id="line2d_16">
      <g>
       <use style="stroke:#000000;stroke-width:0.8;" x="614.728519" xlink:href="#m3756b85f2d" y="433.8216"/>
      </g>
     </g>
     <g id="text_8">
      <!-- 350 -->
      <g transform="translate(605.184769 448.420037)scale(0.1 -0.1)">
       <use xlink:href="#DejaVuSans-33"/>
       <use x="63.623047" xlink:href="#DejaVuSans-35"/>
       <use x="127.246094" xlink:href="#DejaVuSans-30"/>
      </g>
     </g>
    </g>
    <g id="text_9">
     <!-- epoch -->
     <defs>
      <path d="M 56.203125 29.59375 
L 56.203125 25.203125 
L 14.890625 25.203125 
Q 15.484375 15.921875 20.484375 11.0625 
Q 25.484375 6.203125 34.421875 6.203125 
Q 39.59375 6.203125 44.453125 7.46875 
Q 49.3125 8.734375 54.109375 11.28125 
L 54.109375 2.78125 
Q 49.265625 0.734375 44.1875 -0.34375 
Q 39.109375 -1.421875 33.890625 -1.421875 
Q 20.796875 -1.421875 13.15625 6.1875 
Q 5.515625 13.8125 5.515625 26.8125 
Q 5.515625 40.234375 12.765625 48.109375 
Q 20.015625 56 32.328125 56 
Q 43.359375 56 49.78125 48.890625 
Q 56.203125 41.796875 56.203125 29.59375 
z
M 47.21875 32.234375 
Q 47.125 39.59375 43.09375 43.984375 
Q 39.0625 48.390625 32.421875 48.390625 
Q 24.90625 48.390625 20.390625 44.140625 
Q 15.875 39.890625 15.1875 32.171875 
z
" id="DejaVuSans-65"/>
      <path d="M 18.109375 8.203125 
L 18.109375 -20.796875 
L 9.078125 -20.796875 
L 9.078125 54.6875 
L 18.109375 54.6875 
L 18.109375 46.390625 
Q 20.953125 51.265625 25.265625 53.625 
Q 29.59375 56 35.59375 56 
Q 45.5625 56 51.78125 48.09375 
Q 58.015625 40.1875 58.015625 27.296875 
Q 58.015625 14.40625 51.78125 6.484375 
Q 45.5625 -1.421875 35.59375 -1.421875 
Q 29.59375 -1.421875 25.265625 0.953125 
Q 20.953125 3.328125 18.109375 8.203125 
z
M 48.6875 27.296875 
Q 48.6875 37.203125 44.609375 42.84375 
Q 40.53125 48.484375 33.40625 48.484375 
Q 26.265625 48.484375 22.1875 42.84375 
Q 18.109375 37.203125 18.109375 27.296875 
Q 18.109375 17.390625 22.1875 11.75 
Q 26.265625 6.109375 33.40625 6.109375 
Q 40.53125 6.109375 44.609375 11.75 
Q 48.6875 17.390625 48.6875 27.296875 
z
" id="DejaVuSans-70"/>
      <path d="M 30.609375 48.390625 
Q 23.390625 48.390625 19.1875 42.75 
Q 14.984375 37.109375 14.984375 27.296875 
Q 14.984375 17.484375 19.15625 11.84375 
Q 23.34375 6.203125 30.609375 6.203125 
Q 37.796875 6.203125 41.984375 11.859375 
Q 46.1875 17.53125 46.1875 27.296875 
Q 46.1875 37.015625 41.984375 42.703125 
Q 37.796875 48.390625 30.609375 48.390625 
z
M 30.609375 56 
Q 42.328125 56 49.015625 48.375 
Q 55.71875 40.765625 55.71875 27.296875 
Q 55.71875 13.875 49.015625 6.21875 
Q 42.328125 -1.421875 30.609375 -1.421875 
Q 18.84375 -1.421875 12.171875 6.21875 
Q 5.515625 13.875 5.515625 27.296875 
Q 5.515625 40.765625 12.171875 48.375 
Q 18.84375 56 30.609375 56 
z
" id="DejaVuSans-6f"/>
      <path d="M 48.78125 52.59375 
L 48.78125 44.1875 
Q 44.96875 46.296875 41.140625 47.34375 
Q 37.3125 48.390625 33.40625 48.390625 
Q 24.65625 48.390625 19.8125 42.84375 
Q 14.984375 37.3125 14.984375 27.296875 
Q 14.984375 17.28125 19.8125 11.734375 
Q 24.65625 6.203125 33.40625 6.203125 
Q 37.3125 6.203125 41.140625 7.25 
Q 44.96875 8.296875 48.78125 10.40625 
L 48.78125 2.09375 
Q 45.015625 0.34375 40.984375 -0.53125 
Q 36.96875 -1.421875 32.421875 -1.421875 
Q 20.0625 -1.421875 12.78125 6.34375 
Q 5.515625 14.109375 5.515625 27.296875 
Q 5.515625 40.671875 12.859375 48.328125 
Q 20.21875 56 33.015625 56 
Q 37.15625 56 41.109375 55.140625 
Q 45.0625 54.296875 48.78125 52.59375 
z
" id="DejaVuSans-63"/>
      <path d="M 54.890625 33.015625 
L 54.890625 0 
L 45.90625 0 
L 45.90625 32.71875 
Q 45.90625 40.484375 42.875 44.328125 
Q 39.84375 48.1875 33.796875 48.1875 
Q 26.515625 48.1875 22.3125 43.546875 
Q 18.109375 38.921875 18.109375 30.90625 
L 18.109375 0 
L 9.078125 0 
L 9.078125 75.984375 
L 18.109375 75.984375 
L 18.109375 46.1875 
Q 21.34375 51.125 25.703125 53.5625 
Q 30.078125 56 35.796875 56 
Q 45.21875 56 50.046875 50.171875 
Q 54.890625 44.34375 54.890625 33.015625 
z
" id="DejaVuSans-68"/>
     </defs>
     <g transform="translate(348.236875 462.098162)scale(0.1 -0.1)">
      <use xlink:href="#DejaVuSans-65"/>
      <use x="61.523438" xlink:href="#DejaVuSans-70"/>
      <use x="125" xlink:href="#DejaVuSans-6f"/>
      <use x="186.181641" xlink:href="#DejaVuSans-63"/>
      <use x="241.162109" xlink:href="#DejaVuSans-68"/>
     </g>
    </g>
   </g>
   <g id="matplotlib.axis_2">
    <g id="ytick_1">
     <g id="line2d_17">
      <path clip-path="url(#p01708fd2ae)" d="M 88.65 431.759446 
L 638.28 431.759446 
" style="fill:none;stroke:#b0b0b0;stroke-linecap:square;stroke-width:0.8;"/>
     </g>
     <g id="line2d_18">
      <defs>
       <path d="M 0 0 
L -3.5 0 
" id="m42dbeed408" style="stroke:#000000;stroke-width:0.8;"/>
      </defs>
      <g>
       <use style="stroke:#000000;stroke-width:0.8;" x="88.65" xlink:href="#m42dbeed408" y="431.759446"/>
      </g>
     </g>
     <g id="text_10">
      <!-- 0 -->
      <g transform="translate(75.2875 435.558664)scale(0.1 -0.1)">
       <use xlink:href="#DejaVuSans-30"/>
      </g>
     </g>
    </g>
    <g id="ytick_2">
     <g id="line2d_19">
      <path clip-path="url(#p01708fd2ae)" d="M 88.65 389.981603 
L 638.28 389.981603 
" style="fill:none;stroke:#b0b0b0;stroke-linecap:square;stroke-width:0.8;"/>
     </g>
     <g id="line2d_20">
      <g>
       <use style="stroke:#000000;stroke-width:0.8;" x="88.65" xlink:href="#m42dbeed408" y="389.981603"/>
      </g>
     </g>
     <g id="text_11">
      <!-- 10 -->
      <g transform="translate(68.925 393.780821)scale(0.1 -0.1)">
       <use xlink:href="#DejaVuSans-31"/>
       <use x="63.623047" xlink:href="#DejaVuSans-30"/>
      </g>
     </g>
    </g>
    <g id="ytick_3">
     <g id="line2d_21">
      <path clip-path="url(#p01708fd2ae)" d="M 88.65 348.20376 
L 638.28 348.20376 
" style="fill:none;stroke:#b0b0b0;stroke-linecap:square;stroke-width:0.8;"/>
     </g>
     <g id="line2d_22">
      <g>
       <use style="stroke:#000000;stroke-width:0.8;" x="88.65" xlink:href="#m42dbeed408" y="348.20376"/>
      </g>
     </g>
     <g id="text_12">
      <!-- 20 -->
      <g transform="translate(68.925 352.002978)scale(0.1 -0.1)">
       <use xlink:href="#DejaVuSans-32"/>
       <use x="63.623047" xlink:href="#DejaVuSans-30"/>
      </g>
     </g>
    </g>
    <g id="ytick_4">
     <g id="line2d_23">
      <path clip-path="url(#p01708fd2ae)" d="M 88.65 306.425916 
L 638.28 306.425916 
" style="fill:none;stroke:#b0b0b0;stroke-linecap:square;stroke-width:0.8;"/>
     </g>
     <g id="line2d_24">
      <g>
       <use style="stroke:#000000;stroke-width:0.8;" x="88.65" xlink:href="#m42dbeed408" y="306.425916"/>
      </g>
     </g>
     <g id="text_13">
      <!-- 30 -->
      <g transform="translate(68.925 310.225135)scale(0.1 -0.1)">
       <use xlink:href="#DejaVuSans-33"/>
       <use x="63.623047" xlink:href="#DejaVuSans-30"/>
      </g>
     </g>
    </g>
    <g id="ytick_5">
     <g id="line2d_25">
      <path clip-path="url(#p01708fd2ae)" d="M 88.65 264.648073 
L 638.28 264.648073 
" style="fill:none;stroke:#b0b0b0;stroke-linecap:square;stroke-width:0.8;"/>
     </g>
     <g id="line2d_26">
      <g>
       <use style="stroke:#000000;stroke-width:0.8;" x="88.65" xlink:href="#m42dbeed408" y="264.648073"/>
      </g>
     </g>
     <g id="text_14">
      <!-- 40 -->
      <defs>
       <path d="M 37.796875 64.3125 
L 12.890625 25.390625 
L 37.796875 25.390625 
z
M 35.203125 72.90625 
L 47.609375 72.90625 
L 47.609375 25.390625 
L 58.015625 25.390625 
L 58.015625 17.1875 
L 47.609375 17.1875 
L 47.609375 0 
L 37.796875 0 
L 37.796875 17.1875 
L 4.890625 17.1875 
L 4.890625 26.703125 
z
" id="DejaVuSans-34"/>
      </defs>
      <g transform="translate(68.925 268.447292)scale(0.1 -0.1)">
       <use xlink:href="#DejaVuSans-34"/>
       <use x="63.623047" xlink:href="#DejaVuSans-30"/>
      </g>
     </g>
    </g>
    <g id="ytick_6">
     <g id="line2d_27">
      <path clip-path="url(#p01708fd2ae)" d="M 88.65 222.87023 
L 638.28 222.87023 
" style="fill:none;stroke:#b0b0b0;stroke-linecap:square;stroke-width:0.8;"/>
     </g>
     <g id="line2d_28">
      <g>
       <use style="stroke:#000000;stroke-width:0.8;" x="88.65" xlink:href="#m42dbeed408" y="222.87023"/>
      </g>
     </g>
     <g id="text_15">
      <!-- 50 -->
      <g transform="translate(68.925 226.669449)scale(0.1 -0.1)">
       <use xlink:href="#DejaVuSans-35"/>
       <use x="63.623047" xlink:href="#DejaVuSans-30"/>
      </g>
     </g>
    </g>
    <g id="ytick_7">
     <g id="line2d_29">
      <path clip-path="url(#p01708fd2ae)" d="M 88.65 181.092387 
L 638.28 181.092387 
" style="fill:none;stroke:#b0b0b0;stroke-linecap:square;stroke-width:0.8;"/>
     </g>
     <g id="line2d_30">
      <g>
       <use style="stroke:#000000;stroke-width:0.8;" x="88.65" xlink:href="#m42dbeed408" y="181.092387"/>
      </g>
     </g>
     <g id="text_16">
      <!-- 60 -->
      <defs>
       <path d="M 33.015625 40.375 
Q 26.375 40.375 22.484375 35.828125 
Q 18.609375 31.296875 18.609375 23.390625 
Q 18.609375 15.53125 22.484375 10.953125 
Q 26.375 6.390625 33.015625 6.390625 
Q 39.65625 6.390625 43.53125 10.953125 
Q 47.40625 15.53125 47.40625 23.390625 
Q 47.40625 31.296875 43.53125 35.828125 
Q 39.65625 40.375 33.015625 40.375 
z
M 52.59375 71.296875 
L 52.59375 62.3125 
Q 48.875 64.0625 45.09375 64.984375 
Q 41.3125 65.921875 37.59375 65.921875 
Q 27.828125 65.921875 22.671875 59.328125 
Q 17.53125 52.734375 16.796875 39.40625 
Q 19.671875 43.65625 24.015625 45.921875 
Q 28.375 48.1875 33.59375 48.1875 
Q 44.578125 48.1875 50.953125 41.515625 
Q 57.328125 34.859375 57.328125 23.390625 
Q 57.328125 12.15625 50.6875 5.359375 
Q 44.046875 -1.421875 33.015625 -1.421875 
Q 20.359375 -1.421875 13.671875 8.265625 
Q 6.984375 17.96875 6.984375 36.375 
Q 6.984375 53.65625 15.1875 63.9375 
Q 23.390625 74.21875 37.203125 74.21875 
Q 40.921875 74.21875 44.703125 73.484375 
Q 48.484375 72.75 52.59375 71.296875 
z
" id="DejaVuSans-36"/>
      </defs>
      <g transform="translate(68.925 184.891606)scale(0.1 -0.1)">
       <use xlink:href="#DejaVuSans-36"/>
       <use x="63.623047" xlink:href="#DejaVuSans-30"/>
      </g>
     </g>
    </g>
    <g id="ytick_8">
     <g id="line2d_31">
      <path clip-path="url(#p01708fd2ae)" d="M 88.65 139.314544 
L 638.28 139.314544 
" style="fill:none;stroke:#b0b0b0;stroke-linecap:square;stroke-width:0.8;"/>
     </g>
     <g id="line2d_32">
      <g>
       <use style="stroke:#000000;stroke-width:0.8;" x="88.65" xlink:href="#m42dbeed408" y="139.314544"/>
      </g>
     </g>
     <g id="text_17">
      <!-- 70 -->
      <defs>
       <path d="M 8.203125 72.90625 
L 55.078125 72.90625 
L 55.078125 68.703125 
L 28.609375 0 
L 18.3125 0 
L 43.21875 64.59375 
L 8.203125 64.59375 
z
" id="DejaVuSans-37"/>
      </defs>
      <g transform="translate(68.925 143.113763)scale(0.1 -0.1)">
       <use xlink:href="#DejaVuSans-37"/>
       <use x="63.623047" xlink:href="#DejaVuSans-30"/>
      </g>
     </g>
    </g>
    <g id="ytick_9">
     <g id="line2d_33">
      <path clip-path="url(#p01708fd2ae)" d="M 88.65 97.536701 
L 638.28 97.536701 
" style="fill:none;stroke:#b0b0b0;stroke-linecap:square;stroke-width:0.8;"/>
     </g>
     <g id="line2d_34">
      <g>
       <use style="stroke:#000000;stroke-width:0.8;" x="88.65" xlink:href="#m42dbeed408" y="97.536701"/>
      </g>
     </g>
     <g id="text_18">
      <!-- 80 -->
      <defs>
       <path d="M 31.78125 34.625 
Q 24.75 34.625 20.71875 30.859375 
Q 16.703125 27.09375 16.703125 20.515625 
Q 16.703125 13.921875 20.71875 10.15625 
Q 24.75 6.390625 31.78125 6.390625 
Q 38.8125 6.390625 42.859375 10.171875 
Q 46.921875 13.96875 46.921875 20.515625 
Q 46.921875 27.09375 42.890625 30.859375 
Q 38.875 34.625 31.78125 34.625 
z
M 21.921875 38.8125 
Q 15.578125 40.375 12.03125 44.71875 
Q 8.5 49.078125 8.5 55.328125 
Q 8.5 64.0625 14.71875 69.140625 
Q 20.953125 74.21875 31.78125 74.21875 
Q 42.671875 74.21875 48.875 69.140625 
Q 55.078125 64.0625 55.078125 55.328125 
Q 55.078125 49.078125 51.53125 44.71875 
Q 48 40.375 41.703125 38.8125 
Q 48.828125 37.15625 52.796875 32.3125 
Q 56.78125 27.484375 56.78125 20.515625 
Q 56.78125 9.90625 50.3125 4.234375 
Q 43.84375 -1.421875 31.78125 -1.421875 
Q 19.734375 -1.421875 13.25 4.234375 
Q 6.78125 9.90625 6.78125 20.515625 
Q 6.78125 27.484375 10.78125 32.3125 
Q 14.796875 37.15625 21.921875 38.8125 
z
M 18.3125 54.390625 
Q 18.3125 48.734375 21.84375 45.5625 
Q 25.390625 42.390625 31.78125 42.390625 
Q 38.140625 42.390625 41.71875 45.5625 
Q 45.3125 48.734375 45.3125 54.390625 
Q 45.3125 60.0625 41.71875 63.234375 
Q 38.140625 66.40625 31.78125 66.40625 
Q 25.390625 66.40625 21.84375 63.234375 
Q 18.3125 60.0625 18.3125 54.390625 
z
" id="DejaVuSans-38"/>
      </defs>
      <g transform="translate(68.925 101.33592)scale(0.1 -0.1)">
       <use xlink:href="#DejaVuSans-38"/>
       <use x="63.623047" xlink:href="#DejaVuSans-30"/>
      </g>
     </g>
    </g>
    <g id="text_19">
     <!-- error (%) -->
     <defs>
      <path d="M 41.109375 46.296875 
Q 39.59375 47.171875 37.8125 47.578125 
Q 36.03125 48 33.890625 48 
Q 26.265625 48 22.1875 43.046875 
Q 18.109375 38.09375 18.109375 28.8125 
L 18.109375 0 
L 9.078125 0 
L 9.078125 54.6875 
L 18.109375 54.6875 
L 18.109375 46.1875 
Q 20.953125 51.171875 25.484375 53.578125 
Q 30.03125 56 36.53125 56 
Q 37.453125 56 38.578125 55.875 
Q 39.703125 55.765625 41.0625 55.515625 
z
" id="DejaVuSans-72"/>
      <path id="DejaVuSans-20"/>
      <path d="M 31 75.875 
Q 24.46875 64.65625 21.28125 53.65625 
Q 18.109375 42.671875 18.109375 31.390625 
Q 18.109375 20.125 21.3125 9.0625 
Q 24.515625 -2 31 -13.1875 
L 23.1875 -13.1875 
Q 15.875 -1.703125 12.234375 9.375 
Q 8.59375 20.453125 8.59375 31.390625 
Q 8.59375 42.28125 12.203125 53.3125 
Q 15.828125 64.359375 23.1875 75.875 
z
" id="DejaVuSans-28"/>
      <path d="M 72.703125 32.078125 
Q 68.453125 32.078125 66.03125 28.46875 
Q 63.625 24.859375 63.625 18.40625 
Q 63.625 12.0625 66.03125 8.421875 
Q 68.453125 4.78125 72.703125 4.78125 
Q 76.859375 4.78125 79.265625 8.421875 
Q 81.6875 12.0625 81.6875 18.40625 
Q 81.6875 24.8125 79.265625 28.4375 
Q 76.859375 32.078125 72.703125 32.078125 
z
M 72.703125 38.28125 
Q 80.421875 38.28125 84.953125 32.90625 
Q 89.5 27.546875 89.5 18.40625 
Q 89.5 9.28125 84.9375 3.921875 
Q 80.375 -1.421875 72.703125 -1.421875 
Q 64.890625 -1.421875 60.34375 3.921875 
Q 55.8125 9.28125 55.8125 18.40625 
Q 55.8125 27.59375 60.375 32.9375 
Q 64.9375 38.28125 72.703125 38.28125 
z
M 22.3125 68.015625 
Q 18.109375 68.015625 15.6875 64.375 
Q 13.28125 60.75 13.28125 54.390625 
Q 13.28125 47.953125 15.671875 44.328125 
Q 18.0625 40.71875 22.3125 40.71875 
Q 26.5625 40.71875 28.96875 44.328125 
Q 31.390625 47.953125 31.390625 54.390625 
Q 31.390625 60.6875 28.953125 64.34375 
Q 26.515625 68.015625 22.3125 68.015625 
z
M 66.40625 74.21875 
L 74.21875 74.21875 
L 28.609375 -1.421875 
L 20.796875 -1.421875 
z
M 22.3125 74.21875 
Q 30.03125 74.21875 34.609375 68.875 
Q 39.203125 63.53125 39.203125 54.390625 
Q 39.203125 45.171875 34.640625 39.84375 
Q 30.078125 34.515625 22.3125 34.515625 
Q 14.546875 34.515625 10.03125 39.859375 
Q 5.515625 45.21875 5.515625 54.390625 
Q 5.515625 63.484375 10.046875 68.84375 
Q 14.59375 74.21875 22.3125 74.21875 
z
" id="DejaVuSans-25"/>
      <path d="M 8.015625 75.875 
L 15.828125 75.875 
Q 23.140625 64.359375 26.78125 53.3125 
Q 30.421875 42.28125 30.421875 31.390625 
Q 30.421875 20.453125 26.78125 9.375 
Q 23.140625 -1.703125 15.828125 -13.1875 
L 8.015625 -13.1875 
Q 14.5 -2 17.703125 9.0625 
Q 20.90625 20.125 20.90625 31.390625 
Q 20.90625 42.671875 17.703125 53.65625 
Q 14.5 64.65625 8.015625 75.875 
z
" id="DejaVuSans-29"/>
     </defs>
     <g transform="translate(62.845312 268.698606)rotate(-90)scale(0.1 -0.1)">
      <use xlink:href="#DejaVuSans-65"/>
      <use x="61.523438" xlink:href="#DejaVuSans-72"/>
      <use x="102.621094" xlink:href="#DejaVuSans-72"/>
      <use x="143.703125" xlink:href="#DejaVuSans-6f"/>
      <use x="204.884766" xlink:href="#DejaVuSans-72"/>
      <use x="245.998047" xlink:href="#DejaVuSans-20"/>
      <use x="277.785156" xlink:href="#DejaVuSans-28"/>
      <use x="316.798828" xlink:href="#DejaVuSans-25"/>
      <use x="411.818359" xlink:href="#DejaVuSans-29"/>
     </g>
    </g>
   </g>
   <g id="line2d_35">
    <path clip-path="url(#p01708fd2ae)" d="M 113.633182 75.5532 
L 115.064883 115.877174 
L 116.496584 170.205081 
L 117.928285 213.378304 
L 119.359986 238.14421 
L 120.791687 259.350643 
L 122.223388 275.47689 
L 123.655089 288.570066 
L 125.08679 298.312659 
L 126.51849 309.350365 
L 127.950191 317.438556 
L 129.381892 322.944876 
L 130.813593 329.83822 
L 133.676995 336.280363 
L 135.108696 340.683748 
L 136.540397 342.18775 
L 137.972098 345.103844 
L 139.403799 346.683046 
L 142.267201 350.451407 
L 143.698902 351.704743 
L 145.130603 353.250523 
L 146.562304 354.253191 
L 147.994005 356.651239 
L 149.425706 356.467417 
L 150.857407 355.85746 
L 152.289108 357.61213 
L 153.720809 358.430975 
L 155.15251 359.701022 
L 156.584211 360.511512 
L 158.015912 361.146535 
L 159.447613 362.015514 
L 160.879314 361.037913 
L 162.311015 360.845735 
L 163.742716 363.218716 
L 165.174417 362.241115 
L 168.037818 364.472052 
L 169.469519 363.611428 
L 170.90122 364.012495 
L 172.332921 363.469383 
L 175.196323 365.416231 
L 176.628024 366.677922 
L 178.059725 367.120767 
L 179.491426 366.13481 
L 180.923127 365.77552 
L 182.354828 366.702988 
L 183.786529 367.204323 
L 185.21823 366.594366 
L 186.649931 366.569299 
L 188.081632 368.039879 
L 189.513333 368.248769 
L 190.945034 366.903522 
L 192.376735 368.257124 
L 193.808436 368.407524 
L 195.240137 367.914546 
L 196.671838 368.090013 
L 198.103539 368.842014 
L 199.53524 368.357391 
L 200.966941 369.510459 
L 202.398642 369.30157 
L 203.830343 368.892147 
L 205.262044 370.020149 
L 206.693744 369.502104 
L 208.125445 369.126103 
L 209.557146 368.900503 
L 210.988847 369.535526 
L 213.852249 370.237394 
L 215.28395 370.095349 
L 216.715651 369.644149 
L 218.147352 370.504772 
L 219.579053 370.212327 
L 221.010754 370.872417 
L 225.305857 370.613395 
L 226.737558 370.947617 
L 228.169259 371.783174 
L 229.60096 370.346016 
L 231.032661 370.212327 
L 232.464362 371.741396 
L 233.896063 370.989395 
L 235.327764 371.273484 
L 236.759465 371.340329 
L 238.191166 370.655172 
L 239.622867 370.521483 
L 241.054568 371.799885 
L 242.486269 372.37642 
L 243.91797 372.45162 
L 246.781371 371.524152 
L 248.213072 372.886109 
L 249.644773 372.309575 
L 251.076474 371.966997 
L 252.508175 371.966997 
L 253.939876 372.67722 
L 255.371577 372.125752 
L 256.803278 372.52682 
L 258.234979 372.777487 
L 259.66668 372.142464 
L 261.098381 372.844331 
L 262.530082 373.078287 
L 263.961783 371.064595 
L 265.393484 371.824952 
L 266.825185 372.234375 
L 268.256886 370.947617 
L 269.688587 372.576953 
L 271.120288 371.58264 
L 272.551989 373.429221 
L 273.98369 372.785842 
L 275.415391 372.660509 
L 276.847092 373.379088 
L 279.710494 372.618731 
L 281.142195 372.593664 
L 282.573896 373.755088 
L 284.005597 372.535175 
L 285.437297 373.671533 
L 286.868998 372.643798 
L 288.300699 373.328954 
L 289.7324 373.028154 
L 291.164101 373.320599 
L 292.595802 373.228688 
L 294.027503 374.097667 
L 295.459204 373.379088 
L 296.890905 373.053221 
L 298.322606 373.362377 
L 299.754307 373.445932 
L 301.186008 373.028154 
L 302.617709 373.546199 
L 304.04941 372.90282 
L 305.481111 373.278821 
L 306.912812 373.053221 
L 308.344513 373.613044 
L 309.776214 373.771799 
L 311.207915 373.445932 
L 312.639616 372.877754 
L 314.071317 373.880422 
L 315.503018 373.454288 
L 316.934719 373.679888 
L 318.36642 374.766112 
L 319.798121 373.320599 
L 321.229822 373.821933 
L 322.661523 373.579621 
L 324.093223 373.604688 
L 325.524924 373.512777 
L 326.956625 373.270465 
L 328.388326 373.847 
L 329.820027 373.103354 
L 331.251728 373.529488 
L 332.683429 373.295532 
L 334.11513 374.248067 
L 335.546831 374.214645 
L 336.978532 373.604688 
L 338.410233 373.145132 
L 339.841934 373.587977 
L 341.273635 374.908157 
L 342.705336 374.264778 
L 344.137037 373.872066 
L 345.568738 374.891446 
L 347.000439 374.465312 
L 348.43214 374.248067 
L 349.863841 373.136776 
L 351.295542 374.532156 
L 352.727243 375.142113 
L 354.158944 374.456956 
L 355.590645 374.498734 
L 357.022346 373.863711 
L 358.454047 373.470999 
L 359.885748 374.189578 
L 361.317449 373.905489 
L 362.74915 374.707623 
L 365.612551 374.1478 
L 367.044252 374.206289 
L 368.475953 375.016779 
L 369.907654 374.941579 
L 371.339355 375.000068 
L 374.202757 373.880422 
L 375.634458 374.1478 
L 377.066159 375.434558 
L 378.49786 374.649134 
L 379.929561 375.493047 
L 381.361262 372.994732 
L 382.792963 374.248067 
L 384.224664 375.050201 
L 385.656365 374.540512 
L 387.088066 375.259091 
L 388.519767 375.03349 
L 389.951468 374.431889 
L 391.383169 374.231356 
L 392.81487 374.482023 
L 394.246571 374.607356 
L 395.678272 374.599001 
L 397.109973 374.398467 
L 398.541674 374.532156 
L 399.973375 394.501965 
L 401.405076 398.947128 
L 402.836777 399.707484 
L 404.268477 401.052731 
L 405.700178 401.938421 
L 407.131879 402.197444 
L 408.56358 402.907667 
L 409.995281 402.8074 
L 411.426982 403.116556 
L 412.858683 403.617891 
L 414.290384 403.82678 
L 415.722085 403.634602 
L 417.153786 405.055048 
L 418.585487 404.704114 
L 420.017188 405.096826 
L 421.448889 404.904648 
L 422.88059 405.330782 
L 424.312291 405.52296 
L 425.743992 405.347493 
L 427.175693 404.871226 
L 428.607394 405.305715 
L 431.470796 406.417006 
L 435.765899 405.756916 
L 437.1976 406.742873 
L 438.629301 405.974161 
L 440.061002 406.249895 
L 441.492703 406.909985 
L 442.924403 406.901629 
L 444.356104 407.210785 
L 447.219506 407.244207 
L 448.651207 406.901629 
L 451.514609 407.394608 
L 452.94631 407.294341 
L 455.809712 407.93772 
L 457.241413 406.876562 
L 458.673114 407.636919 
L 461.536516 407.795675 
L 462.968217 407.611852 
L 464.399918 408.188387 
L 465.831619 407.127229 
L 467.26332 407.912653 
L 468.695021 408.556032 
L 470.126722 408.430698 
L 471.558423 413.143239 
L 474.421825 413.636217 
L 475.853526 414.104129 
L 477.285227 414.170974 
L 478.716928 414.463419 
L 480.148629 414.530263 
L 481.58033 413.962085 
L 483.01203 414.012218 
L 484.443731 414.538619 
L 488.738834 414.062351 
L 490.170535 414.463419 
L 491.602236 414.287952 
L 494.465638 414.914619 
L 495.897339 414.889553 
L 497.32904 414.48013 
L 498.760741 415.36582 
L 500.192442 414.572041 
L 501.624143 414.789286 
L 503.055844 414.814353 
L 504.487545 414.622174 
L 505.919246 415.232131 
L 507.350947 414.663952 
L 508.782648 414.48013 
L 510.214349 414.956397 
L 511.64605 415.29062 
L 513.077751 415.131864 
L 514.509452 414.805997 
L 515.941153 414.680663 
L 517.372854 415.031597 
L 518.804555 414.521908 
L 520.236256 414.864486 
L 521.667956 414.463419 
L 523.099657 415.357464 
L 524.531358 414.922975 
L 527.39476 414.939686 
L 528.826461 415.51622 
L 530.258162 414.805997 
L 531.689863 415.80031 
L 533.121564 415.44102 
L 534.553265 414.538619 
L 535.984966 414.956397 
L 537.416667 415.59142 
L 540.280069 415.357464 
L 541.71177 415.248842 
L 543.143471 415.457731 
L 544.575172 415.992488 
L 546.006873 416.034266 
L 547.438574 415.407598 
L 550.301976 415.641554 
L 551.733677 416.067688 
L 554.597079 416.301644 
L 557.460481 415.883865 
L 558.892182 415.407598 
L 561.755583 416.000843 
L 563.187284 416.17631 
L 564.618985 415.867154 
L 567.482387 415.758532 
L 568.914088 415.967421 
L 570.345789 415.307331 
L 571.77749 415.574709 
L 574.640892 416.677644 
L 576.072593 416.360133 
L 577.504294 416.259866 
L 578.935995 416.301644 
L 581.799397 416.042621 
L 583.231098 415.833732 
L 584.662799 416.368488 
L 586.0945 416.393555 
L 587.526201 416.594089 
L 588.957902 415.44102 
L 590.389603 416.17631 
L 591.821304 415.908932 
L 593.253005 415.240487 
L 594.684706 416.7612 
L 596.116407 416.360133 
L 598.979809 415.833732 
L 600.41151 416.594089 
L 601.84321 416.418622 
L 603.274911 415.474442 
L 604.706612 415.942354 
L 606.138313 415.80031 
L 607.570014 416.268221 
L 609.001715 416.209732 
L 610.433416 415.825376 
L 611.865117 416.184666 
L 613.296818 415.984132 
L 613.296818 415.984132 
" style="fill:none;stroke:#1f77b4;stroke-dasharray:5.55,2.4;stroke-dashoffset:0;stroke-width:1.5;"/>
   </g>
   <g id="line2d_36">
    <path clip-path="url(#p01708fd2ae)" d="M 113.633182 92.230915 
L 115.064883 143.784773 
L 116.496584 189.907512 
L 117.928285 208.331541 
L 119.359986 245.304932 
L 120.791687 261.180512 
L 122.223388 290.884559 
L 123.655089 291.05167 
L 125.08679 303.83569 
L 126.51849 298.153903 
L 127.950191 318.416157 
L 129.381892 318.123712 
L 130.813593 325.184168 
L 132.245294 329.779731 
L 133.676995 327.899728 
L 135.108696 327.022393 
L 136.540397 336.756631 
L 137.972098 341.059748 
L 139.403799 316.285487 
L 140.8355 331.492622 
L 142.267201 336.129963 
L 143.698902 345.362866 
L 145.130603 343.35753 
L 146.562304 342.521973 
L 147.994005 345.613533 
L 149.425706 340.934415 
L 150.857407 351.754876 
L 152.289108 348.20376 
L 153.720809 350.501541 
L 155.15251 343.441085 
L 156.584211 349.958429 
L 158.015912 338.218855 
L 159.447613 344.067753 
L 160.879314 334.625961 
L 162.311015 351.88021 
L 163.742716 343.232196 
L 166.606117 353.718435 
L 168.037818 344.025975 
L 169.469519 346.950424 
L 170.90122 347.660648 
L 172.332921 346.156645 
L 173.764622 353.175323 
L 175.196323 346.950424 
L 176.628024 349.498873 
L 178.059725 349.206428 
L 179.491426 355.305993 
L 180.923127 359.943333 
L 182.354828 354.929992 
L 183.786529 353.049989 
L 185.21823 351.629543 
L 186.649931 354.345102 
L 188.081632 343.900642 
L 189.513333 351.629543 
L 190.945034 357.018884 
L 192.376735 341.895305 
L 193.808436 359.274888 
L 195.240137 351.169986 
L 196.671838 347.660648 
L 198.103539 352.632211 
L 199.53524 358.606442 
L 200.966941 356.016216 
L 202.398642 356.392217 
L 203.830343 348.621538 
L 205.262044 357.144218 
L 206.693744 357.018884 
L 208.125445 346.490868 
L 209.557146 349.498873 
L 210.988847 350.083762 
L 212.420548 355.389549 
L 213.852249 358.815332 
L 215.28395 352.4651 
L 216.715651 354.428658 
L 218.147352 347.40998 
L 219.579053 354.094435 
L 221.010754 351.796654 
L 222.442455 357.561996 
L 223.874156 346.574424 
L 226.737558 358.898887 
L 228.169259 350.209096 
L 229.60096 347.368203 
L 231.032661 354.888214 
L 232.464362 357.060662 
L 233.896063 357.060662 
L 235.327764 350.835764 
L 236.759465 351.67132 
L 238.191166 349.74954 
L 239.622867 344.610865 
L 241.054568 355.681993 
L 242.486269 357.018884 
L 243.91797 351.629543 
L 245.34967 356.475772 
L 246.781371 359.191332 
L 248.213072 358.481109 
L 249.644773 355.974438 
L 251.076474 355.55666 
L 252.508175 354.679325 
L 253.939876 349.707762 
L 255.371577 348.997539 
L 256.803278 356.392217 
L 258.234979 351.253542 
L 259.66668 351.88021 
L 261.098381 358.313998 
L 262.530082 352.8411 
L 263.961783 353.42599 
L 265.393484 348.036648 
L 266.825185 348.955761 
L 268.256886 350.585097 
L 269.688587 356.308661 
L 271.120288 355.097104 
L 272.551989 352.715767 
L 273.98369 358.898887 
L 275.415391 355.974438 
L 276.847092 361.572669 
L 278.278793 352.214432 
L 279.710494 348.788649 
L 281.142195 352.172655 
L 282.573896 357.645552 
L 284.005597 346.866869 
L 285.437297 343.524641 
L 286.868998 353.384212 
L 288.300699 358.439331 
L 289.7324 355.055326 
L 291.164101 354.97177 
L 292.595802 359.609111 
L 295.459204 358.606442 
L 296.890905 356.601106 
L 298.322606 351.629543 
L 299.754307 341.644638 
L 301.186008 364.162896 
L 302.617709 348.621538 
L 304.04941 345.905978 
L 305.481111 344.819754 
L 306.912812 347.201091 
L 308.344513 358.731776 
L 309.776214 351.29532 
L 311.207915 345.780645 
L 312.639616 350.209096 
L 314.071317 357.060662 
L 315.503018 357.227774 
L 316.934719 347.869537 
L 318.36642 355.723771 
L 319.798121 355.514882 
L 321.229822 356.433995 
L 322.661523 355.013548 
L 324.093223 359.943333 
L 325.524924 360.319334 
L 326.956625 353.384212 
L 328.388326 345.738867 
L 329.820027 357.68733 
L 331.251728 342.020639 
L 332.683429 354.345102 
L 334.11513 354.01088 
L 335.546831 354.428658 
L 336.978532 357.478441 
L 338.410233 362.115781 
L 339.841934 357.937997 
L 341.273635 354.345102 
L 342.705336 356.768217 
L 344.137037 355.681993 
L 345.568738 358.021553 
L 347.000439 356.977107 
L 348.43214 356.266883 
L 349.863841 356.183328 
L 351.295542 359.650889 
L 352.727243 355.305993 
L 354.158944 357.937997 
L 355.590645 359.901556 
L 357.022346 356.475772 
L 358.454047 359.149554 
L 359.885748 355.598438 
L 361.317449 357.520219 
L 362.74915 359.149554 
L 364.18085 352.548655 
L 365.612551 359.943333 
L 367.044252 349.624206 
L 368.475953 364.288229 
L 369.907654 356.935329 
L 371.339355 362.241115 
L 372.771056 360.152223 
L 374.202757 345.697089 
L 375.634458 359.985111 
L 377.066159 359.692666 
L 378.49786 355.389549 
L 379.929561 353.258879 
L 381.361262 358.857109 
L 382.792963 355.514882 
L 384.224664 356.809995 
L 385.656365 343.608197 
L 387.088066 356.433995 
L 388.519767 351.963765 
L 389.951468 360.194 
L 391.383169 359.776222 
L 392.81487 357.311329 
L 394.246571 353.008211 
L 395.678272 351.420653 
L 397.109973 356.308661 
L 398.541674 351.378876 
L 399.973375 373.019798 
L 401.405076 373.228688 
L 402.836777 375.025135 
L 404.268477 373.103354 
L 405.700178 374.73269 
L 408.56358 374.106022 
L 409.995281 372.852687 
L 411.426982 375.610025 
L 412.858683 375.69358 
L 414.290384 374.565578 
L 415.722085 376.320248 
L 417.153786 375.442913 
L 418.585487 372.810909 
L 420.017188 373.395799 
L 421.448889 374.523801 
L 422.88059 372.769131 
L 424.312291 375.275802 
L 425.743992 373.395799 
L 428.607394 374.941579 
L 430.039095 374.73269 
L 431.470796 375.066913 
L 432.902497 373.521132 
L 434.334198 375.066913 
L 435.765899 374.189578 
L 437.1976 373.019798 
L 440.061002 371.390462 
L 441.492703 374.774468 
L 442.924403 373.813577 
L 444.356104 374.314911 
L 445.787805 372.769131 
L 447.219506 372.267797 
L 448.651207 372.393131 
L 450.082908 373.604688 
L 451.514609 369.134459 
L 452.94631 370.346016 
L 454.378011 372.643798 
L 455.809712 371.808241 
L 457.241413 373.56291 
L 458.673114 372.01713 
L 460.104815 373.479355 
L 461.536516 372.184241 
L 462.968217 370.137127 
L 464.399918 373.897133 
L 465.831619 375.568247 
L 467.26332 372.100686 
L 468.695021 374.565578 
L 470.126722 369.88646 
L 471.558423 377.155805 
L 472.990124 376.236692 
L 474.421825 375.777136 
L 475.853526 376.821582 
L 477.285227 376.111359 
L 478.716928 377.322916 
L 480.148629 375.944247 
L 481.58033 376.487359 
L 483.01203 376.738026 
L 484.443731 377.657139 
L 485.875432 375.777136 
L 487.307133 374.440245 
L 488.738834 375.401135 
L 490.170535 376.027803 
L 491.602236 376.111359 
L 493.033937 375.944247 
L 494.465638 376.696248 
L 495.897339 376.905138 
L 497.32904 375.777136 
L 498.760741 378.074917 
L 500.192442 376.487359 
L 501.624143 376.403804 
L 503.055844 377.114027 
L 504.487545 376.946916 
L 505.919246 375.818914 
L 507.350947 375.902469 
L 508.782648 376.696248 
L 510.214349 376.821582 
L 511.64605 374.983357 
L 513.077751 377.44825 
L 514.509452 376.612693 
L 515.941153 376.779804 
L 517.372854 376.153137 
L 518.804555 377.114027 
L 520.236256 375.69358 
L 521.667956 374.690912 
L 523.099657 376.27847 
L 524.531358 375.10869 
L 525.963059 374.482023 
L 527.39476 376.236692 
L 528.826461 377.406472 
L 530.258162 374.858023 
L 531.689863 375.192246 
L 533.121564 375.944247 
L 534.553265 375.860692 
L 535.984966 376.445581 
L 537.416667 377.364694 
L 538.848368 375.025135 
L 540.280069 376.27847 
L 541.71177 377.030471 
L 543.143471 376.069581 
L 544.575172 376.27847 
L 546.006873 377.573583 
L 547.438574 377.406472 
L 548.870275 377.072249 
L 550.301976 375.526469 
L 551.733677 376.320248 
L 553.165378 377.406472 
L 554.597079 375.275802 
L 556.02878 375.234024 
L 557.460481 375.401135 
L 558.892182 377.406472 
L 560.323883 378.074917 
L 561.755583 376.654471 
L 563.187284 377.030471 
L 564.618985 376.069581 
L 566.050686 377.866028 
L 567.482387 374.816246 
L 570.345789 376.236692 
L 571.77749 375.526469 
L 573.209191 375.986025 
L 574.640892 376.194914 
L 576.072593 376.946916 
L 577.504294 377.197583 
L 578.935995 376.612693 
L 581.799397 376.362026 
L 583.231098 375.860692 
L 584.662799 374.899801 
L 586.0945 375.401135 
L 587.526201 376.779804 
L 588.957902 376.696248 
L 590.389603 376.905138 
L 591.821304 376.194914 
L 593.253005 375.735358 
L 594.684706 377.573583 
L 596.116407 378.033139 
L 597.548108 377.991362 
L 598.979809 374.983357 
L 600.41151 377.406472 
L 601.84321 374.899801 
L 603.274911 376.779804 
L 604.706612 376.111359 
L 606.138313 377.866028 
L 607.570014 376.069581 
L 609.001715 376.320248 
L 610.433416 376.362026 
L 611.865117 378.325584 
L 613.296818 375.860692 
L 613.296818 375.860692 
" style="fill:none;stroke:#ff7f0e;stroke-linecap:square;stroke-width:1.5;"/>
   </g>
   <g id="patch_3">
    <path d="M 88.65 433.8216 
L 88.65 58.4928 
" style="fill:none;stroke:#000000;stroke-linecap:square;stroke-linejoin:miter;stroke-width:0.8;"/>
   </g>
   <g id="patch_4">
    <path d="M 638.28 433.8216 
L 638.28 58.4928 
" style="fill:none;stroke:#000000;stroke-linecap:square;stroke-linejoin:miter;stroke-width:0.8;"/>
   </g>
   <g id="patch_5">
    <path d="M 88.65 433.8216 
L 638.28 433.8216 
" style="fill:none;stroke:#000000;stroke-linecap:square;stroke-linejoin:miter;stroke-width:0.8;"/>
   </g>
   <g id="patch_6">
    <path d="M 88.65 58.4928 
L 638.28 58.4928 
" style="fill:none;stroke:#000000;stroke-linecap:square;stroke-linejoin:miter;stroke-width:0.8;"/>
   </g>
   <g id="text_20">
    <!-- Model C -->
    <defs>
     <path d="M 9.8125 72.90625 
L 24.515625 72.90625 
L 43.109375 23.296875 
L 61.8125 72.90625 
L 76.515625 72.90625 
L 76.515625 0 
L 66.890625 0 
L 66.890625 64.015625 
L 48.09375 14.015625 
L 38.1875 14.015625 
L 19.390625 64.015625 
L 19.390625 0 
L 9.8125 0 
z
" id="DejaVuSans-4d"/>
     <path d="M 45.40625 46.390625 
L 45.40625 75.984375 
L 54.390625 75.984375 
L 54.390625 0 
L 45.40625 0 
L 45.40625 8.203125 
Q 42.578125 3.328125 38.25 0.953125 
Q 33.9375 -1.421875 27.875 -1.421875 
Q 17.96875 -1.421875 11.734375 6.484375 
Q 5.515625 14.40625 5.515625 27.296875 
Q 5.515625 40.1875 11.734375 48.09375 
Q 17.96875 56 27.875 56 
Q 33.9375 56 38.25 53.625 
Q 42.578125 51.265625 45.40625 46.390625 
z
M 14.796875 27.296875 
Q 14.796875 17.390625 18.875 11.75 
Q 22.953125 6.109375 30.078125 6.109375 
Q 37.203125 6.109375 41.296875 11.75 
Q 45.40625 17.390625 45.40625 27.296875 
Q 45.40625 37.203125 41.296875 42.84375 
Q 37.203125 48.484375 30.078125 48.484375 
Q 22.953125 48.484375 18.875 42.84375 
Q 14.796875 37.203125 14.796875 27.296875 
z
" id="DejaVuSans-64"/>
     <path d="M 9.421875 75.984375 
L 18.40625 75.984375 
L 18.40625 0 
L 9.421875 0 
z
" id="DejaVuSans-6c"/>
     <path d="M 64.40625 67.28125 
L 64.40625 56.890625 
Q 59.421875 61.53125 53.78125 63.8125 
Q 48.140625 66.109375 41.796875 66.109375 
Q 29.296875 66.109375 22.65625 58.46875 
Q 16.015625 50.828125 16.015625 36.375 
Q 16.015625 21.96875 22.65625 14.328125 
Q 29.296875 6.6875 41.796875 6.6875 
Q 48.140625 6.6875 53.78125 8.984375 
Q 59.421875 11.28125 64.40625 15.921875 
L 64.40625 5.609375 
Q 59.234375 2.09375 53.4375 0.328125 
Q 47.65625 -1.421875 41.21875 -1.421875 
Q 24.65625 -1.421875 15.125 8.703125 
Q 5.609375 18.84375 5.609375 36.375 
Q 5.609375 53.953125 15.125 64.078125 
Q 24.65625 74.21875 41.21875 74.21875 
Q 47.75 74.21875 53.53125 72.484375 
Q 59.328125 70.75 64.40625 67.28125 
z
" id="DejaVuSans-43"/>
    </defs>
    <g transform="translate(339.3525 52.4928)scale(0.12 -0.12)">
     <use xlink:href="#DejaVuSans-4d"/>
     <use x="86.279297" xlink:href="#DejaVuSans-6f"/>
     <use x="147.460938" xlink:href="#DejaVuSans-64"/>
     <use x="210.9375" xlink:href="#DejaVuSans-65"/>
     <use x="272.460938" xlink:href="#DejaVuSans-6c"/>
     <use x="300.244141" xlink:href="#DejaVuSans-20"/>
     <use x="332.03125" xlink:href="#DejaVuSans-43"/>
    </g>
   </g>
   <g id="legend_1">
    <g id="patch_7">
     <path d="M 548.226875 95.84905 
L 631.28 95.84905 
Q 633.28 95.84905 633.28 93.84905 
L 633.28 65.4928 
Q 633.28 63.4928 631.28 63.4928 
L 548.226875 63.4928 
Q 546.226875 63.4928 546.226875 65.4928 
L 546.226875 93.84905 
Q 546.226875 95.84905 548.226875 95.84905 
z
" style="fill:#ffffff;opacity:0.8;stroke:#cccccc;stroke-linejoin:miter;"/>
    </g>
    <g id="line2d_37">
     <path d="M 550.226875 71.591237 
L 570.226875 71.591237 
" style="fill:none;stroke:#1f77b4;stroke-dasharray:5.55,2.4;stroke-dashoffset:0;stroke-width:1.5;"/>
    </g>
    <g id="line2d_38"/>
    <g id="text_21">
     <!-- train error -->
     <defs>
      <path d="M 18.3125 70.21875 
L 18.3125 54.6875 
L 36.8125 54.6875 
L 36.8125 47.703125 
L 18.3125 47.703125 
L 18.3125 18.015625 
Q 18.3125 11.328125 20.140625 9.421875 
Q 21.96875 7.515625 27.59375 7.515625 
L 36.8125 7.515625 
L 36.8125 0 
L 27.59375 0 
Q 17.1875 0 13.234375 3.875 
Q 9.28125 7.765625 9.28125 18.015625 
L 9.28125 47.703125 
L 2.6875 47.703125 
L 2.6875 54.6875 
L 9.28125 54.6875 
L 9.28125 70.21875 
z
" id="DejaVuSans-74"/>
      <path d="M 34.28125 27.484375 
Q 23.390625 27.484375 19.1875 25 
Q 14.984375 22.515625 14.984375 16.5 
Q 14.984375 11.71875 18.140625 8.90625 
Q 21.296875 6.109375 26.703125 6.109375 
Q 34.1875 6.109375 38.703125 11.40625 
Q 43.21875 16.703125 43.21875 25.484375 
L 43.21875 27.484375 
z
M 52.203125 31.203125 
L 52.203125 0 
L 43.21875 0 
L 43.21875 8.296875 
Q 40.140625 3.328125 35.546875 0.953125 
Q 30.953125 -1.421875 24.3125 -1.421875 
Q 15.921875 -1.421875 10.953125 3.296875 
Q 6 8.015625 6 15.921875 
Q 6 25.140625 12.171875 29.828125 
Q 18.359375 34.515625 30.609375 34.515625 
L 43.21875 34.515625 
L 43.21875 35.40625 
Q 43.21875 41.609375 39.140625 45 
Q 35.0625 48.390625 27.6875 48.390625 
Q 23 48.390625 18.546875 47.265625 
Q 14.109375 46.140625 10.015625 43.890625 
L 10.015625 52.203125 
Q 14.9375 54.109375 19.578125 55.046875 
Q 24.21875 56 28.609375 56 
Q 40.484375 56 46.34375 49.84375 
Q 52.203125 43.703125 52.203125 31.203125 
z
" id="DejaVuSans-61"/>
      <path d="M 9.421875 54.6875 
L 18.40625 54.6875 
L 18.40625 0 
L 9.421875 0 
z
M 9.421875 75.984375 
L 18.40625 75.984375 
L 18.40625 64.59375 
L 9.421875 64.59375 
z
" id="DejaVuSans-69"/>
      <path d="M 54.890625 33.015625 
L 54.890625 0 
L 45.90625 0 
L 45.90625 32.71875 
Q 45.90625 40.484375 42.875 44.328125 
Q 39.84375 48.1875 33.796875 48.1875 
Q 26.515625 48.1875 22.3125 43.546875 
Q 18.109375 38.921875 18.109375 30.90625 
L 18.109375 0 
L 9.078125 0 
L 9.078125 54.6875 
L 18.109375 54.6875 
L 18.109375 46.1875 
Q 21.34375 51.125 25.703125 53.5625 
Q 30.078125 56 35.796875 56 
Q 45.21875 56 50.046875 50.171875 
Q 54.890625 44.34375 54.890625 33.015625 
z
" id="DejaVuSans-6e"/>
     </defs>
     <g transform="translate(578.226875 75.091237)scale(0.1 -0.1)">
      <use xlink:href="#DejaVuSans-74"/>
      <use x="39.208984" xlink:href="#DejaVuSans-72"/>
      <use x="80.322266" xlink:href="#DejaVuSans-61"/>
      <use x="141.601562" xlink:href="#DejaVuSans-69"/>
      <use x="169.384766" xlink:href="#DejaVuSans-6e"/>
      <use x="232.763672" xlink:href="#DejaVuSans-20"/>
      <use x="264.550781" xlink:href="#DejaVuSans-65"/>
      <use x="326.074219" xlink:href="#DejaVuSans-72"/>
      <use x="367.171875" xlink:href="#DejaVuSans-72"/>
      <use x="408.253906" xlink:href="#DejaVuSans-6f"/>
      <use x="469.435547" xlink:href="#DejaVuSans-72"/>
     </g>
    </g>
    <g id="line2d_39">
     <path d="M 550.226875 86.269362 
L 570.226875 86.269362 
" style="fill:none;stroke:#ff7f0e;stroke-linecap:square;stroke-width:1.5;"/>
    </g>
    <g id="line2d_40"/>
    <g id="text_22">
     <!-- test error -->
     <defs>
      <path d="M 44.28125 53.078125 
L 44.28125 44.578125 
Q 40.484375 46.53125 36.375 47.5 
Q 32.28125 48.484375 27.875 48.484375 
Q 21.1875 48.484375 17.84375 46.4375 
Q 14.5 44.390625 14.5 40.28125 
Q 14.5 37.15625 16.890625 35.375 
Q 19.28125 33.59375 26.515625 31.984375 
L 29.59375 31.296875 
Q 39.15625 29.25 43.1875 25.515625 
Q 47.21875 21.78125 47.21875 15.09375 
Q 47.21875 7.46875 41.1875 3.015625 
Q 35.15625 -1.421875 24.609375 -1.421875 
Q 20.21875 -1.421875 15.453125 -0.5625 
Q 10.6875 0.296875 5.421875 2 
L 5.421875 11.28125 
Q 10.40625 8.6875 15.234375 7.390625 
Q 20.0625 6.109375 24.8125 6.109375 
Q 31.15625 6.109375 34.5625 8.28125 
Q 37.984375 10.453125 37.984375 14.40625 
Q 37.984375 18.0625 35.515625 20.015625 
Q 33.0625 21.96875 24.703125 23.78125 
L 21.578125 24.515625 
Q 13.234375 26.265625 9.515625 29.90625 
Q 5.8125 33.546875 5.8125 39.890625 
Q 5.8125 47.609375 11.28125 51.796875 
Q 16.75 56 26.8125 56 
Q 31.78125 56 36.171875 55.265625 
Q 40.578125 54.546875 44.28125 53.078125 
z
" id="DejaVuSans-73"/>
     </defs>
     <g transform="translate(578.226875 89.769362)scale(0.1 -0.1)">
      <use xlink:href="#DejaVuSans-74"/>
      <use x="39.208984" xlink:href="#DejaVuSans-65"/>
      <use x="100.732422" xlink:href="#DejaVuSans-73"/>
      <use x="152.832031" xlink:href="#DejaVuSans-74"/>
      <use x="192.041016" xlink:href="#DejaVuSans-20"/>
      <use x="223.828125" xlink:href="#DejaVuSans-65"/>
      <use x="285.351562" xlink:href="#DejaVuSans-72"/>
      <use x="326.449219" xlink:href="#DejaVuSans-72"/>
      <use x="367.53125" xlink:href="#DejaVuSans-6f"/>
      <use x="428.712891" xlink:href="#DejaVuSans-72"/>
     </g>
    </g>
   </g>
  </g>
 </g>
 <defs>
  <clipPath id="p01708fd2ae">
   <rect height="375.3288" width="549.63" x="88.65" y="58.4928"/>
  </clipPath>
 </defs>
</svg>
