<?xml version="1.0" encoding="utf-8" standalone="no"?>
<!DOCTYPE svg PUBLIC "-//W3C//DTD SVG 1.1//EN"
  "http://www.w3.org/Graphics/SVG/1.1/DTD/svg11.dtd">
<!-- Created with matplotlib (http://matplotlib.org/) -->
<svg height="489pt" version="1.1" viewBox="0 0 676 489" width="676pt" xmlns="http://www.w3.org/2000/svg" xmlns:xlink="http://www.w3.org/1999/xlink">
 <defs>
  <style type="text/css">
*{stroke-linecap:butt;stroke-linejoin:round;}
  </style>
 </defs>
 <g id="figure_1">
  <g id="patch_1">
   <path d="M 0 489.6 
L 676.08 489.6 
L 676.08 0 
L 0 0 
z
" style="fill:#ffffff;"/>
  </g>
  <g id="axes_1">
   <g id="patch_2">
    <path d="M 84.51 435.744 
L 608.472 435.744 
L 608.472 58.752 
L 84.51 58.752 
z
" style="fill:#ffffff;"/>
   </g>
   <g id="matplotlib.axis_1">
    <g id="xtick_1">
     <g id="line2d_1">
      <path clip-path="url(#p493276317f)" d="M 108.326455 435.744 
L 108.326455 58.752 
" style="fill:none;stroke:#b0b0b0;stroke-linecap:square;stroke-width:0.8;"/>
     </g>
     <g id="line2d_2">
      <defs>
       <path d="M 0 0 
L 0 3.5 
" id="mb8d19311e6" style="stroke:#000000;stroke-width:0.8;"/>
      </defs>
      <g>
       <use style="stroke:#000000;stroke-width:0.8;" x="108.326455" xlink:href="#mb8d19311e6" y="435.744"/>
      </g>
     </g>
     <g id="text_1">
      <!-- 0 -->
      <defs>
       <path d="M 31.78125 66.40625 
Q 24.171875 66.40625 20.328125 58.90625 
Q 16.5 51.421875 16.5 36.375 
Q 16.5 21.390625 20.328125 13.890625 
Q 24.171875 6.390625 31.78125 6.390625 
Q 39.453125 6.390625 43.28125 13.890625 
Q 47.125 21.390625 47.125 36.375 
Q 47.125 51.421875 43.28125 58.90625 
Q 39.453125 66.40625 31.78125 66.40625 
z
M 31.78125 74.21875 
Q 44.046875 74.21875 50.515625 64.515625 
Q 56.984375 54.828125 56.984375 36.375 
Q 56.984375 17.96875 50.515625 8.265625 
Q 44.046875 -1.421875 31.78125 -1.421875 
Q 19.53125 -1.421875 13.0625 8.265625 
Q 6.59375 17.96875 6.59375 36.375 
Q 6.59375 54.828125 13.0625 64.515625 
Q 19.53125 74.21875 31.78125 74.21875 
z
" id="DejaVuSans-30"/>
      </defs>
      <g transform="translate(105.145205 450.342437)scale(0.1 -0.1)">
       <use xlink:href="#DejaVuSans-30"/>
      </g>
     </g>
    </g>
    <g id="xtick_2">
     <g id="line2d_3">
      <path clip-path="url(#p493276317f)" d="M 176.568445 435.744 
L 176.568445 58.752 
" style="fill:none;stroke:#b0b0b0;stroke-linecap:square;stroke-width:0.8;"/>
     </g>
     <g id="line2d_4">
      <g>
       <use style="stroke:#000000;stroke-width:0.8;" x="176.568445" xlink:href="#mb8d19311e6" y="435.744"/>
      </g>
     </g>
     <g id="text_2">
      <!-- 50 -->
      <defs>
       <path d="M 10.796875 72.90625 
L 49.515625 72.90625 
L 49.515625 64.59375 
L 19.828125 64.59375 
L 19.828125 46.734375 
Q 21.96875 47.46875 24.109375 47.828125 
Q 26.265625 48.1875 28.421875 48.1875 
Q 40.625 48.1875 47.75 41.5 
Q 54.890625 34.8125 54.890625 23.390625 
Q 54.890625 11.625 47.5625 5.09375 
Q 40.234375 -1.421875 26.90625 -1.421875 
Q 22.3125 -1.421875 17.546875 -0.640625 
Q 12.796875 0.140625 7.71875 1.703125 
L 7.71875 11.625 
Q 12.109375 9.234375 16.796875 8.0625 
Q 21.484375 6.890625 26.703125 6.890625 
Q 35.15625 6.890625 40.078125 11.328125 
Q 45.015625 15.765625 45.015625 23.390625 
Q 45.015625 31 40.078125 35.4375 
Q 35.15625 39.890625 26.703125 39.890625 
Q 22.75 39.890625 18.8125 39.015625 
Q 14.890625 38.140625 10.796875 36.28125 
z
" id="DejaVuSans-35"/>
      </defs>
      <g transform="translate(170.205945 450.342437)scale(0.1 -0.1)">
       <use xlink:href="#DejaVuSans-35"/>
       <use x="63.623047" xlink:href="#DejaVuSans-30"/>
      </g>
     </g>
    </g>
    <g id="xtick_3">
     <g id="line2d_5">
      <path clip-path="url(#p493276317f)" d="M 244.810435 435.744 
L 244.810435 58.752 
" style="fill:none;stroke:#b0b0b0;stroke-linecap:square;stroke-width:0.8;"/>
     </g>
     <g id="line2d_6">
      <g>
       <use style="stroke:#000000;stroke-width:0.8;" x="244.810435" xlink:href="#mb8d19311e6" y="435.744"/>
      </g>
     </g>
     <g id="text_3">
      <!-- 100 -->
      <defs>
       <path d="M 12.40625 8.296875 
L 28.515625 8.296875 
L 28.515625 63.921875 
L 10.984375 60.40625 
L 10.984375 69.390625 
L 28.421875 72.90625 
L 38.28125 72.90625 
L 38.28125 8.296875 
L 54.390625 8.296875 
L 54.390625 0 
L 12.40625 0 
z
" id="DejaVuSans-31"/>
      </defs>
      <g transform="translate(235.266685 450.342437)scale(0.1 -0.1)">
       <use xlink:href="#DejaVuSans-31"/>
       <use x="63.623047" xlink:href="#DejaVuSans-30"/>
       <use x="127.246094" xlink:href="#DejaVuSans-30"/>
      </g>
     </g>
    </g>
    <g id="xtick_4">
     <g id="line2d_7">
      <path clip-path="url(#p493276317f)" d="M 313.052425 435.744 
L 313.052425 58.752 
" style="fill:none;stroke:#b0b0b0;stroke-linecap:square;stroke-width:0.8;"/>
     </g>
     <g id="line2d_8">
      <g>
       <use style="stroke:#000000;stroke-width:0.8;" x="313.052425" xlink:href="#mb8d19311e6" y="435.744"/>
      </g>
     </g>
     <g id="text_4">
      <!-- 150 -->
      <g transform="translate(303.508675 450.342437)scale(0.1 -0.1)">
       <use xlink:href="#DejaVuSans-31"/>
       <use x="63.623047" xlink:href="#DejaVuSans-35"/>
       <use x="127.246094" xlink:href="#DejaVuSans-30"/>
      </g>
     </g>
    </g>
    <g id="xtick_5">
     <g id="line2d_9">
      <path clip-path="url(#p493276317f)" d="M 381.294415 435.744 
L 381.294415 58.752 
" style="fill:none;stroke:#b0b0b0;stroke-linecap:square;stroke-width:0.8;"/>
     </g>
     <g id="line2d_10">
      <g>
       <use style="stroke:#000000;stroke-width:0.8;" x="381.294415" xlink:href="#mb8d19311e6" y="435.744"/>
      </g>
     </g>
     <g id="text_5">
      <!-- 200 -->
      <defs>
       <path d="M 19.1875 8.296875 
L 53.609375 8.296875 
L 53.609375 0 
L 7.328125 0 
L 7.328125 8.296875 
Q 12.9375 14.109375 22.625 23.890625 
Q 32.328125 33.6875 34.8125 36.53125 
Q 39.546875 41.84375 41.421875 45.53125 
Q 43.3125 49.21875 43.3125 52.78125 
Q 43.3125 58.59375 39.234375 62.25 
Q 35.15625 65.921875 28.609375 65.921875 
Q 23.96875 65.921875 18.8125 64.3125 
Q 13.671875 62.703125 7.8125 59.421875 
L 7.8125 69.390625 
Q 13.765625 71.78125 18.9375 73 
Q 24.125 74.21875 28.421875 74.21875 
Q 39.75 74.21875 46.484375 68.546875 
Q 53.21875 62.890625 53.21875 53.421875 
Q 53.21875 48.921875 51.53125 44.890625 
Q 49.859375 40.875 45.40625 35.40625 
Q 44.1875 33.984375 37.640625 27.21875 
Q 31.109375 20.453125 19.1875 8.296875 
z
" id="DejaVuSans-32"/>
      </defs>
      <g transform="translate(371.750665 450.342437)scale(0.1 -0.1)">
       <use xlink:href="#DejaVuSans-32"/>
       <use x="63.623047" xlink:href="#DejaVuSans-30"/>
       <use x="127.246094" xlink:href="#DejaVuSans-30"/>
      </g>
     </g>
    </g>
    <g id="xtick_6">
     <g id="line2d_11">
      <path clip-path="url(#p493276317f)" d="M 449.536405 435.744 
L 449.536405 58.752 
" style="fill:none;stroke:#b0b0b0;stroke-linecap:square;stroke-width:0.8;"/>
     </g>
     <g id="line2d_12">
      <g>
       <use style="stroke:#000000;stroke-width:0.8;" x="449.536405" xlink:href="#mb8d19311e6" y="435.744"/>
      </g>
     </g>
     <g id="text_6">
      <!-- 250 -->
      <g transform="translate(439.992655 450.342437)scale(0.1 -0.1)">
       <use xlink:href="#DejaVuSans-32"/>
       <use x="63.623047" xlink:href="#DejaVuSans-35"/>
       <use x="127.246094" xlink:href="#DejaVuSans-30"/>
      </g>
     </g>
    </g>
    <g id="xtick_7">
     <g id="line2d_13">
      <path clip-path="url(#p493276317f)" d="M 517.778395 435.744 
L 517.778395 58.752 
" style="fill:none;stroke:#b0b0b0;stroke-linecap:square;stroke-width:0.8;"/>
     </g>
     <g id="line2d_14">
      <g>
       <use style="stroke:#000000;stroke-width:0.8;" x="517.778395" xlink:href="#mb8d19311e6" y="435.744"/>
      </g>
     </g>
     <g id="text_7">
      <!-- 300 -->
      <defs>
       <path d="M 40.578125 39.3125 
Q 47.65625 37.796875 51.625 33 
Q 55.609375 28.21875 55.609375 21.1875 
Q 55.609375 10.40625 48.1875 4.484375 
Q 40.765625 -1.421875 27.09375 -1.421875 
Q 22.515625 -1.421875 17.65625 -0.515625 
Q 12.796875 0.390625 7.625 2.203125 
L 7.625 11.71875 
Q 11.71875 9.328125 16.59375 8.109375 
Q 21.484375 6.890625 26.8125 6.890625 
Q 36.078125 6.890625 40.9375 10.546875 
Q 45.796875 14.203125 45.796875 21.1875 
Q 45.796875 27.640625 41.28125 31.265625 
Q 36.765625 34.90625 28.71875 34.90625 
L 20.21875 34.90625 
L 20.21875 43.015625 
L 29.109375 43.015625 
Q 36.375 43.015625 40.234375 45.921875 
Q 44.09375 48.828125 44.09375 54.296875 
Q 44.09375 59.90625 40.109375 62.90625 
Q 36.140625 65.921875 28.71875 65.921875 
Q 24.65625 65.921875 20.015625 65.03125 
Q 15.375 64.15625 9.8125 62.3125 
L 9.8125 71.09375 
Q 15.4375 72.65625 20.34375 73.4375 
Q 25.25 74.21875 29.59375 74.21875 
Q 40.828125 74.21875 47.359375 69.109375 
Q 53.90625 64.015625 53.90625 55.328125 
Q 53.90625 49.265625 50.4375 45.09375 
Q 46.96875 40.921875 40.578125 39.3125 
z
" id="DejaVuSans-33"/>
      </defs>
      <g transform="translate(508.234645 450.342437)scale(0.1 -0.1)">
       <use xlink:href="#DejaVuSans-33"/>
       <use x="63.623047" xlink:href="#DejaVuSans-30"/>
       <use x="127.246094" xlink:href="#DejaVuSans-30"/>
      </g>
     </g>
    </g>
    <g id="xtick_8">
     <g id="line2d_15">
      <path clip-path="url(#p493276317f)" d="M 586.020385 435.744 
L 586.020385 58.752 
" style="fill:none;stroke:#b0b0b0;stroke-linecap:square;stroke-width:0.8;"/>
     </g>
     <g id="line2d_16">
      <g>
       <use style="stroke:#000000;stroke-width:0.8;" x="586.020385" xlink:href="#mb8d19311e6" y="435.744"/>
      </g>
     </g>
     <g id="text_8">
      <!-- 350 -->
      <g transform="translate(576.476635 450.342437)scale(0.1 -0.1)">
       <use xlink:href="#DejaVuSans-33"/>
       <use x="63.623047" xlink:href="#DejaVuSans-35"/>
       <use x="127.246094" xlink:href="#DejaVuSans-30"/>
      </g>
     </g>
    </g>
    <g id="text_9">
     <!-- epoch -->
     <defs>
      <path d="M 56.203125 29.59375 
L 56.203125 25.203125 
L 14.890625 25.203125 
Q 15.484375 15.921875 20.484375 11.0625 
Q 25.484375 6.203125 34.421875 6.203125 
Q 39.59375 6.203125 44.453125 7.46875 
Q 49.3125 8.734375 54.109375 11.28125 
L 54.109375 2.78125 
Q 49.265625 0.734375 44.1875 -0.34375 
Q 39.109375 -1.421875 33.890625 -1.421875 
Q 20.796875 -1.421875 13.15625 6.1875 
Q 5.515625 13.8125 5.515625 26.8125 
Q 5.515625 40.234375 12.765625 48.109375 
Q 20.015625 56 32.328125 56 
Q 43.359375 56 49.78125 48.890625 
Q 56.203125 41.796875 56.203125 29.59375 
z
M 47.21875 32.234375 
Q 47.125 39.59375 43.09375 43.984375 
Q 39.0625 48.390625 32.421875 48.390625 
Q 24.90625 48.390625 20.390625 44.140625 
Q 15.875 39.890625 15.1875 32.171875 
z
" id="DejaVuSans-65"/>
      <path d="M 18.109375 8.203125 
L 18.109375 -20.796875 
L 9.078125 -20.796875 
L 9.078125 54.6875 
L 18.109375 54.6875 
L 18.109375 46.390625 
Q 20.953125 51.265625 25.265625 53.625 
Q 29.59375 56 35.59375 56 
Q 45.5625 56 51.78125 48.09375 
Q 58.015625 40.1875 58.015625 27.296875 
Q 58.015625 14.40625 51.78125 6.484375 
Q 45.5625 -1.421875 35.59375 -1.421875 
Q 29.59375 -1.421875 25.265625 0.953125 
Q 20.953125 3.328125 18.109375 8.203125 
z
M 48.6875 27.296875 
Q 48.6875 37.203125 44.609375 42.84375 
Q 40.53125 48.484375 33.40625 48.484375 
Q 26.265625 48.484375 22.1875 42.84375 
Q 18.109375 37.203125 18.109375 27.296875 
Q 18.109375 17.390625 22.1875 11.75 
Q 26.265625 6.109375 33.40625 6.109375 
Q 40.53125 6.109375 44.609375 11.75 
Q 48.6875 17.390625 48.6875 27.296875 
z
" id="DejaVuSans-70"/>
      <path d="M 30.609375 48.390625 
Q 23.390625 48.390625 19.1875 42.75 
Q 14.984375 37.109375 14.984375 27.296875 
Q 14.984375 17.484375 19.15625 11.84375 
Q 23.34375 6.203125 30.609375 6.203125 
Q 37.796875 6.203125 41.984375 11.859375 
Q 46.1875 17.53125 46.1875 27.296875 
Q 46.1875 37.015625 41.984375 42.703125 
Q 37.796875 48.390625 30.609375 48.390625 
z
M 30.609375 56 
Q 42.328125 56 49.015625 48.375 
Q 55.71875 40.765625 55.71875 27.296875 
Q 55.71875 13.875 49.015625 6.21875 
Q 42.328125 -1.421875 30.609375 -1.421875 
Q 18.84375 -1.421875 12.171875 6.21875 
Q 5.515625 13.875 5.515625 27.296875 
Q 5.515625 40.765625 12.171875 48.375 
Q 18.84375 56 30.609375 56 
z
" id="DejaVuSans-6f"/>
      <path d="M 48.78125 52.59375 
L 48.78125 44.1875 
Q 44.96875 46.296875 41.140625 47.34375 
Q 37.3125 48.390625 33.40625 48.390625 
Q 24.65625 48.390625 19.8125 42.84375 
Q 14.984375 37.3125 14.984375 27.296875 
Q 14.984375 17.28125 19.8125 11.734375 
Q 24.65625 6.203125 33.40625 6.203125 
Q 37.3125 6.203125 41.140625 7.25 
Q 44.96875 8.296875 48.78125 10.40625 
L 48.78125 2.09375 
Q 45.015625 0.34375 40.984375 -0.53125 
Q 36.96875 -1.421875 32.421875 -1.421875 
Q 20.0625 -1.421875 12.78125 6.34375 
Q 5.515625 14.109375 5.515625 27.296875 
Q 5.515625 40.671875 12.859375 48.328125 
Q 20.21875 56 33.015625 56 
Q 37.15625 56 41.109375 55.140625 
Q 45.0625 54.296875 48.78125 52.59375 
z
" id="DejaVuSans-63"/>
      <path d="M 54.890625 33.015625 
L 54.890625 0 
L 45.90625 0 
L 45.90625 32.71875 
Q 45.90625 40.484375 42.875 44.328125 
Q 39.84375 48.1875 33.796875 48.1875 
Q 26.515625 48.1875 22.3125 43.546875 
Q 18.109375 38.921875 18.109375 30.90625 
L 18.109375 0 
L 9.078125 0 
L 9.078125 75.984375 
L 18.109375 75.984375 
L 18.109375 46.1875 
Q 21.34375 51.125 25.703125 53.5625 
Q 30.078125 56 35.796875 56 
Q 45.21875 56 50.046875 50.171875 
Q 54.890625 44.34375 54.890625 33.015625 
z
" id="DejaVuSans-68"/>
     </defs>
     <g transform="translate(331.262875 464.020562)scale(0.1 -0.1)">
      <use xlink:href="#DejaVuSans-65"/>
      <use x="61.523438" xlink:href="#DejaVuSans-70"/>
      <use x="125" xlink:href="#DejaVuSans-6f"/>
      <use x="186.181641" xlink:href="#DejaVuSans-63"/>
      <use x="241.162109" xlink:href="#DejaVuSans-68"/>
     </g>
    </g>
   </g>
   <g id="matplotlib.axis_2">
    <g id="ytick_1">
     <g id="line2d_17">
      <path clip-path="url(#p493276317f)" d="M 84.51 430.854557 
L 608.472 430.854557 
" style="fill:none;stroke:#b0b0b0;stroke-linecap:square;stroke-width:0.8;"/>
     </g>
     <g id="line2d_18">
      <defs>
       <path d="M 0 0 
L -3.5 0 
" id="m3ccfd84c01" style="stroke:#000000;stroke-width:0.8;"/>
      </defs>
      <g>
       <use style="stroke:#000000;stroke-width:0.8;" x="84.51" xlink:href="#m3ccfd84c01" y="430.854557"/>
      </g>
     </g>
     <g id="text_10">
      <!-- 20 -->
      <g transform="translate(64.785 434.653776)scale(0.1 -0.1)">
       <use xlink:href="#DejaVuSans-32"/>
       <use x="63.623047" xlink:href="#DejaVuSans-30"/>
      </g>
     </g>
    </g>
    <g id="ytick_2">
     <g id="line2d_19">
      <path clip-path="url(#p493276317f)" d="M 84.51 376.857393 
L 608.472 376.857393 
" style="fill:none;stroke:#b0b0b0;stroke-linecap:square;stroke-width:0.8;"/>
     </g>
     <g id="line2d_20">
      <g>
       <use style="stroke:#000000;stroke-width:0.8;" x="84.51" xlink:href="#m3ccfd84c01" y="376.857393"/>
      </g>
     </g>
     <g id="text_11">
      <!-- 30 -->
      <g transform="translate(64.785 380.656612)scale(0.1 -0.1)">
       <use xlink:href="#DejaVuSans-33"/>
       <use x="63.623047" xlink:href="#DejaVuSans-30"/>
      </g>
     </g>
    </g>
    <g id="ytick_3">
     <g id="line2d_21">
      <path clip-path="url(#p493276317f)" d="M 84.51 322.860229 
L 608.472 322.860229 
" style="fill:none;stroke:#b0b0b0;stroke-linecap:square;stroke-width:0.8;"/>
     </g>
     <g id="line2d_22">
      <g>
       <use style="stroke:#000000;stroke-width:0.8;" x="84.51" xlink:href="#m3ccfd84c01" y="322.860229"/>
      </g>
     </g>
     <g id="text_12">
      <!-- 40 -->
      <defs>
       <path d="M 37.796875 64.3125 
L 12.890625 25.390625 
L 37.796875 25.390625 
z
M 35.203125 72.90625 
L 47.609375 72.90625 
L 47.609375 25.390625 
L 58.015625 25.390625 
L 58.015625 17.1875 
L 47.609375 17.1875 
L 47.609375 0 
L 37.796875 0 
L 37.796875 17.1875 
L 4.890625 17.1875 
L 4.890625 26.703125 
z
" id="DejaVuSans-34"/>
      </defs>
      <g transform="translate(64.785 326.659448)scale(0.1 -0.1)">
       <use xlink:href="#DejaVuSans-34"/>
       <use x="63.623047" xlink:href="#DejaVuSans-30"/>
      </g>
     </g>
    </g>
    <g id="ytick_4">
     <g id="line2d_23">
      <path clip-path="url(#p493276317f)" d="M 84.51 268.863065 
L 608.472 268.863065 
" style="fill:none;stroke:#b0b0b0;stroke-linecap:square;stroke-width:0.8;"/>
     </g>
     <g id="line2d_24">
      <g>
       <use style="stroke:#000000;stroke-width:0.8;" x="84.51" xlink:href="#m3ccfd84c01" y="268.863065"/>
      </g>
     </g>
     <g id="text_13">
      <!-- 50 -->
      <g transform="translate(64.785 272.662284)scale(0.1 -0.1)">
       <use xlink:href="#DejaVuSans-35"/>
       <use x="63.623047" xlink:href="#DejaVuSans-30"/>
      </g>
     </g>
    </g>
    <g id="ytick_5">
     <g id="line2d_25">
      <path clip-path="url(#p493276317f)" d="M 84.51 214.865901 
L 608.472 214.865901 
" style="fill:none;stroke:#b0b0b0;stroke-linecap:square;stroke-width:0.8;"/>
     </g>
     <g id="line2d_26">
      <g>
       <use style="stroke:#000000;stroke-width:0.8;" x="84.51" xlink:href="#m3ccfd84c01" y="214.865901"/>
      </g>
     </g>
     <g id="text_14">
      <!-- 60 -->
      <defs>
       <path d="M 33.015625 40.375 
Q 26.375 40.375 22.484375 35.828125 
Q 18.609375 31.296875 18.609375 23.390625 
Q 18.609375 15.53125 22.484375 10.953125 
Q 26.375 6.390625 33.015625 6.390625 
Q 39.65625 6.390625 43.53125 10.953125 
Q 47.40625 15.53125 47.40625 23.390625 
Q 47.40625 31.296875 43.53125 35.828125 
Q 39.65625 40.375 33.015625 40.375 
z
M 52.59375 71.296875 
L 52.59375 62.3125 
Q 48.875 64.0625 45.09375 64.984375 
Q 41.3125 65.921875 37.59375 65.921875 
Q 27.828125 65.921875 22.671875 59.328125 
Q 17.53125 52.734375 16.796875 39.40625 
Q 19.671875 43.65625 24.015625 45.921875 
Q 28.375 48.1875 33.59375 48.1875 
Q 44.578125 48.1875 50.953125 41.515625 
Q 57.328125 34.859375 57.328125 23.390625 
Q 57.328125 12.15625 50.6875 5.359375 
Q 44.046875 -1.421875 33.015625 -1.421875 
Q 20.359375 -1.421875 13.671875 8.265625 
Q 6.984375 17.96875 6.984375 36.375 
Q 6.984375 53.65625 15.1875 63.9375 
Q 23.390625 74.21875 37.203125 74.21875 
Q 40.921875 74.21875 44.703125 73.484375 
Q 48.484375 72.75 52.59375 71.296875 
z
" id="DejaVuSans-36"/>
      </defs>
      <g transform="translate(64.785 218.665119)scale(0.1 -0.1)">
       <use xlink:href="#DejaVuSans-36"/>
       <use x="63.623047" xlink:href="#DejaVuSans-30"/>
      </g>
     </g>
    </g>
    <g id="ytick_6">
     <g id="line2d_27">
      <path clip-path="url(#p493276317f)" d="M 84.51 160.868737 
L 608.472 160.868737 
" style="fill:none;stroke:#b0b0b0;stroke-linecap:square;stroke-width:0.8;"/>
     </g>
     <g id="line2d_28">
      <g>
       <use style="stroke:#000000;stroke-width:0.8;" x="84.51" xlink:href="#m3ccfd84c01" y="160.868737"/>
      </g>
     </g>
     <g id="text_15">
      <!-- 70 -->
      <defs>
       <path d="M 8.203125 72.90625 
L 55.078125 72.90625 
L 55.078125 68.703125 
L 28.609375 0 
L 18.3125 0 
L 43.21875 64.59375 
L 8.203125 64.59375 
z
" id="DejaVuSans-37"/>
      </defs>
      <g transform="translate(64.785 164.667955)scale(0.1 -0.1)">
       <use xlink:href="#DejaVuSans-37"/>
       <use x="63.623047" xlink:href="#DejaVuSans-30"/>
      </g>
     </g>
    </g>
    <g id="ytick_7">
     <g id="line2d_29">
      <path clip-path="url(#p493276317f)" d="M 84.51 106.871573 
L 608.472 106.871573 
" style="fill:none;stroke:#b0b0b0;stroke-linecap:square;stroke-width:0.8;"/>
     </g>
     <g id="line2d_30">
      <g>
       <use style="stroke:#000000;stroke-width:0.8;" x="84.51" xlink:href="#m3ccfd84c01" y="106.871573"/>
      </g>
     </g>
     <g id="text_16">
      <!-- 80 -->
      <defs>
       <path d="M 31.78125 34.625 
Q 24.75 34.625 20.71875 30.859375 
Q 16.703125 27.09375 16.703125 20.515625 
Q 16.703125 13.921875 20.71875 10.15625 
Q 24.75 6.390625 31.78125 6.390625 
Q 38.8125 6.390625 42.859375 10.171875 
Q 46.921875 13.96875 46.921875 20.515625 
Q 46.921875 27.09375 42.890625 30.859375 
Q 38.875 34.625 31.78125 34.625 
z
M 21.921875 38.8125 
Q 15.578125 40.375 12.03125 44.71875 
Q 8.5 49.078125 8.5 55.328125 
Q 8.5 64.0625 14.71875 69.140625 
Q 20.953125 74.21875 31.78125 74.21875 
Q 42.671875 74.21875 48.875 69.140625 
Q 55.078125 64.0625 55.078125 55.328125 
Q 55.078125 49.078125 51.53125 44.71875 
Q 48 40.375 41.703125 38.8125 
Q 48.828125 37.15625 52.796875 32.3125 
Q 56.78125 27.484375 56.78125 20.515625 
Q 56.78125 9.90625 50.3125 4.234375 
Q 43.84375 -1.421875 31.78125 -1.421875 
Q 19.734375 -1.421875 13.25 4.234375 
Q 6.78125 9.90625 6.78125 20.515625 
Q 6.78125 27.484375 10.78125 32.3125 
Q 14.796875 37.15625 21.921875 38.8125 
z
M 18.3125 54.390625 
Q 18.3125 48.734375 21.84375 45.5625 
Q 25.390625 42.390625 31.78125 42.390625 
Q 38.140625 42.390625 41.71875 45.5625 
Q 45.3125 48.734375 45.3125 54.390625 
Q 45.3125 60.0625 41.71875 63.234375 
Q 38.140625 66.40625 31.78125 66.40625 
Q 25.390625 66.40625 21.84375 63.234375 
Q 18.3125 60.0625 18.3125 54.390625 
z
" id="DejaVuSans-38"/>
      </defs>
      <g transform="translate(64.785 110.670791)scale(0.1 -0.1)">
       <use xlink:href="#DejaVuSans-38"/>
       <use x="63.623047" xlink:href="#DejaVuSans-30"/>
      </g>
     </g>
    </g>
    <g id="text_17">
     <!-- error (%) -->
     <defs>
      <path d="M 41.109375 46.296875 
Q 39.59375 47.171875 37.8125 47.578125 
Q 36.03125 48 33.890625 48 
Q 26.265625 48 22.1875 43.046875 
Q 18.109375 38.09375 18.109375 28.8125 
L 18.109375 0 
L 9.078125 0 
L 9.078125 54.6875 
L 18.109375 54.6875 
L 18.109375 46.1875 
Q 20.953125 51.171875 25.484375 53.578125 
Q 30.03125 56 36.53125 56 
Q 37.453125 56 38.578125 55.875 
Q 39.703125 55.765625 41.0625 55.515625 
z
" id="DejaVuSans-72"/>
      <path id="DejaVuSans-20"/>
      <path d="M 31 75.875 
Q 24.46875 64.65625 21.28125 53.65625 
Q 18.109375 42.671875 18.109375 31.390625 
Q 18.109375 20.125 21.3125 9.0625 
Q 24.515625 -2 31 -13.1875 
L 23.1875 -13.1875 
Q 15.875 -1.703125 12.234375 9.375 
Q 8.59375 20.453125 8.59375 31.390625 
Q 8.59375 42.28125 12.203125 53.3125 
Q 15.828125 64.359375 23.1875 75.875 
z
" id="DejaVuSans-28"/>
      <path d="M 72.703125 32.078125 
Q 68.453125 32.078125 66.03125 28.46875 
Q 63.625 24.859375 63.625 18.40625 
Q 63.625 12.0625 66.03125 8.421875 
Q 68.453125 4.78125 72.703125 4.78125 
Q 76.859375 4.78125 79.265625 8.421875 
Q 81.6875 12.0625 81.6875 18.40625 
Q 81.6875 24.8125 79.265625 28.4375 
Q 76.859375 32.078125 72.703125 32.078125 
z
M 72.703125 38.28125 
Q 80.421875 38.28125 84.953125 32.90625 
Q 89.5 27.546875 89.5 18.40625 
Q 89.5 9.28125 84.9375 3.921875 
Q 80.375 -1.421875 72.703125 -1.421875 
Q 64.890625 -1.421875 60.34375 3.921875 
Q 55.8125 9.28125 55.8125 18.40625 
Q 55.8125 27.59375 60.375 32.9375 
Q 64.9375 38.28125 72.703125 38.28125 
z
M 22.3125 68.015625 
Q 18.109375 68.015625 15.6875 64.375 
Q 13.28125 60.75 13.28125 54.390625 
Q 13.28125 47.953125 15.671875 44.328125 
Q 18.0625 40.71875 22.3125 40.71875 
Q 26.5625 40.71875 28.96875 44.328125 
Q 31.390625 47.953125 31.390625 54.390625 
Q 31.390625 60.6875 28.953125 64.34375 
Q 26.515625 68.015625 22.3125 68.015625 
z
M 66.40625 74.21875 
L 74.21875 74.21875 
L 28.609375 -1.421875 
L 20.796875 -1.421875 
z
M 22.3125 74.21875 
Q 30.03125 74.21875 34.609375 68.875 
Q 39.203125 63.53125 39.203125 54.390625 
Q 39.203125 45.171875 34.640625 39.84375 
Q 30.078125 34.515625 22.3125 34.515625 
Q 14.546875 34.515625 10.03125 39.859375 
Q 5.515625 45.21875 5.515625 54.390625 
Q 5.515625 63.484375 10.046875 68.84375 
Q 14.59375 74.21875 22.3125 74.21875 
z
" id="DejaVuSans-25"/>
      <path d="M 8.015625 75.875 
L 15.828125 75.875 
Q 23.140625 64.359375 26.78125 53.3125 
Q 30.421875 42.28125 30.421875 31.390625 
Q 30.421875 20.453125 26.78125 9.375 
Q 23.140625 -1.703125 15.828125 -13.1875 
L 8.015625 -13.1875 
Q 14.5 -2 17.703125 9.0625 
Q 20.90625 20.125 20.90625 31.390625 
Q 20.90625 42.671875 17.703125 53.65625 
Q 14.5 64.65625 8.015625 75.875 
z
" id="DejaVuSans-29"/>
     </defs>
     <g transform="translate(58.705312 269.789406)rotate(-90)scale(0.1 -0.1)">
      <use xlink:href="#DejaVuSans-65"/>
      <use x="61.523438" xlink:href="#DejaVuSans-72"/>
      <use x="102.621094" xlink:href="#DejaVuSans-72"/>
      <use x="143.703125" xlink:href="#DejaVuSans-6f"/>
      <use x="204.884766" xlink:href="#DejaVuSans-72"/>
      <use x="245.998047" xlink:href="#DejaVuSans-20"/>
      <use x="277.785156" xlink:href="#DejaVuSans-28"/>
      <use x="316.798828" xlink:href="#DejaVuSans-25"/>
      <use x="411.818359" xlink:href="#DejaVuSans-29"/>
     </g>
    </g>
   </g>
   <g id="line2d_31">
    <path clip-path="url(#p493276317f)" d="M 108.326455 75.888 
L 109.691294 96.860499 
L 111.056134 103.167367 
L 112.420974 116.234681 
L 115.150654 144.637189 
L 116.515493 150.954857 
L 117.880333 164.270558 
L 119.245173 175.588364 
L 120.610013 190.394386 
L 121.974853 201.820186 
L 123.339692 209.55258 
L 124.704532 230.471081 
L 126.069372 243.408802 
L 127.434212 247.490987 
L 128.799052 259.683547 
L 131.528731 272.146092 
L 132.893571 274.035993 
L 134.258411 277.14623 
L 135.623251 281.120421 
L 136.98809 282.416353 
L 138.35293 282.826731 
L 139.71777 286.142157 
L 141.08261 285.094612 
L 142.44745 288.960809 
L 143.812289 294.533317 
L 145.177129 294.220133 
L 146.541969 296.639206 
L 147.906809 297.211576 
L 149.271649 302.233312 
L 150.636488 301.574547 
L 152.001328 299.80344 
L 153.366168 302.503298 
L 154.731008 303.270058 
L 156.095848 306.477489 
L 157.460687 305.570337 
L 158.825527 306.83387 
L 160.190367 305.797125 
L 161.555207 308.054206 
L 162.920047 308.237797 
L 164.284886 307.546633 
L 165.649726 312.633166 
L 167.014566 310.095299 
L 168.379406 311.920403 
L 169.744246 311.499225 
L 171.109085 315.743403 
L 172.473925 314.231482 
L 173.838765 311.672016 
L 175.203605 313.8967 
L 176.568445 313.302731 
L 177.933284 316.855744 
L 179.298124 315.181832 
L 180.662964 317.611704 
L 182.027804 316.142982 
L 183.392644 317.255323 
L 184.757483 315.365422 
L 186.122323 318.097679 
L 187.487163 321.143119 
L 188.852003 317.773696 
L 190.216843 317.622504 
L 191.581682 319.253218 
L 192.946522 319.339614 
L 194.311362 320.35476 
L 195.676202 318.918436 
L 197.041042 317.6981 
L 198.405881 319.156023 
L 199.770721 319.512405 
L 201.135561 319.102026 
L 203.865241 322.633441 
L 205.23008 321.229514 
L 206.59492 319.318015 
L 207.95976 321.974675 
L 209.3246 321.261913 
L 210.68944 321.672291 
L 212.054279 321.002726 
L 213.419119 325.290101 
L 214.783959 321.69389 
L 216.148799 322.536246 
L 217.513639 319.588001 
L 218.878479 321.099921 
L 220.243318 321.812684 
L 221.608158 322.925025 
L 222.972998 322.957424 
L 224.337838 324.728531 
L 225.702678 322.536246 
L 227.067517 323.259808 
L 228.432357 326.143256 
L 229.797197 323.950971 
L 231.162037 322.82783 
L 232.526877 323.151813 
L 233.891716 324.598937 
L 235.256556 323.994169 
L 236.621396 322.968223 
L 237.986236 324.16696 
L 239.351076 323.540593 
L 240.715915 323.367802 
L 242.080755 322.320257 
L 243.445595 322.158266 
L 244.810435 321.715489 
L 246.175275 323.540593 
L 247.540114 324.393748 
L 248.904954 323.475796 
L 250.269794 324.026568 
L 251.634634 322.892627 
L 252.999474 324.307353 
L 254.364313 324.091364 
L 255.729153 324.004969 
L 257.093993 325.473692 
L 258.458833 324.609737 
L 259.823673 324.55574 
L 261.188512 324.16696 
L 262.553352 323.454198 
L 263.918192 324.652935 
L 265.283032 322.46065 
L 266.647872 325.268502 
L 268.012711 323.702585 
L 269.377551 325.765276 
L 270.742391 323.78898 
L 272.107231 324.966118 
L 273.472071 325.063313 
L 274.83691 324.296553 
L 276.20175 325.041714 
L 277.56659 323.540593 
L 278.93143 325.009316 
L 280.29627 327.611979 
L 281.661109 325.592485 
L 283.025949 325.279302 
L 284.390789 326.391643 
L 285.755629 326.402443 
L 287.120469 327.514784 
L 288.485308 326.240451 
L 289.850148 326.920816 
L 291.214988 325.581686 
L 292.579828 325.333299 
L 293.944668 324.307353 
L 295.309507 324.92292 
L 296.674347 327.2232 
L 299.404027 324.998516 
L 300.768867 328.205948 
L 302.133706 324.836525 
L 303.498546 327.039609 
L 304.863386 328.249146 
L 306.228226 328.065555 
L 307.593066 324.17776 
L 308.957905 328.335541 
L 310.322745 327.266397 
L 311.687585 326.413242 
L 313.052425 327.698375 
L 314.417265 327.665976 
L 315.782104 328.184349 
L 317.146944 325.959666 
L 318.511784 327.341993 
L 319.876624 326.305248 
L 322.606303 330.344236 
L 323.971143 327.072008 
L 325.335983 327.709174 
L 326.700823 325.862471 
L 328.065663 330.193044 
L 329.430502 328.119553 
L 330.795342 327.644378 
L 332.160182 330.797812 
L 333.525022 328.454335 
L 334.889862 327.02881 
L 336.254701 329.987854 
L 337.619541 328.475934 
L 338.984381 329.50188 
L 340.349221 327.093606 
L 341.714061 330.689818 
L 343.0789 331.294586 
L 344.44374 330.182244 
L 345.80858 331.283786 
L 347.17342 330.409032 
L 348.53826 328.886312 
L 349.9031 330.214643 
L 351.267939 329.30749 
L 352.632779 329.361487 
L 353.997619 328.810716 
L 355.362459 329.372287 
L 356.727299 329.1131 
L 358.092138 332.061346 
L 359.456978 330.614222 
L 360.821818 331.640168 
L 362.186658 329.858261 
L 363.551498 330.149846 
L 364.916337 333.227684 
L 366.281177 330.862608 
L 369.010857 330.160645 
L 370.375697 329.264292 
L 371.740536 330.279439 
L 373.105376 332.244936 
L 374.470216 331.359382 
L 375.835056 332.309732 
L 377.199896 331.672566 
L 378.564735 329.350688 
L 379.929575 332.36373 
L 381.294415 374.027941 
L 382.659255 378.315316 
L 384.024095 379.492454 
L 385.388934 378.714895 
L 386.753774 379.859635 
L 388.118614 379.784039 
L 389.483454 381.317559 
L 390.848294 380.313211 
L 392.213133 383.326253 
L 394.942813 381.652341 
L 396.307653 381.133968 
L 400.402172 384.244205 
L 401.767012 384.90297 
L 403.131852 383.931021 
L 404.496692 383.38025 
L 405.861531 384.956967 
L 407.226371 385.583334 
L 408.591211 385.367346 
L 409.956051 386.760473 
L 411.320891 387.084456 
L 412.68573 386.598481 
L 414.05057 386.857668 
L 415.41541 387.786419 
L 416.78025 387.602828 
L 418.14509 387.538032 
L 419.509929 388.121201 
L 420.874769 388.866362 
L 422.239609 387.440837 
L 423.604449 389.892308 
L 424.969289 389.082351 
L 426.334128 389.935506 
L 427.698968 390.0435 
L 429.063808 389.114749 
L 430.428648 390.021901 
L 431.793488 391.857805 
L 433.158327 390.756263 
L 434.523167 390.896655 
L 437.252847 391.598619 
L 438.617687 390.140695 
L 439.982526 392.430175 
L 441.347366 391.901003 
L 442.712206 393.08894 
L 444.077046 392.90535 
L 445.441886 393.639711 
L 446.806725 393.056542 
L 448.171565 393.132138 
L 449.536405 407.657375 
L 450.901245 409.536476 
L 452.266085 409.482479 
L 453.630924 409.936055 
L 454.995764 410.692016 
L 456.360604 409.504078 
L 457.725444 410.249239 
L 459.090284 409.288089 
L 460.455123 410.249239 
L 461.819963 409.66607 
L 463.184803 409.493279 
L 465.914483 410.940403 
L 467.279322 411.134793 
L 468.644162 410.627219 
L 470.009002 410.60562 
L 471.373842 410.929603 
L 472.738682 410.508425 
L 474.103521 412.106741 
L 475.468361 410.22764 
L 476.833201 411.145592 
L 479.562881 410.497626 
L 480.927721 411.912352 
L 483.6574 411.113194 
L 485.02224 411.469575 
L 486.38708 412.430724 
L 487.75192 410.476027 
L 489.116759 412.203936 
L 490.481599 413.165086 
L 491.846439 412.430724 
L 493.211279 412.063544 
L 494.576119 411.523572 
L 495.940958 412.13914 
L 497.305798 413.003094 
L 498.670638 411.771959 
L 500.035478 412.225535 
L 501.400318 413.07869 
L 502.765157 412.959897 
L 504.129997 413.46747 
L 505.494837 412.171538 
L 506.859677 413.424272 
L 508.224517 412.527919 
L 509.589356 412.679111 
L 510.954196 413.802252 
L 512.319036 413.435072 
L 513.683876 413.435072 
L 515.048716 414.623009 
L 516.413555 412.851902 
L 517.778395 416.51291 
L 519.143235 417.247271 
L 520.508075 417.830441 
L 521.872915 416.610105 
L 523.237754 418.294816 
L 524.602594 417.333667 
L 525.967434 415.810947 
L 527.332274 417.258071 
L 528.697114 415.713752 
L 530.061953 416.793695 
L 531.426793 416.815294 
L 532.791633 418.165223 
L 534.156473 416.826094 
L 535.521313 416.210526 
L 536.886152 417.020483 
L 538.250992 417.538856 
L 539.615832 416.782896 
L 540.980672 416.340119 
L 542.345512 417.862839 
L 543.710351 416.51291 
L 545.075191 417.366065 
L 546.440031 417.26887 
L 547.804871 416.502111 
L 549.169711 416.944887 
L 550.53455 416.739698 
L 551.89939 417.27967 
L 553.26423 416.988085 
L 554.62907 417.398464 
L 555.99391 417.614452 
L 557.358749 417.538856 
L 558.723589 416.739698 
L 560.088429 416.804495 
L 561.453269 417.236472 
L 562.818109 416.620904 
L 564.182948 416.642503 
L 565.547788 416.458913 
L 566.912628 417.27967 
L 568.277468 417.65765 
L 569.642308 416.448113 
L 571.007147 416.588506 
L 572.371987 416.869291 
L 573.736827 416.815294 
L 575.101667 417.808842 
L 576.466507 416.90169 
L 577.831346 416.51291 
L 579.196186 418.608 
L 580.561026 417.290469 
L 581.925866 417.484859 
L 583.290706 416.620904 
L 584.655545 417.754845 
L 584.655545 417.754845 
" style="fill:none;stroke:#1f77b4;stroke-dasharray:5.55,2.4;stroke-dashoffset:0;stroke-width:1.5;"/>
   </g>
   <g id="line2d_32">
    <path clip-path="url(#p493276317f)" d="M 108.326455 103.793734 
L 109.691294 109.193451 
L 111.056134 110.705371 
L 112.420974 122.368759 
L 113.785814 132.898206 
L 115.150654 146.559488 
L 116.515493 164.594541 
L 117.880333 180.307716 
L 119.245173 192.889055 
L 120.610013 191.701117 
L 121.974853 206.49634 
L 123.339692 177.283875 
L 124.704532 200.610649 
L 126.069372 246.130259 
L 127.434212 244.564341 
L 128.799052 217.295773 
L 130.163891 270.051002 
L 131.528731 264.489294 
L 132.893571 238.030684 
L 134.258411 292.729811 
L 135.623251 267.675127 
L 136.98809 283.496296 
L 138.35293 297.31957 
L 139.71777 288.518032 
L 141.08261 299.317465 
L 142.44745 278.366566 
L 143.812289 314.27468 
L 145.177129 282.146367 
L 146.541969 292.243837 
L 147.906809 310.65687 
L 149.271649 294.781703 
L 150.636488 314.922646 
L 152.001328 272.156892 
L 153.366168 301.045375 
L 154.731008 318.054481 
L 156.095848 309.630924 
L 157.460687 314.544666 
L 158.825527 289.435984 
L 160.190367 290.677919 
L 161.555207 308.658975 
L 162.920047 317.190527 
L 164.284886 332.74171 
L 165.649726 272.642866 
L 167.014566 320.970328 
L 168.379406 294.889698 
L 169.744246 314.922646 
L 171.109085 285.440194 
L 172.473925 310.548875 
L 173.838765 277.826594 
L 175.203605 314.922646 
L 176.568445 316.920541 
L 179.298124 282.84833 
L 180.662964 312.006799 
L 182.027804 297.049584 
L 183.392644 301.31536 
L 184.757483 312.654765 
L 186.122323 299.749443 
L 187.487163 329.987854 
L 188.852003 320.052376 
L 190.216843 320.376359 
L 191.581682 312.006799 
L 192.946522 319.620399 
L 194.311362 320.538351 
L 195.676202 308.820966 
L 197.041042 314.004694 
L 198.405881 334.469619 
L 199.770721 274.748756 
L 201.135561 321.726288 
L 202.500401 306.337097 
L 203.865241 331.067798 
L 205.23008 305.149159 
L 206.59492 273.236835 
L 207.95976 287.870066 
L 210.68944 313.626714 
L 212.054279 286.358146 
L 213.419119 304.663184 
L 214.783959 305.527139 
L 216.148799 318.486458 
L 217.513639 310.224892 
L 218.878479 298.669499 
L 220.243318 310.602873 
L 221.608158 290.677919 
L 222.972998 326.208053 
L 224.337838 322.26626 
L 225.702678 319.134424 
L 227.067517 304.069216 
L 228.432357 311.628819 
L 229.797197 300.829386 
L 232.526877 289.165998 
L 233.891716 340.517301 
L 235.256556 320.322362 
L 236.621396 340.409307 
L 237.986236 317.406515 
L 239.351076 334.469619 
L 240.715915 336.791497 
L 242.080755 313.464722 
L 243.445595 279.392512 
L 244.810435 319.134424 
L 246.175275 287.978061 
L 247.540114 326.26205 
L 248.904954 330.851809 
L 250.269794 311.466827 
L 251.634634 335.387571 
L 252.999474 328.313942 
L 254.364313 311.952802 
L 255.729153 279.500506 
L 257.093993 315.300626 
L 258.458833 329.933857 
L 259.823673 346.618981 
L 261.188512 313.788705 
L 262.553352 324.156161 
L 263.918192 321.240314 
L 265.283032 310.332887 
L 266.647872 331.445778 
L 268.012711 287.060109 
L 269.377551 311.520824 
L 270.742391 329.771866 
L 272.107231 323.184212 
L 273.472071 336.035537 
L 274.83691 318.540456 
L 276.20175 334.685608 
L 277.56659 335.819548 
L 278.93143 319.134424 
L 280.29627 339.59935 
L 281.661109 321.5103 
L 283.025949 325.668081 
L 284.390789 313.032745 
L 285.755629 310.764864 
L 287.120469 340.085324 
L 288.485308 314.760654 
L 289.850148 336.35952 
L 291.214988 321.024325 
L 292.579828 321.88828 
L 293.944668 337.331469 
L 295.309507 330.959803 
L 296.674347 315.40862 
L 298.039187 330.959803 
L 299.404027 261.411456 
L 300.768867 301.909329 
L 302.133706 322.320257 
L 303.498546 339.113375 
L 304.863386 326.154056 
L 306.228226 334.25363 
L 307.593066 340.301313 
L 308.957905 298.291519 
L 310.322745 330.797812 
L 311.687585 333.87565 
L 314.417265 326.100059 
L 315.782104 328.799917 
L 317.146944 313.356728 
L 318.511784 323.994169 
L 319.876624 315.462617 
L 321.241464 317.406515 
L 322.606303 337.763446 
L 323.971143 335.279576 
L 325.335983 301.31536 
L 326.700823 337.439463 
L 328.065663 284.414248 
L 329.430502 336.7375 
L 330.795342 305.041165 
L 332.160182 340.787287 
L 333.525022 306.013114 
L 334.889862 323.508195 
L 336.254701 319.78239 
L 337.619541 340.679293 
L 338.984381 298.669499 
L 340.349221 323.940172 
L 341.714061 337.817443 
L 343.0789 336.035537 
L 344.44374 329.717869 
L 345.80858 336.791497 
L 347.17342 300.5594 
L 348.53826 340.73329 
L 349.9031 328.097954 
L 351.267939 285.602186 
L 352.632779 338.627401 
L 353.997619 342.083219 
L 355.362459 338.951384 
L 356.727299 340.35531 
L 358.092138 343.163162 
L 359.456978 304.069216 
L 360.821818 338.195423 
L 362.186658 292.56782 
L 363.551498 325.830073 
L 364.916337 324.156161 
L 366.281177 329.285891 
L 367.646017 336.953489 
L 369.010857 321.564297 
L 370.375697 339.167372 
L 371.740536 329.447883 
L 373.105376 323.724183 
L 374.470216 348.886862 
L 375.835056 339.761341 
L 377.199896 337.331469 
L 378.564735 317.406515 
L 379.929575 322.158266 
L 381.294415 370.215742 
L 382.659255 370.539725 
L 384.024095 374.157535 
L 385.388934 369.945756 
L 386.753774 371.727662 
L 388.118614 369.67577 
L 389.483454 368.379838 
L 390.848294 377.019384 
L 392.213133 375.885444 
L 393.577973 371.133693 
L 394.942813 368.055855 
L 396.307653 373.995543 
L 397.672493 375.615458 
L 399.037332 370.161744 
L 400.402172 383.499044 
L 401.767012 372.645614 
L 403.131852 384.309001 
L 404.496692 381.501149 
L 405.861531 374.535515 
L 407.226371 375.561461 
L 408.591211 380.043225 
L 409.956051 382.419101 
L 411.320891 374.42752 
L 412.68573 382.419101 
L 414.05057 379.77324 
L 415.41541 374.643509 
L 416.78025 375.615458 
L 418.14509 380.5292 
L 419.509929 366.651929 
L 420.874769 387.00886 
L 422.239609 366.651929 
L 423.604449 385.874919 
L 424.969289 372.807605 
L 426.334128 377.127379 
L 427.698968 373.941546 
L 429.063808 375.291475 
L 430.428648 385.064962 
L 431.793488 380.691191 
L 433.158327 385.334948 
L 434.523167 380.15122 
L 435.888007 385.712928 
L 437.252847 377.019384 
L 438.617687 385.28095 
L 439.982526 384.848973 
L 441.347366 380.745189 
L 442.712206 379.77324 
L 444.077046 383.229058 
L 445.441886 381.933126 
L 446.806725 375.345472 
L 448.171565 382.635089 
L 449.536405 397.916287 
L 450.901245 395.270426 
L 452.266085 398.456258 
L 453.630924 399.860185 
L 454.995764 397.700298 
L 456.360604 396.51236 
L 457.725444 398.564253 
L 459.090284 396.13438 
L 460.455123 398.024281 
L 461.819963 398.294267 
L 463.184803 397.214324 
L 464.549643 397.430312 
L 465.914483 395.864395 
L 467.279322 395.702403 
L 468.644162 396.080383 
L 470.009002 394.406471 
L 471.373842 395.432417 
L 472.738682 398.61825 
L 474.103521 393.974494 
L 475.468361 395.37842 
L 476.833201 394.784451 
L 478.198041 399.428207 
L 479.562881 397.106329 
L 480.927721 397.808292 
L 482.29256 397.592304 
L 483.6574 398.564253 
L 485.02224 399.806187 
L 486.38708 398.348264 
L 487.75192 398.780241 
L 489.116759 395.00044 
L 490.481599 397.268321 
L 491.846439 399.212219 
L 493.211279 397.754295 
L 494.576119 397.916287 
L 495.940958 392.786556 
L 497.305798 397.430312 
L 498.670638 397.214324 
L 500.035478 397.538307 
L 501.400318 397.160326 
L 502.765157 397.646301 
L 504.129997 399.266216 
L 505.494837 398.672247 
L 506.859677 401.696088 
L 508.224517 397.430312 
L 509.589356 398.726244 
L 510.954196 398.24027 
L 512.319036 398.726244 
L 513.683876 399.968179 
L 515.048716 399.266216 
L 516.413555 397.538307 
L 517.778395 398.99623 
L 519.143235 402.128066 
L 520.508075 400.562148 
L 521.872915 400.616145 
L 523.237754 402.020071 
L 524.602594 399.698193 
L 525.967434 399.75219 
L 527.332274 403.585989 
L 528.697114 401.966074 
L 530.061953 401.318108 
L 531.426793 402.452049 
L 532.791633 401.156117 
L 534.156473 401.804083 
L 535.521313 400.13017 
L 536.886152 399.806187 
L 538.250992 404.989915 
L 539.615832 401.156117 
L 540.980672 403.423997 
L 542.345512 400.238165 
L 543.710351 400.886131 
L 545.075191 398.24027 
L 546.440031 401.966074 
L 547.804871 403.316003 
L 549.169711 402.020071 
L 550.53455 398.99623 
L 551.89939 402.020071 
L 553.26423 401.426102 
L 554.62907 399.536202 
L 555.99391 402.99202 
L 557.358749 401.048122 
L 560.088429 400.238165 
L 561.453269 402.344054 
L 562.818109 399.914182 
L 564.182948 401.264111 
L 565.547788 401.912077 
L 566.912628 399.914182 
L 568.277468 400.238165 
L 569.642308 402.182063 
L 571.007147 398.942233 
L 572.371987 401.750085 
L 573.736827 400.832134 
L 575.101667 399.320213 
L 576.466507 401.85808 
L 577.831346 401.912077 
L 579.196186 398.078278 
L 580.561026 404.179958 
L 581.925866 399.212219 
L 583.290706 402.560043 
L 584.655545 401.534097 
L 584.655545 401.534097 
" style="fill:none;stroke:#ff7f0e;stroke-linecap:square;stroke-width:1.5;"/>
   </g>
   <g id="patch_3">
    <path d="M 84.51 435.744 
L 84.51 58.752 
" style="fill:none;stroke:#000000;stroke-linecap:square;stroke-linejoin:miter;stroke-width:0.8;"/>
   </g>
   <g id="patch_4">
    <path d="M 608.472 435.744 
L 608.472 58.752 
" style="fill:none;stroke:#000000;stroke-linecap:square;stroke-linejoin:miter;stroke-width:0.8;"/>
   </g>
   <g id="patch_5">
    <path d="M 84.51 435.744 
L 608.472 435.744 
" style="fill:none;stroke:#000000;stroke-linecap:square;stroke-linejoin:miter;stroke-width:0.8;"/>
   </g>
   <g id="patch_6">
    <path d="M 84.51 58.752 
L 608.472 58.752 
" style="fill:none;stroke:#000000;stroke-linecap:square;stroke-linejoin:miter;stroke-width:0.8;"/>
   </g>
   <g id="text_18">
    <!-- Model ALL-CNN-C -->
    <defs>
     <path d="M 9.8125 72.90625 
L 24.515625 72.90625 
L 43.109375 23.296875 
L 61.8125 72.90625 
L 76.515625 72.90625 
L 76.515625 0 
L 66.890625 0 
L 66.890625 64.015625 
L 48.09375 14.015625 
L 38.1875 14.015625 
L 19.390625 64.015625 
L 19.390625 0 
L 9.8125 0 
z
" id="DejaVuSans-4d"/>
     <path d="M 45.40625 46.390625 
L 45.40625 75.984375 
L 54.390625 75.984375 
L 54.390625 0 
L 45.40625 0 
L 45.40625 8.203125 
Q 42.578125 3.328125 38.25 0.953125 
Q 33.9375 -1.421875 27.875 -1.421875 
Q 17.96875 -1.421875 11.734375 6.484375 
Q 5.515625 14.40625 5.515625 27.296875 
Q 5.515625 40.1875 11.734375 48.09375 
Q 17.96875 56 27.875 56 
Q 33.9375 56 38.25 53.625 
Q 42.578125 51.265625 45.40625 46.390625 
z
M 14.796875 27.296875 
Q 14.796875 17.390625 18.875 11.75 
Q 22.953125 6.109375 30.078125 6.109375 
Q 37.203125 6.109375 41.296875 11.75 
Q 45.40625 17.390625 45.40625 27.296875 
Q 45.40625 37.203125 41.296875 42.84375 
Q 37.203125 48.484375 30.078125 48.484375 
Q 22.953125 48.484375 18.875 42.84375 
Q 14.796875 37.203125 14.796875 27.296875 
z
" id="DejaVuSans-64"/>
     <path d="M 9.421875 75.984375 
L 18.40625 75.984375 
L 18.40625 0 
L 9.421875 0 
z
" id="DejaVuSans-6c"/>
     <path d="M 34.1875 63.1875 
L 20.796875 26.90625 
L 47.609375 26.90625 
z
M 28.609375 72.90625 
L 39.796875 72.90625 
L 67.578125 0 
L 57.328125 0 
L 50.6875 18.703125 
L 17.828125 18.703125 
L 11.1875 0 
L 0.78125 0 
z
" id="DejaVuSans-41"/>
     <path d="M 9.8125 72.90625 
L 19.671875 72.90625 
L 19.671875 8.296875 
L 55.171875 8.296875 
L 55.171875 0 
L 9.8125 0 
z
" id="DejaVuSans-4c"/>
     <path d="M 4.890625 31.390625 
L 31.203125 31.390625 
L 31.203125 23.390625 
L 4.890625 23.390625 
z
" id="DejaVuSans-2d"/>
     <path d="M 64.40625 67.28125 
L 64.40625 56.890625 
Q 59.421875 61.53125 53.78125 63.8125 
Q 48.140625 66.109375 41.796875 66.109375 
Q 29.296875 66.109375 22.65625 58.46875 
Q 16.015625 50.828125 16.015625 36.375 
Q 16.015625 21.96875 22.65625 14.328125 
Q 29.296875 6.6875 41.796875 6.6875 
Q 48.140625 6.6875 53.78125 8.984375 
Q 59.421875 11.28125 64.40625 15.921875 
L 64.40625 5.609375 
Q 59.234375 2.09375 53.4375 0.328125 
Q 47.65625 -1.421875 41.21875 -1.421875 
Q 24.65625 -1.421875 15.125 8.703125 
Q 5.609375 18.84375 5.609375 36.375 
Q 5.609375 53.953125 15.125 64.078125 
Q 24.65625 74.21875 41.21875 74.21875 
Q 47.75 74.21875 53.53125 72.484375 
Q 59.328125 70.75 64.40625 67.28125 
z
" id="DejaVuSans-43"/>
     <path d="M 9.8125 72.90625 
L 23.09375 72.90625 
L 55.421875 11.921875 
L 55.421875 72.90625 
L 64.984375 72.90625 
L 64.984375 0 
L 51.703125 0 
L 19.390625 60.984375 
L 19.390625 0 
L 9.8125 0 
z
" id="DejaVuSans-4e"/>
    </defs>
    <g transform="translate(294.09225 52.752)scale(0.12 -0.12)">
     <use xlink:href="#DejaVuSans-4d"/>
     <use x="86.279297" xlink:href="#DejaVuSans-6f"/>
     <use x="147.460938" xlink:href="#DejaVuSans-64"/>
     <use x="210.9375" xlink:href="#DejaVuSans-65"/>
     <use x="272.460938" xlink:href="#DejaVuSans-6c"/>
     <use x="300.244141" xlink:href="#DejaVuSans-20"/>
     <use x="332.03125" xlink:href="#DejaVuSans-41"/>
     <use x="400.439453" xlink:href="#DejaVuSans-4c"/>
     <use x="456.152344" xlink:href="#DejaVuSans-4c"/>
     <use x="511.849609" xlink:href="#DejaVuSans-2d"/>
     <use x="547.933594" xlink:href="#DejaVuSans-43"/>
     <use x="617.757812" xlink:href="#DejaVuSans-4e"/>
     <use x="692.5625" xlink:href="#DejaVuSans-4e"/>
     <use x="767.367188" xlink:href="#DejaVuSans-2d"/>
     <use x="803.451172" xlink:href="#DejaVuSans-43"/>
    </g>
   </g>
   <g id="legend_1">
    <g id="patch_7">
     <path d="M 518.418875 96.10825 
L 601.472 96.10825 
Q 603.472 96.10825 603.472 94.10825 
L 603.472 65.752 
Q 603.472 63.752 601.472 63.752 
L 518.418875 63.752 
Q 516.418875 63.752 516.418875 65.752 
L 516.418875 94.10825 
Q 516.418875 96.10825 518.418875 96.10825 
z
" style="fill:#ffffff;opacity:0.8;stroke:#cccccc;stroke-linejoin:miter;"/>
    </g>
    <g id="line2d_33">
     <path d="M 520.418875 71.850437 
L 540.418875 71.850437 
" style="fill:none;stroke:#1f77b4;stroke-dasharray:5.55,2.4;stroke-dashoffset:0;stroke-width:1.5;"/>
    </g>
    <g id="line2d_34"/>
    <g id="text_19">
     <!-- train error -->
     <defs>
      <path d="M 18.3125 70.21875 
L 18.3125 54.6875 
L 36.8125 54.6875 
L 36.8125 47.703125 
L 18.3125 47.703125 
L 18.3125 18.015625 
Q 18.3125 11.328125 20.140625 9.421875 
Q 21.96875 7.515625 27.59375 7.515625 
L 36.8125 7.515625 
L 36.8125 0 
L 27.59375 0 
Q 17.1875 0 13.234375 3.875 
Q 9.28125 7.765625 9.28125 18.015625 
L 9.28125 47.703125 
L 2.6875 47.703125 
L 2.6875 54.6875 
L 9.28125 54.6875 
L 9.28125 70.21875 
z
" id="DejaVuSans-74"/>
      <path d="M 34.28125 27.484375 
Q 23.390625 27.484375 19.1875 25 
Q 14.984375 22.515625 14.984375 16.5 
Q 14.984375 11.71875 18.140625 8.90625 
Q 21.296875 6.109375 26.703125 6.109375 
Q 34.1875 6.109375 38.703125 11.40625 
Q 43.21875 16.703125 43.21875 25.484375 
L 43.21875 27.484375 
z
M 52.203125 31.203125 
L 52.203125 0 
L 43.21875 0 
L 43.21875 8.296875 
Q 40.140625 3.328125 35.546875 0.953125 
Q 30.953125 -1.421875 24.3125 -1.421875 
Q 15.921875 -1.421875 10.953125 3.296875 
Q 6 8.015625 6 15.921875 
Q 6 25.140625 12.171875 29.828125 
Q 18.359375 34.515625 30.609375 34.515625 
L 43.21875 34.515625 
L 43.21875 35.40625 
Q 43.21875 41.609375 39.140625 45 
Q 35.0625 48.390625 27.6875 48.390625 
Q 23 48.390625 18.546875 47.265625 
Q 14.109375 46.140625 10.015625 43.890625 
L 10.015625 52.203125 
Q 14.9375 54.109375 19.578125 55.046875 
Q 24.21875 56 28.609375 56 
Q 40.484375 56 46.34375 49.84375 
Q 52.203125 43.703125 52.203125 31.203125 
z
" id="DejaVuSans-61"/>
      <path d="M 9.421875 54.6875 
L 18.40625 54.6875 
L 18.40625 0 
L 9.421875 0 
z
M 9.421875 75.984375 
L 18.40625 75.984375 
L 18.40625 64.59375 
L 9.421875 64.59375 
z
" id="DejaVuSans-69"/>
      <path d="M 54.890625 33.015625 
L 54.890625 0 
L 45.90625 0 
L 45.90625 32.71875 
Q 45.90625 40.484375 42.875 44.328125 
Q 39.84375 48.1875 33.796875 48.1875 
Q 26.515625 48.1875 22.3125 43.546875 
Q 18.109375 38.921875 18.109375 30.90625 
L 18.109375 0 
L 9.078125 0 
L 9.078125 54.6875 
L 18.109375 54.6875 
L 18.109375 46.1875 
Q 21.34375 51.125 25.703125 53.5625 
Q 30.078125 56 35.796875 56 
Q 45.21875 56 50.046875 50.171875 
Q 54.890625 44.34375 54.890625 33.015625 
z
" id="DejaVuSans-6e"/>
     </defs>
     <g transform="translate(548.418875 75.350437)scale(0.1 -0.1)">
      <use xlink:href="#DejaVuSans-74"/>
      <use x="39.208984" xlink:href="#DejaVuSans-72"/>
      <use x="80.322266" xlink:href="#DejaVuSans-61"/>
      <use x="141.601562" xlink:href="#DejaVuSans-69"/>
      <use x="169.384766" xlink:href="#DejaVuSans-6e"/>
      <use x="232.763672" xlink:href="#DejaVuSans-20"/>
      <use x="264.550781" xlink:href="#DejaVuSans-65"/>
      <use x="326.074219" xlink:href="#DejaVuSans-72"/>
      <use x="367.171875" xlink:href="#DejaVuSans-72"/>
      <use x="408.253906" xlink:href="#DejaVuSans-6f"/>
      <use x="469.435547" xlink:href="#DejaVuSans-72"/>
     </g>
    </g>
    <g id="line2d_35">
     <path d="M 520.418875 86.528563 
L 540.418875 86.528563 
" style="fill:none;stroke:#ff7f0e;stroke-linecap:square;stroke-width:1.5;"/>
    </g>
    <g id="line2d_36"/>
    <g id="text_20">
     <!-- test error -->
     <defs>
      <path d="M 44.28125 53.078125 
L 44.28125 44.578125 
Q 40.484375 46.53125 36.375 47.5 
Q 32.28125 48.484375 27.875 48.484375 
Q 21.1875 48.484375 17.84375 46.4375 
Q 14.5 44.390625 14.5 40.28125 
Q 14.5 37.15625 16.890625 35.375 
Q 19.28125 33.59375 26.515625 31.984375 
L 29.59375 31.296875 
Q 39.15625 29.25 43.1875 25.515625 
Q 47.21875 21.78125 47.21875 15.09375 
Q 47.21875 7.46875 41.1875 3.015625 
Q 35.15625 -1.421875 24.609375 -1.421875 
Q 20.21875 -1.421875 15.453125 -0.5625 
Q 10.6875 0.296875 5.421875 2 
L 5.421875 11.28125 
Q 10.40625 8.6875 15.234375 7.390625 
Q 20.0625 6.109375 24.8125 6.109375 
Q 31.15625 6.109375 34.5625 8.28125 
Q 37.984375 10.453125 37.984375 14.40625 
Q 37.984375 18.0625 35.515625 20.015625 
Q 33.0625 21.96875 24.703125 23.78125 
L 21.578125 24.515625 
Q 13.234375 26.265625 9.515625 29.90625 
Q 5.8125 33.546875 5.8125 39.890625 
Q 5.8125 47.609375 11.28125 51.796875 
Q 16.75 56 26.8125 56 
Q 31.78125 56 36.171875 55.265625 
Q 40.578125 54.546875 44.28125 53.078125 
z
" id="DejaVuSans-73"/>
     </defs>
     <g transform="translate(548.418875 90.028563)scale(0.1 -0.1)">
      <use xlink:href="#DejaVuSans-74"/>
      <use x="39.208984" xlink:href="#DejaVuSans-65"/>
      <use x="100.732422" xlink:href="#DejaVuSans-73"/>
      <use x="152.832031" xlink:href="#DejaVuSans-74"/>
      <use x="192.041016" xlink:href="#DejaVuSans-20"/>
      <use x="223.828125" xlink:href="#DejaVuSans-65"/>
      <use x="285.351562" xlink:href="#DejaVuSans-72"/>
      <use x="326.449219" xlink:href="#DejaVuSans-72"/>
      <use x="367.53125" xlink:href="#DejaVuSans-6f"/>
      <use x="428.712891" xlink:href="#DejaVuSans-72"/>
     </g>
    </g>
   </g>
  </g>
 </g>
 <defs>
  <clipPath id="p493276317f">
   <rect height="376.992" width="523.962" x="84.51" y="58.752"/>
  </clipPath>
 </defs>
</svg>
