<?xml version="1.0" encoding="utf-8" standalone="no"?>
<!DOCTYPE svg PUBLIC "-//W3C//DTD SVG 1.1//EN"
  "http://www.w3.org/Graphics/SVG/1.1/DTD/svg11.dtd">
<!-- Created with matplotlib (http://matplotlib.org/) -->
<svg height="451pt" version="1.1" viewBox="0 0 712 451" width="712pt" xmlns="http://www.w3.org/2000/svg" xmlns:xlink="http://www.w3.org/1999/xlink">
 <defs>
  <style type="text/css">
*{stroke-linecap:butt;stroke-linejoin:round;}
  </style>
 </defs>
 <g id="figure_1">
  <g id="patch_1">
   <path d="M 0 451.44 
L 712.08 451.44 
L 712.08 0 
L 0 0 
z
" style="fill:#ffffff;"/>
  </g>
  <g id="axes_1">
   <g id="patch_2">
    <path d="M 89.01 401.7816 
L 640.872 401.7816 
L 640.872 54.1728 
L 89.01 54.1728 
z
" style="fill:#ffffff;"/>
   </g>
   <g id="matplotlib.axis_1">
    <g id="xtick_1">
     <g id="line2d_1">
      <path clip-path="url(#p01d6367920)" d="M 114.094636 401.7816 
L 114.094636 54.1728 
" style="fill:none;stroke:#b0b0b0;stroke-linecap:square;stroke-width:0.8;"/>
     </g>
     <g id="line2d_2">
      <defs>
       <path d="M 0 0 
L 0 3.5 
" id="m7ecb00df71" style="stroke:#000000;stroke-width:0.8;"/>
      </defs>
      <g>
       <use style="stroke:#000000;stroke-width:0.8;" x="114.094636" xlink:href="#m7ecb00df71" y="401.7816"/>
      </g>
     </g>
     <g id="text_1">
      <!-- 0 -->
      <defs>
       <path d="M 31.78125 66.40625 
Q 24.171875 66.40625 20.328125 58.90625 
Q 16.5 51.421875 16.5 36.375 
Q 16.5 21.390625 20.328125 13.890625 
Q 24.171875 6.390625 31.78125 6.390625 
Q 39.453125 6.390625 43.28125 13.890625 
Q 47.125 21.390625 47.125 36.375 
Q 47.125 51.421875 43.28125 58.90625 
Q 39.453125 66.40625 31.78125 66.40625 
z
M 31.78125 74.21875 
Q 44.046875 74.21875 50.515625 64.515625 
Q 56.984375 54.828125 56.984375 36.375 
Q 56.984375 17.96875 50.515625 8.265625 
Q 44.046875 -1.421875 31.78125 -1.421875 
Q 19.53125 -1.421875 13.0625 8.265625 
Q 6.59375 17.96875 6.59375 36.375 
Q 6.59375 54.828125 13.0625 64.515625 
Q 19.53125 74.21875 31.78125 74.21875 
z
" id="DejaVuSans-30"/>
      </defs>
      <g transform="translate(110.913386 416.380037)scale(0.1 -0.1)">
       <use xlink:href="#DejaVuSans-30"/>
      </g>
     </g>
    </g>
    <g id="xtick_2">
     <g id="line2d_3">
      <path clip-path="url(#p01d6367920)" d="M 185.970385 401.7816 
L 185.970385 54.1728 
" style="fill:none;stroke:#b0b0b0;stroke-linecap:square;stroke-width:0.8;"/>
     </g>
     <g id="line2d_4">
      <g>
       <use style="stroke:#000000;stroke-width:0.8;" x="185.970385" xlink:href="#m7ecb00df71" y="401.7816"/>
      </g>
     </g>
     <g id="text_2">
      <!-- 50 -->
      <defs>
       <path d="M 10.796875 72.90625 
L 49.515625 72.90625 
L 49.515625 64.59375 
L 19.828125 64.59375 
L 19.828125 46.734375 
Q 21.96875 47.46875 24.109375 47.828125 
Q 26.265625 48.1875 28.421875 48.1875 
Q 40.625 48.1875 47.75 41.5 
Q 54.890625 34.8125 54.890625 23.390625 
Q 54.890625 11.625 47.5625 5.09375 
Q 40.234375 -1.421875 26.90625 -1.421875 
Q 22.3125 -1.421875 17.546875 -0.640625 
Q 12.796875 0.140625 7.71875 1.703125 
L 7.71875 11.625 
Q 12.109375 9.234375 16.796875 8.0625 
Q 21.484375 6.890625 26.703125 6.890625 
Q 35.15625 6.890625 40.078125 11.328125 
Q 45.015625 15.765625 45.015625 23.390625 
Q 45.015625 31 40.078125 35.4375 
Q 35.15625 39.890625 26.703125 39.890625 
Q 22.75 39.890625 18.8125 39.015625 
Q 14.890625 38.140625 10.796875 36.28125 
z
" id="DejaVuSans-35"/>
      </defs>
      <g transform="translate(179.607885 416.380037)scale(0.1 -0.1)">
       <use xlink:href="#DejaVuSans-35"/>
       <use x="63.623047" xlink:href="#DejaVuSans-30"/>
      </g>
     </g>
    </g>
    <g id="xtick_3">
     <g id="line2d_5">
      <path clip-path="url(#p01d6367920)" d="M 257.846134 401.7816 
L 257.846134 54.1728 
" style="fill:none;stroke:#b0b0b0;stroke-linecap:square;stroke-width:0.8;"/>
     </g>
     <g id="line2d_6">
      <g>
       <use style="stroke:#000000;stroke-width:0.8;" x="257.846134" xlink:href="#m7ecb00df71" y="401.7816"/>
      </g>
     </g>
     <g id="text_3">
      <!-- 100 -->
      <defs>
       <path d="M 12.40625 8.296875 
L 28.515625 8.296875 
L 28.515625 63.921875 
L 10.984375 60.40625 
L 10.984375 69.390625 
L 28.421875 72.90625 
L 38.28125 72.90625 
L 38.28125 8.296875 
L 54.390625 8.296875 
L 54.390625 0 
L 12.40625 0 
z
" id="DejaVuSans-31"/>
      </defs>
      <g transform="translate(248.302384 416.380037)scale(0.1 -0.1)">
       <use xlink:href="#DejaVuSans-31"/>
       <use x="63.623047" xlink:href="#DejaVuSans-30"/>
       <use x="127.246094" xlink:href="#DejaVuSans-30"/>
      </g>
     </g>
    </g>
    <g id="xtick_4">
     <g id="line2d_7">
      <path clip-path="url(#p01d6367920)" d="M 329.721883 401.7816 
L 329.721883 54.1728 
" style="fill:none;stroke:#b0b0b0;stroke-linecap:square;stroke-width:0.8;"/>
     </g>
     <g id="line2d_8">
      <g>
       <use style="stroke:#000000;stroke-width:0.8;" x="329.721883" xlink:href="#m7ecb00df71" y="401.7816"/>
      </g>
     </g>
     <g id="text_4">
      <!-- 150 -->
      <g transform="translate(320.178133 416.380037)scale(0.1 -0.1)">
       <use xlink:href="#DejaVuSans-31"/>
       <use x="63.623047" xlink:href="#DejaVuSans-35"/>
       <use x="127.246094" xlink:href="#DejaVuSans-30"/>
      </g>
     </g>
    </g>
    <g id="xtick_5">
     <g id="line2d_9">
      <path clip-path="url(#p01d6367920)" d="M 401.597632 401.7816 
L 401.597632 54.1728 
" style="fill:none;stroke:#b0b0b0;stroke-linecap:square;stroke-width:0.8;"/>
     </g>
     <g id="line2d_10">
      <g>
       <use style="stroke:#000000;stroke-width:0.8;" x="401.597632" xlink:href="#m7ecb00df71" y="401.7816"/>
      </g>
     </g>
     <g id="text_5">
      <!-- 200 -->
      <defs>
       <path d="M 19.1875 8.296875 
L 53.609375 8.296875 
L 53.609375 0 
L 7.328125 0 
L 7.328125 8.296875 
Q 12.9375 14.109375 22.625 23.890625 
Q 32.328125 33.6875 34.8125 36.53125 
Q 39.546875 41.84375 41.421875 45.53125 
Q 43.3125 49.21875 43.3125 52.78125 
Q 43.3125 58.59375 39.234375 62.25 
Q 35.15625 65.921875 28.609375 65.921875 
Q 23.96875 65.921875 18.8125 64.3125 
Q 13.671875 62.703125 7.8125 59.421875 
L 7.8125 69.390625 
Q 13.765625 71.78125 18.9375 73 
Q 24.125 74.21875 28.421875 74.21875 
Q 39.75 74.21875 46.484375 68.546875 
Q 53.21875 62.890625 53.21875 53.421875 
Q 53.21875 48.921875 51.53125 44.890625 
Q 49.859375 40.875 45.40625 35.40625 
Q 44.1875 33.984375 37.640625 27.21875 
Q 31.109375 20.453125 19.1875 8.296875 
z
" id="DejaVuSans-32"/>
      </defs>
      <g transform="translate(392.053882 416.380037)scale(0.1 -0.1)">
       <use xlink:href="#DejaVuSans-32"/>
       <use x="63.623047" xlink:href="#DejaVuSans-30"/>
       <use x="127.246094" xlink:href="#DejaVuSans-30"/>
      </g>
     </g>
    </g>
    <g id="xtick_6">
     <g id="line2d_11">
      <path clip-path="url(#p01d6367920)" d="M 473.473381 401.7816 
L 473.473381 54.1728 
" style="fill:none;stroke:#b0b0b0;stroke-linecap:square;stroke-width:0.8;"/>
     </g>
     <g id="line2d_12">
      <g>
       <use style="stroke:#000000;stroke-width:0.8;" x="473.473381" xlink:href="#m7ecb00df71" y="401.7816"/>
      </g>
     </g>
     <g id="text_6">
      <!-- 250 -->
      <g transform="translate(463.929631 416.380037)scale(0.1 -0.1)">
       <use xlink:href="#DejaVuSans-32"/>
       <use x="63.623047" xlink:href="#DejaVuSans-35"/>
       <use x="127.246094" xlink:href="#DejaVuSans-30"/>
      </g>
     </g>
    </g>
    <g id="xtick_7">
     <g id="line2d_13">
      <path clip-path="url(#p01d6367920)" d="M 545.34913 401.7816 
L 545.34913 54.1728 
" style="fill:none;stroke:#b0b0b0;stroke-linecap:square;stroke-width:0.8;"/>
     </g>
     <g id="line2d_14">
      <g>
       <use style="stroke:#000000;stroke-width:0.8;" x="545.34913" xlink:href="#m7ecb00df71" y="401.7816"/>
      </g>
     </g>
     <g id="text_7">
      <!-- 300 -->
      <defs>
       <path d="M 40.578125 39.3125 
Q 47.65625 37.796875 51.625 33 
Q 55.609375 28.21875 55.609375 21.1875 
Q 55.609375 10.40625 48.1875 4.484375 
Q 40.765625 -1.421875 27.09375 -1.421875 
Q 22.515625 -1.421875 17.65625 -0.515625 
Q 12.796875 0.390625 7.625 2.203125 
L 7.625 11.71875 
Q 11.71875 9.328125 16.59375 8.109375 
Q 21.484375 6.890625 26.8125 6.890625 
Q 36.078125 6.890625 40.9375 10.546875 
Q 45.796875 14.203125 45.796875 21.1875 
Q 45.796875 27.640625 41.28125 31.265625 
Q 36.765625 34.90625 28.71875 34.90625 
L 20.21875 34.90625 
L 20.21875 43.015625 
L 29.109375 43.015625 
Q 36.375 43.015625 40.234375 45.921875 
Q 44.09375 48.828125 44.09375 54.296875 
Q 44.09375 59.90625 40.109375 62.90625 
Q 36.140625 65.921875 28.71875 65.921875 
Q 24.65625 65.921875 20.015625 65.03125 
Q 15.375 64.15625 9.8125 62.3125 
L 9.8125 71.09375 
Q 15.4375 72.65625 20.34375 73.4375 
Q 25.25 74.21875 29.59375 74.21875 
Q 40.828125 74.21875 47.359375 69.109375 
Q 53.90625 64.015625 53.90625 55.328125 
Q 53.90625 49.265625 50.4375 45.09375 
Q 46.96875 40.921875 40.578125 39.3125 
z
" id="DejaVuSans-33"/>
      </defs>
      <g transform="translate(535.80538 416.380037)scale(0.1 -0.1)">
       <use xlink:href="#DejaVuSans-33"/>
       <use x="63.623047" xlink:href="#DejaVuSans-30"/>
       <use x="127.246094" xlink:href="#DejaVuSans-30"/>
      </g>
     </g>
    </g>
    <g id="xtick_8">
     <g id="line2d_15">
      <path clip-path="url(#p01d6367920)" d="M 617.224879 401.7816 
L 617.224879 54.1728 
" style="fill:none;stroke:#b0b0b0;stroke-linecap:square;stroke-width:0.8;"/>
     </g>
     <g id="line2d_16">
      <g>
       <use style="stroke:#000000;stroke-width:0.8;" x="617.224879" xlink:href="#m7ecb00df71" y="401.7816"/>
      </g>
     </g>
     <g id="text_8">
      <!-- 350 -->
      <g transform="translate(607.681129 416.380037)scale(0.1 -0.1)">
       <use xlink:href="#DejaVuSans-33"/>
       <use x="63.623047" xlink:href="#DejaVuSans-35"/>
       <use x="127.246094" xlink:href="#DejaVuSans-30"/>
      </g>
     </g>
    </g>
    <g id="text_9">
     <!-- epoch -->
     <defs>
      <path d="M 56.203125 29.59375 
L 56.203125 25.203125 
L 14.890625 25.203125 
Q 15.484375 15.921875 20.484375 11.0625 
Q 25.484375 6.203125 34.421875 6.203125 
Q 39.59375 6.203125 44.453125 7.46875 
Q 49.3125 8.734375 54.109375 11.28125 
L 54.109375 2.78125 
Q 49.265625 0.734375 44.1875 -0.34375 
Q 39.109375 -1.421875 33.890625 -1.421875 
Q 20.796875 -1.421875 13.15625 6.1875 
Q 5.515625 13.8125 5.515625 26.8125 
Q 5.515625 40.234375 12.765625 48.109375 
Q 20.015625 56 32.328125 56 
Q 43.359375 56 49.78125 48.890625 
Q 56.203125 41.796875 56.203125 29.59375 
z
M 47.21875 32.234375 
Q 47.125 39.59375 43.09375 43.984375 
Q 39.0625 48.390625 32.421875 48.390625 
Q 24.90625 48.390625 20.390625 44.140625 
Q 15.875 39.890625 15.1875 32.171875 
z
" id="DejaVuSans-65"/>
      <path d="M 18.109375 8.203125 
L 18.109375 -20.796875 
L 9.078125 -20.796875 
L 9.078125 54.6875 
L 18.109375 54.6875 
L 18.109375 46.390625 
Q 20.953125 51.265625 25.265625 53.625 
Q 29.59375 56 35.59375 56 
Q 45.5625 56 51.78125 48.09375 
Q 58.015625 40.1875 58.015625 27.296875 
Q 58.015625 14.40625 51.78125 6.484375 
Q 45.5625 -1.421875 35.59375 -1.421875 
Q 29.59375 -1.421875 25.265625 0.953125 
Q 20.953125 3.328125 18.109375 8.203125 
z
M 48.6875 27.296875 
Q 48.6875 37.203125 44.609375 42.84375 
Q 40.53125 48.484375 33.40625 48.484375 
Q 26.265625 48.484375 22.1875 42.84375 
Q 18.109375 37.203125 18.109375 27.296875 
Q 18.109375 17.390625 22.1875 11.75 
Q 26.265625 6.109375 33.40625 6.109375 
Q 40.53125 6.109375 44.609375 11.75 
Q 48.6875 17.390625 48.6875 27.296875 
z
" id="DejaVuSans-70"/>
      <path d="M 30.609375 48.390625 
Q 23.390625 48.390625 19.1875 42.75 
Q 14.984375 37.109375 14.984375 27.296875 
Q 14.984375 17.484375 19.15625 11.84375 
Q 23.34375 6.203125 30.609375 6.203125 
Q 37.796875 6.203125 41.984375 11.859375 
Q 46.1875 17.53125 46.1875 27.296875 
Q 46.1875 37.015625 41.984375 42.703125 
Q 37.796875 48.390625 30.609375 48.390625 
z
M 30.609375 56 
Q 42.328125 56 49.015625 48.375 
Q 55.71875 40.765625 55.71875 27.296875 
Q 55.71875 13.875 49.015625 6.21875 
Q 42.328125 -1.421875 30.609375 -1.421875 
Q 18.84375 -1.421875 12.171875 6.21875 
Q 5.515625 13.875 5.515625 27.296875 
Q 5.515625 40.765625 12.171875 48.375 
Q 18.84375 56 30.609375 56 
z
" id="DejaVuSans-6f"/>
      <path d="M 48.78125 52.59375 
L 48.78125 44.1875 
Q 44.96875 46.296875 41.140625 47.34375 
Q 37.3125 48.390625 33.40625 48.390625 
Q 24.65625 48.390625 19.8125 42.84375 
Q 14.984375 37.3125 14.984375 27.296875 
Q 14.984375 17.28125 19.8125 11.734375 
Q 24.65625 6.203125 33.40625 6.203125 
Q 37.3125 6.203125 41.140625 7.25 
Q 44.96875 8.296875 48.78125 10.40625 
L 48.78125 2.09375 
Q 45.015625 0.34375 40.984375 -0.53125 
Q 36.96875 -1.421875 32.421875 -1.421875 
Q 20.0625 -1.421875 12.78125 6.34375 
Q 5.515625 14.109375 5.515625 27.296875 
Q 5.515625 40.671875 12.859375 48.328125 
Q 20.21875 56 33.015625 56 
Q 37.15625 56 41.109375 55.140625 
Q 45.0625 54.296875 48.78125 52.59375 
z
" id="DejaVuSans-63"/>
      <path d="M 54.890625 33.015625 
L 54.890625 0 
L 45.90625 0 
L 45.90625 32.71875 
Q 45.90625 40.484375 42.875 44.328125 
Q 39.84375 48.1875 33.796875 48.1875 
Q 26.515625 48.1875 22.3125 43.546875 
Q 18.109375 38.921875 18.109375 30.90625 
L 18.109375 0 
L 9.078125 0 
L 9.078125 75.984375 
L 18.109375 75.984375 
L 18.109375 46.1875 
Q 21.34375 51.125 25.703125 53.5625 
Q 30.078125 56 35.796875 56 
Q 45.21875 56 50.046875 50.171875 
Q 54.890625 44.34375 54.890625 33.015625 
z
" id="DejaVuSans-68"/>
     </defs>
     <g transform="translate(349.712875 430.058162)scale(0.1 -0.1)">
      <use xlink:href="#DejaVuSans-65"/>
      <use x="61.523438" xlink:href="#DejaVuSans-70"/>
      <use x="125" xlink:href="#DejaVuSans-6f"/>
      <use x="186.181641" xlink:href="#DejaVuSans-63"/>
      <use x="241.162109" xlink:href="#DejaVuSans-68"/>
     </g>
    </g>
   </g>
   <g id="matplotlib.axis_2">
    <g id="ytick_1">
     <g id="line2d_17">
      <path clip-path="url(#p01d6367920)" d="M 89.01 384.342852 
L 640.872 384.342852 
" style="fill:none;stroke:#b0b0b0;stroke-linecap:square;stroke-width:0.8;"/>
     </g>
     <g id="line2d_18">
      <defs>
       <path d="M 0 0 
L -3.5 0 
" id="m8a007de05a" style="stroke:#000000;stroke-width:0.8;"/>
      </defs>
      <g>
       <use style="stroke:#000000;stroke-width:0.8;" x="89.01" xlink:href="#m8a007de05a" y="384.342852"/>
      </g>
     </g>
     <g id="text_10">
      <!-- 10 -->
      <g transform="translate(69.285 388.14207)scale(0.1 -0.1)">
       <use xlink:href="#DejaVuSans-31"/>
       <use x="63.623047" xlink:href="#DejaVuSans-30"/>
      </g>
     </g>
    </g>
    <g id="ytick_2">
     <g id="line2d_19">
      <path clip-path="url(#p01d6367920)" d="M 89.01 342.333918 
L 640.872 342.333918 
" style="fill:none;stroke:#b0b0b0;stroke-linecap:square;stroke-width:0.8;"/>
     </g>
     <g id="line2d_20">
      <g>
       <use style="stroke:#000000;stroke-width:0.8;" x="89.01" xlink:href="#m8a007de05a" y="342.333918"/>
      </g>
     </g>
     <g id="text_11">
      <!-- 20 -->
      <g transform="translate(69.285 346.133137)scale(0.1 -0.1)">
       <use xlink:href="#DejaVuSans-32"/>
       <use x="63.623047" xlink:href="#DejaVuSans-30"/>
      </g>
     </g>
    </g>
    <g id="ytick_3">
     <g id="line2d_21">
      <path clip-path="url(#p01d6367920)" d="M 89.01 300.324985 
L 640.872 300.324985 
" style="fill:none;stroke:#b0b0b0;stroke-linecap:square;stroke-width:0.8;"/>
     </g>
     <g id="line2d_22">
      <g>
       <use style="stroke:#000000;stroke-width:0.8;" x="89.01" xlink:href="#m8a007de05a" y="300.324985"/>
      </g>
     </g>
     <g id="text_12">
      <!-- 30 -->
      <g transform="translate(69.285 304.124204)scale(0.1 -0.1)">
       <use xlink:href="#DejaVuSans-33"/>
       <use x="63.623047" xlink:href="#DejaVuSans-30"/>
      </g>
     </g>
    </g>
    <g id="ytick_4">
     <g id="line2d_23">
      <path clip-path="url(#p01d6367920)" d="M 89.01 258.316052 
L 640.872 258.316052 
" style="fill:none;stroke:#b0b0b0;stroke-linecap:square;stroke-width:0.8;"/>
     </g>
     <g id="line2d_24">
      <g>
       <use style="stroke:#000000;stroke-width:0.8;" x="89.01" xlink:href="#m8a007de05a" y="258.316052"/>
      </g>
     </g>
     <g id="text_13">
      <!-- 40 -->
      <defs>
       <path d="M 37.796875 64.3125 
L 12.890625 25.390625 
L 37.796875 25.390625 
z
M 35.203125 72.90625 
L 47.609375 72.90625 
L 47.609375 25.390625 
L 58.015625 25.390625 
L 58.015625 17.1875 
L 47.609375 17.1875 
L 47.609375 0 
L 37.796875 0 
L 37.796875 17.1875 
L 4.890625 17.1875 
L 4.890625 26.703125 
z
" id="DejaVuSans-34"/>
      </defs>
      <g transform="translate(69.285 262.11527)scale(0.1 -0.1)">
       <use xlink:href="#DejaVuSans-34"/>
       <use x="63.623047" xlink:href="#DejaVuSans-30"/>
      </g>
     </g>
    </g>
    <g id="ytick_5">
     <g id="line2d_25">
      <path clip-path="url(#p01d6367920)" d="M 89.01 216.307118 
L 640.872 216.307118 
" style="fill:none;stroke:#b0b0b0;stroke-linecap:square;stroke-width:0.8;"/>
     </g>
     <g id="line2d_26">
      <g>
       <use style="stroke:#000000;stroke-width:0.8;" x="89.01" xlink:href="#m8a007de05a" y="216.307118"/>
      </g>
     </g>
     <g id="text_14">
      <!-- 50 -->
      <g transform="translate(69.285 220.106337)scale(0.1 -0.1)">
       <use xlink:href="#DejaVuSans-35"/>
       <use x="63.623047" xlink:href="#DejaVuSans-30"/>
      </g>
     </g>
    </g>
    <g id="ytick_6">
     <g id="line2d_27">
      <path clip-path="url(#p01d6367920)" d="M 89.01 174.298185 
L 640.872 174.298185 
" style="fill:none;stroke:#b0b0b0;stroke-linecap:square;stroke-width:0.8;"/>
     </g>
     <g id="line2d_28">
      <g>
       <use style="stroke:#000000;stroke-width:0.8;" x="89.01" xlink:href="#m8a007de05a" y="174.298185"/>
      </g>
     </g>
     <g id="text_15">
      <!-- 60 -->
      <defs>
       <path d="M 33.015625 40.375 
Q 26.375 40.375 22.484375 35.828125 
Q 18.609375 31.296875 18.609375 23.390625 
Q 18.609375 15.53125 22.484375 10.953125 
Q 26.375 6.390625 33.015625 6.390625 
Q 39.65625 6.390625 43.53125 10.953125 
Q 47.40625 15.53125 47.40625 23.390625 
Q 47.40625 31.296875 43.53125 35.828125 
Q 39.65625 40.375 33.015625 40.375 
z
M 52.59375 71.296875 
L 52.59375 62.3125 
Q 48.875 64.0625 45.09375 64.984375 
Q 41.3125 65.921875 37.59375 65.921875 
Q 27.828125 65.921875 22.671875 59.328125 
Q 17.53125 52.734375 16.796875 39.40625 
Q 19.671875 43.65625 24.015625 45.921875 
Q 28.375 48.1875 33.59375 48.1875 
Q 44.578125 48.1875 50.953125 41.515625 
Q 57.328125 34.859375 57.328125 23.390625 
Q 57.328125 12.15625 50.6875 5.359375 
Q 44.046875 -1.421875 33.015625 -1.421875 
Q 20.359375 -1.421875 13.671875 8.265625 
Q 6.984375 17.96875 6.984375 36.375 
Q 6.984375 53.65625 15.1875 63.9375 
Q 23.390625 74.21875 37.203125 74.21875 
Q 40.921875 74.21875 44.703125 73.484375 
Q 48.484375 72.75 52.59375 71.296875 
z
" id="DejaVuSans-36"/>
      </defs>
      <g transform="translate(69.285 178.097404)scale(0.1 -0.1)">
       <use xlink:href="#DejaVuSans-36"/>
       <use x="63.623047" xlink:href="#DejaVuSans-30"/>
      </g>
     </g>
    </g>
    <g id="ytick_7">
     <g id="line2d_29">
      <path clip-path="url(#p01d6367920)" d="M 89.01 132.289252 
L 640.872 132.289252 
" style="fill:none;stroke:#b0b0b0;stroke-linecap:square;stroke-width:0.8;"/>
     </g>
     <g id="line2d_30">
      <g>
       <use style="stroke:#000000;stroke-width:0.8;" x="89.01" xlink:href="#m8a007de05a" y="132.289252"/>
      </g>
     </g>
     <g id="text_16">
      <!-- 70 -->
      <defs>
       <path d="M 8.203125 72.90625 
L 55.078125 72.90625 
L 55.078125 68.703125 
L 28.609375 0 
L 18.3125 0 
L 43.21875 64.59375 
L 8.203125 64.59375 
z
" id="DejaVuSans-37"/>
      </defs>
      <g transform="translate(69.285 136.08847)scale(0.1 -0.1)">
       <use xlink:href="#DejaVuSans-37"/>
       <use x="63.623047" xlink:href="#DejaVuSans-30"/>
      </g>
     </g>
    </g>
    <g id="ytick_8">
     <g id="line2d_31">
      <path clip-path="url(#p01d6367920)" d="M 89.01 90.280318 
L 640.872 90.280318 
" style="fill:none;stroke:#b0b0b0;stroke-linecap:square;stroke-width:0.8;"/>
     </g>
     <g id="line2d_32">
      <g>
       <use style="stroke:#000000;stroke-width:0.8;" x="89.01" xlink:href="#m8a007de05a" y="90.280318"/>
      </g>
     </g>
     <g id="text_17">
      <!-- 80 -->
      <defs>
       <path d="M 31.78125 34.625 
Q 24.75 34.625 20.71875 30.859375 
Q 16.703125 27.09375 16.703125 20.515625 
Q 16.703125 13.921875 20.71875 10.15625 
Q 24.75 6.390625 31.78125 6.390625 
Q 38.8125 6.390625 42.859375 10.171875 
Q 46.921875 13.96875 46.921875 20.515625 
Q 46.921875 27.09375 42.890625 30.859375 
Q 38.875 34.625 31.78125 34.625 
z
M 21.921875 38.8125 
Q 15.578125 40.375 12.03125 44.71875 
Q 8.5 49.078125 8.5 55.328125 
Q 8.5 64.0625 14.71875 69.140625 
Q 20.953125 74.21875 31.78125 74.21875 
Q 42.671875 74.21875 48.875 69.140625 
Q 55.078125 64.0625 55.078125 55.328125 
Q 55.078125 49.078125 51.53125 44.71875 
Q 48 40.375 41.703125 38.8125 
Q 48.828125 37.15625 52.796875 32.3125 
Q 56.78125 27.484375 56.78125 20.515625 
Q 56.78125 9.90625 50.3125 4.234375 
Q 43.84375 -1.421875 31.78125 -1.421875 
Q 19.734375 -1.421875 13.25 4.234375 
Q 6.78125 9.90625 6.78125 20.515625 
Q 6.78125 27.484375 10.78125 32.3125 
Q 14.796875 37.15625 21.921875 38.8125 
z
M 18.3125 54.390625 
Q 18.3125 48.734375 21.84375 45.5625 
Q 25.390625 42.390625 31.78125 42.390625 
Q 38.140625 42.390625 41.71875 45.5625 
Q 45.3125 48.734375 45.3125 54.390625 
Q 45.3125 60.0625 41.71875 63.234375 
Q 38.140625 66.40625 31.78125 66.40625 
Q 25.390625 66.40625 21.84375 63.234375 
Q 18.3125 60.0625 18.3125 54.390625 
z
" id="DejaVuSans-38"/>
      </defs>
      <g transform="translate(69.285 94.079537)scale(0.1 -0.1)">
       <use xlink:href="#DejaVuSans-38"/>
       <use x="63.623047" xlink:href="#DejaVuSans-30"/>
      </g>
     </g>
    </g>
    <g id="text_18">
     <!-- error (%) -->
     <defs>
      <path d="M 41.109375 46.296875 
Q 39.59375 47.171875 37.8125 47.578125 
Q 36.03125 48 33.890625 48 
Q 26.265625 48 22.1875 43.046875 
Q 18.109375 38.09375 18.109375 28.8125 
L 18.109375 0 
L 9.078125 0 
L 9.078125 54.6875 
L 18.109375 54.6875 
L 18.109375 46.1875 
Q 20.953125 51.171875 25.484375 53.578125 
Q 30.03125 56 36.53125 56 
Q 37.453125 56 38.578125 55.875 
Q 39.703125 55.765625 41.0625 55.515625 
z
" id="DejaVuSans-72"/>
      <path id="DejaVuSans-20"/>
      <path d="M 31 75.875 
Q 24.46875 64.65625 21.28125 53.65625 
Q 18.109375 42.671875 18.109375 31.390625 
Q 18.109375 20.125 21.3125 9.0625 
Q 24.515625 -2 31 -13.1875 
L 23.1875 -13.1875 
Q 15.875 -1.703125 12.234375 9.375 
Q 8.59375 20.453125 8.59375 31.390625 
Q 8.59375 42.28125 12.203125 53.3125 
Q 15.828125 64.359375 23.1875 75.875 
z
" id="DejaVuSans-28"/>
      <path d="M 72.703125 32.078125 
Q 68.453125 32.078125 66.03125 28.46875 
Q 63.625 24.859375 63.625 18.40625 
Q 63.625 12.0625 66.03125 8.421875 
Q 68.453125 4.78125 72.703125 4.78125 
Q 76.859375 4.78125 79.265625 8.421875 
Q 81.6875 12.0625 81.6875 18.40625 
Q 81.6875 24.8125 79.265625 28.4375 
Q 76.859375 32.078125 72.703125 32.078125 
z
M 72.703125 38.28125 
Q 80.421875 38.28125 84.953125 32.90625 
Q 89.5 27.546875 89.5 18.40625 
Q 89.5 9.28125 84.9375 3.921875 
Q 80.375 -1.421875 72.703125 -1.421875 
Q 64.890625 -1.421875 60.34375 3.921875 
Q 55.8125 9.28125 55.8125 18.40625 
Q 55.8125 27.59375 60.375 32.9375 
Q 64.9375 38.28125 72.703125 38.28125 
z
M 22.3125 68.015625 
Q 18.109375 68.015625 15.6875 64.375 
Q 13.28125 60.75 13.28125 54.390625 
Q 13.28125 47.953125 15.671875 44.328125 
Q 18.0625 40.71875 22.3125 40.71875 
Q 26.5625 40.71875 28.96875 44.328125 
Q 31.390625 47.953125 31.390625 54.390625 
Q 31.390625 60.6875 28.953125 64.34375 
Q 26.515625 68.015625 22.3125 68.015625 
z
M 66.40625 74.21875 
L 74.21875 74.21875 
L 28.609375 -1.421875 
L 20.796875 -1.421875 
z
M 22.3125 74.21875 
Q 30.03125 74.21875 34.609375 68.875 
Q 39.203125 63.53125 39.203125 54.390625 
Q 39.203125 45.171875 34.640625 39.84375 
Q 30.078125 34.515625 22.3125 34.515625 
Q 14.546875 34.515625 10.03125 39.859375 
Q 5.515625 45.21875 5.515625 54.390625 
Q 5.515625 63.484375 10.046875 68.84375 
Q 14.59375 74.21875 22.3125 74.21875 
z
" id="DejaVuSans-25"/>
      <path d="M 8.015625 75.875 
L 15.828125 75.875 
Q 23.140625 64.359375 26.78125 53.3125 
Q 30.421875 42.28125 30.421875 31.390625 
Q 30.421875 20.453125 26.78125 9.375 
Q 23.140625 -1.703125 15.828125 -13.1875 
L 8.015625 -13.1875 
Q 14.5 -2 17.703125 9.0625 
Q 20.90625 20.125 20.90625 31.390625 
Q 20.90625 42.671875 17.703125 53.65625 
Q 14.5 64.65625 8.015625 75.875 
z
" id="DejaVuSans-29"/>
     </defs>
     <g transform="translate(63.205312 250.518606)rotate(-90)scale(0.1 -0.1)">
      <use xlink:href="#DejaVuSans-65"/>
      <use x="61.523438" xlink:href="#DejaVuSans-72"/>
      <use x="102.621094" xlink:href="#DejaVuSans-72"/>
      <use x="143.703125" xlink:href="#DejaVuSans-6f"/>
      <use x="204.884766" xlink:href="#DejaVuSans-72"/>
      <use x="245.998047" xlink:href="#DejaVuSans-20"/>
      <use x="277.785156" xlink:href="#DejaVuSans-28"/>
      <use x="316.798828" xlink:href="#DejaVuSans-25"/>
      <use x="411.818359" xlink:href="#DejaVuSans-29"/>
     </g>
    </g>
   </g>
   <g id="line2d_33">
    <path clip-path="url(#p01d6367920)" d="M 114.094636 69.9732 
L 115.532151 99.1274 
L 116.969666 121.350125 
L 118.407181 135.515538 
L 119.844696 144.034949 
L 122.719726 177.465659 
L 124.157241 188.824874 
L 125.594756 201.133492 
L 127.032271 217.180904 
L 128.469786 224.6837 
L 129.907301 234.597808 
L 131.344816 241.571291 
L 132.782331 245.814193 
L 134.219846 250.535997 
L 135.657361 255.761908 
L 137.094876 258.055596 
L 138.532391 257.660712 
L 139.969906 264.424151 
L 141.407421 263.491552 
L 142.844936 266.675829 
L 144.282451 267.465597 
L 145.719966 269.977732 
L 147.157481 270.263392 
L 148.594996 274.136616 
L 150.032511 274.321455 
L 151.470026 277.404911 
L 152.907541 278.236688 
L 154.345056 280.370742 
L 157.220086 285.226974 
L 158.657601 286.66368 
L 160.095116 289.797546 
L 161.532631 292.150047 
L 162.970146 292.427305 
L 165.845176 296.58619 
L 167.282691 297.006279 
L 168.720206 300.971923 
L 170.157721 300.904708 
L 171.595235 301.198771 
L 173.03275 301.652467 
L 174.470265 303.509262 
L 175.90778 304.030173 
L 177.345295 303.383235 
L 178.78281 305.181218 
L 180.220325 305.702128 
L 181.65784 306.920387 
L 183.095355 306.27345 
L 184.53287 307.878191 
L 185.970385 306.60112 
L 187.4079 307.550521 
L 188.845415 306.41628 
L 190.28293 308.474718 
L 193.15796 310.776808 
L 194.595475 309.684575 
L 196.03299 309.600557 
L 197.470505 310.247495 
L 198.90802 309.642566 
L 200.345535 311.432147 
L 201.78305 311.608584 
L 203.220565 311.457352 
L 204.65808 311.843834 
L 206.095595 310.449138 
L 207.53311 311.079272 
L 208.970625 312.179906 
L 210.40814 311.969861 
L 211.845655 312.188308 
L 213.28317 312.843647 
L 216.1582 312.658808 
L 219.03323 313.767844 
L 220.470745 313.028486 
L 221.90826 313.549397 
L 223.345775 313.431772 
L 224.78329 312.835245 
L 226.220805 313.734236 
L 227.65832 313.574603 
L 229.095835 314.448388 
L 230.53335 313.734236 
L 231.970865 313.51579 
L 233.40838 314.792862 
L 234.845895 314.960897 
L 236.283409 314.347567 
L 237.720924 313.860263 
L 239.158439 314.330763 
L 242.033469 315.574228 
L 243.470984 315.81788 
L 244.908499 314.574415 
L 246.346014 315.49021 
L 247.783529 314.994504 
L 249.221044 314.78446 
L 250.658559 316.582442 
L 252.096074 314.641629 
L 253.533589 315.826281 
L 254.971104 315.607835 
L 256.408619 316.716871 
L 257.846134 315.96071 
L 259.283649 317.078148 
L 260.721164 316.784085 
L 262.158679 315.179344 
L 263.596194 316.456415 
L 265.033709 317.498237 
L 266.471224 317.010933 
L 267.908739 315.599433 
L 270.783769 316.464817 
L 272.221284 315.994317 
L 275.096314 316.221165 
L 276.533829 316.893308 
L 277.971344 315.700255 
L 279.408859 316.582442 
L 280.846374 317.162165 
L 282.283889 317.548648 
L 283.721404 316.99413 
L 285.158919 317.489835 
L 286.596434 316.784085 
L 288.033949 317.615862 
L 289.471464 318.245996 
L 290.908979 318.657683 
L 292.346494 317.489835 
L 293.784009 318.119969 
L 295.221524 318.556862 
L 296.659039 317.237782 
L 298.096554 318.87613 
L 299.534069 317.120157 
L 300.971583 318.304808 
L 302.409098 317.884719 
L 303.846613 319.060969 
L 305.284128 317.834308 
L 306.721643 317.733487 
L 308.159158 318.052755 
L 309.596673 317.321799 
L 311.034188 316.99413 
L 312.471703 317.657871 
L 313.909218 319.094576 
L 315.346733 319.833934 
L 316.784248 317.506639 
L 318.221763 318.716496 
L 319.659278 318.724898 
L 321.096793 318.094764 
L 322.534308 318.573666 
L 323.971823 317.918326 
L 325.409338 318.834121 
L 326.846853 318.288005 
L 328.284368 319.313023 
L 329.721883 319.649094 
L 331.159398 319.749916 
L 332.596913 319.632291 
L 335.471943 319.850737 
L 336.909458 318.960148 
L 338.346973 317.884719 
L 339.784488 319.699505 
L 342.659518 318.918139 
L 344.097033 319.11138 
L 345.534548 318.800514 
L 346.972063 319.2038 
L 348.409578 320.027175 
L 349.847093 320.19521 
L 351.284608 319.81713 
L 352.722123 319.262612 
L 354.159638 319.195398 
L 355.597153 320.346443 
L 357.034668 320.127996 
L 358.472183 319.363434 
L 359.909698 319.279416 
L 361.347213 320.228818 
L 362.784728 318.800514 
L 364.222243 320.388452 
L 365.659757 319.229005 
L 367.097272 320.6153 
L 368.534787 319.363434 
L 369.972302 318.489648 
L 371.409817 320.75813 
L 372.847332 320.640505 
L 374.284847 319.119782 
L 375.722362 320.716121 
L 377.159877 320.959773 
L 378.597392 321.363059 
L 380.034907 320.237219 
L 381.472422 319.791925 
L 382.909937 321.522693 
L 385.784967 319.573478 
L 387.222482 322.959398 
L 388.659997 321.447077 
L 390.097512 320.170005 
L 391.535027 322.094014 
L 392.972542 322.094014 
L 394.410057 320.682514 
L 395.847572 322.211639 
L 398.722602 322.186434 
L 400.160117 321.169818 
L 401.597632 350.844928 
L 403.035147 355.197054 
L 404.472662 355.264268 
L 405.910177 356.717777 
L 407.347692 356.742982 
L 408.785207 357.683983 
L 410.222722 357.835215 
L 411.660237 357.641974 
L 413.097752 358.540965 
L 414.535267 358.843429 
L 415.972782 358.398134 
L 418.847812 358.986259 
L 420.285327 359.952465 
L 421.722842 359.221509 
L 423.160357 360.271733 
L 424.597872 360.322144 
L 426.035387 359.986072 
L 427.472902 360.019679 
L 428.910417 361.372367 
L 430.347931 360.456572 
L 434.660476 362.321769 
L 436.097991 362.027706 
L 437.535506 362.103322 
L 438.973021 361.85967 
L 440.410536 362.615831 
L 441.848051 363.07793 
L 443.285566 363.388796 
L 444.723081 363.044322 
L 446.160596 363.430805 
L 449.035626 363.892903 
L 450.473141 364.86751 
L 451.910656 363.985323 
L 454.785686 364.195367 
L 456.223201 364.060939 
L 457.660716 364.077742 
L 460.535746 364.875912 
L 461.973261 364.237376 
L 463.410776 365.590064 
L 464.848291 366.321019 
L 466.285806 364.859108 
L 467.723321 365.632073 
L 472.035866 366.127778 
L 473.473381 376.806449 
L 474.910896 377.70544 
L 476.348411 378.083521 
L 477.785926 378.898494 
L 479.223441 378.789271 
L 480.660956 378.990913 
L 482.098471 378.957306 
L 483.535986 379.495021 
L 484.973501 379.284976 
L 486.411016 379.595842 
L 489.286046 379.11694 
L 490.723561 379.663056 
L 492.161076 379.864699 
L 493.598591 379.789083 
L 495.036105 380.923324 
L 496.47362 380.520039 
L 497.911135 379.763878 
L 499.34865 380.780494 
L 500.786165 379.553833 
L 502.22368 380.629262 
L 503.661195 380.251181 
L 505.09871 380.839307 
L 506.536225 380.822503 
L 507.97374 379.394199 
L 509.411255 380.85611 
L 510.84877 380.998941 
L 512.286285 380.864512 
L 513.7238 381.074557 
L 515.161315 380.52844 
L 516.59883 380.604057 
L 518.036345 380.309994 
L 519.47386 381.343414 
L 520.911375 380.730083 
L 523.786405 381.830717 
L 525.22392 381.158574 
L 526.661435 381.65428 
L 528.09895 381.410628 
L 530.97398 381.645878 
L 532.411495 381.267798 
L 533.84901 382.141583 
L 535.286525 381.410628 
L 538.161555 382.536467 
L 539.59907 381.98195 
L 541.036585 381.805512 
L 542.4741 381.855923 
L 543.911615 381.687887 
L 545.34913 384.300843 
L 546.786645 383.805137 
L 548.22416 384.863762 
L 552.536705 384.376459 
L 553.97422 384.544494 
L 555.411735 384.586503 
L 556.84925 384.914173 
L 558.286765 383.981575 
L 559.724279 384.586503 
L 561.161794 384.678923 
L 562.599309 383.91436 
L 564.036824 384.620111 
L 565.474339 384.930977 
L 566.911854 384.443673 
L 568.349369 384.275637 
L 569.786884 384.519289 
L 571.224399 384.368057 
L 574.099429 384.258834 
L 575.536944 385.552709 
L 576.974459 384.510887 
L 578.411974 384.107602 
L 579.849489 384.989789 
L 581.287004 384.872164 
L 582.724519 385.502298 
L 584.162034 384.914173 
L 585.599549 384.124405 
L 587.037064 384.435271 
L 589.912094 385.460289 
L 591.349609 384.729334 
L 592.787124 384.443673 
L 594.224639 384.510887 
L 595.662154 384.342852 
L 597.099669 384.510887 
L 598.537184 384.813352 
L 599.974699 383.527878 
L 601.412214 385.073807 
L 602.849729 384.746137 
L 604.287244 385.9812 
L 605.724759 384.510887 
L 607.162274 385.149423 
L 608.599789 384.939378 
L 610.037304 385.031798 
L 611.474819 385.258646 
L 612.912334 384.586503 
L 614.349849 385.199834 
L 615.787364 385.60312 
L 615.787364 385.60312 
" style="fill:none;stroke:#1f77b4;stroke-dasharray:5.55,2.4;stroke-dashoffset:0;stroke-width:1.5;"/>
   </g>
   <g id="line2d_34">
    <path clip-path="url(#p01d6367920)" d="M 114.094636 77.425585 
L 115.532151 113.84733 
L 116.969666 132.835368 
L 118.407181 133.087421 
L 119.844696 150.8572 
L 121.282211 173.542024 
L 122.719726 179.717337 
L 124.157241 198.999438 
L 125.594756 206.266983 
L 127.032271 215.887029 
L 128.469786 221.76828 
L 129.907301 226.431271 
L 131.344816 239.49605 
L 132.782331 259.870382 
L 134.219846 211.350064 
L 135.657361 257.139802 
L 137.094876 265.667615 
L 138.532391 240.504264 
L 139.969906 272.263018 
L 141.407421 265.583597 
L 142.844936 252.812881 
L 144.282451 270.750696 
L 145.719966 272.809134 
L 147.157481 271.296812 
L 148.594996 271.506857 
L 150.032511 269.826499 
L 151.470026 272.052973 
L 152.907541 259.030204 
L 154.345056 280.622795 
L 155.782571 288.856546 
L 157.220086 277.892215 
L 158.657601 282.639224 
L 160.095116 291.83918 
L 161.532631 279.908643 
L 162.970146 294.779806 
L 164.407661 289.48668 
L 165.845176 277.850206 
L 167.282691 304.735923 
L 168.720206 290.66293 
L 170.157721 291.629136 
L 171.595235 297.594404 
L 173.03275 299.400788 
L 174.470265 278.85842 
L 175.90778 314.734049 
L 177.345295 311.247308 
L 178.78281 302.635476 
L 180.220325 301.165164 
L 181.65784 309.608959 
L 183.095355 295.746011 
L 184.53287 310.953245 
L 185.970385 315.028112 
L 187.4079 318.346817 
L 188.845415 310.491147 
L 191.720445 306.458289 
L 193.15796 312.549585 
L 194.595475 292.25927 
L 196.03299 303.433646 
L 197.470505 298.980699 
L 198.90802 316.372397 
L 200.345535 286.504046 
L 201.78305 317.84271 
L 203.220565 312.129495 
L 204.65808 307.172441 
L 206.095595 311.331325 
L 207.53311 285.831903 
L 208.970625 306.458289 
L 210.40814 307.844584 
L 211.845655 303.895744 
L 213.28317 290.494895 
L 214.720685 308.138647 
L 216.1582 323.051818 
L 219.03323 308.264673 
L 220.470745 277.808197 
L 221.90826 312.675611 
L 223.345775 313.557799 
L 224.78329 303.517664 
L 226.220805 317.632665 
L 227.65832 299.820878 
L 229.095835 286.798108 
L 230.53335 295.830029 
L 231.970865 309.98704 
L 233.40838 302.593467 
L 234.845895 309.945031 
L 236.283409 309.272888 
L 237.720924 309.398915 
L 239.158439 315.700255 
L 240.595954 306.920387 
L 242.033469 295.325922 
L 243.470984 314.524004 
L 244.908499 314.397978 
L 246.346014 310.239093 
L 247.783529 321.707532 
L 249.221044 304.693914 
L 250.658559 310.155075 
L 252.096074 321.79155 
L 253.533589 313.13771 
L 254.971104 313.51579 
L 256.408619 294.443734 
L 259.283649 317.04454 
L 260.721164 286.420028 
L 262.158679 312.465567 
L 263.596194 302.383423 
L 265.033709 309.861013 
L 266.471224 303.391637 
L 267.908739 317.002531 
L 269.346254 310.113066 
L 270.783769 310.827218 
L 272.221284 306.206236 
L 273.658799 319.943157 
L 275.096314 299.022708 
L 276.533829 322.337666 
L 277.971344 291.587127 
L 279.408859 327.882845 
L 280.846374 312.381549 
L 282.283889 318.850925 
L 283.721404 299.232753 
L 285.158919 311.415343 
L 286.596434 295.031859 
L 288.033949 322.253648 
L 289.471464 319.943157 
L 290.908979 302.173378 
L 292.346494 300.661056 
L 293.784009 299.694851 
L 295.221524 297.048288 
L 296.659039 308.054629 
L 298.096554 305.828155 
L 299.534069 321.623514 
L 300.971583 312.507576 
L 302.409098 326.244497 
L 303.846613 294.191681 
L 305.284128 322.631729 
L 306.721643 309.861013 
L 308.159158 319.144987 
L 309.596673 321.959586 
L 311.034188 310.323111 
L 312.471703 310.407129 
L 313.909218 281.63101 
L 315.346733 315.658246 
L 316.784248 298.182529 
L 318.221763 310.323111 
L 319.659278 299.568824 
L 321.096793 316.960523 
L 322.534308 318.346817 
L 323.971823 316.582442 
L 325.409338 323.34588 
L 326.846853 303.097575 
L 328.284368 298.518601 
L 329.721883 325.152265 
L 331.159398 315.658246 
L 332.596913 321.581505 
L 334.034428 315.658246 
L 335.471943 317.968737 
L 336.909458 305.366057 
L 338.346973 317.04454 
L 339.784488 302.88753 
L 341.222003 323.093827 
L 342.659518 312.675611 
L 344.097033 308.894807 
L 345.534548 302.383423 
L 346.972063 321.371461 
L 348.409578 301.375208 
L 349.847093 314.69204 
L 351.284608 306.626325 
L 352.722123 321.203425 
L 354.159638 319.144987 
L 357.034668 301.459226 
L 358.472183 326.832622 
L 359.909698 308.894807 
L 361.347213 313.89387 
L 362.784728 305.996191 
L 364.222243 321.077398 
L 365.659757 304.44186 
L 367.097272 310.617174 
L 368.534787 314.355969 
L 369.972302 315.952308 
L 371.409817 308.054629 
L 372.847332 312.171504 
L 374.284847 309.020834 
L 375.722362 297.468377 
L 377.159877 304.651905 
L 378.597392 313.599808 
L 380.034907 305.786146 
L 381.472422 318.304808 
L 382.909937 303.727709 
L 384.347452 322.043603 
L 385.784967 325.446327 
L 387.222482 315.826281 
L 388.659997 313.89387 
L 390.097512 309.062843 
L 391.535027 307.172441 
L 392.972542 327.588783 
L 394.410057 317.128558 
L 395.847572 318.472844 
L 397.285087 300.11494 
L 398.722602 308.180655 
L 400.160117 317.212576 
L 401.597632 344.938472 
L 403.035147 347.921106 
L 405.910177 343.594186 
L 407.347692 346.072713 
L 408.785207 349.139365 
L 410.222722 342.543963 
L 411.660237 345.946687 
L 413.097752 344.140302 
L 414.535267 347.37499 
L 415.972782 341.703784 
L 417.410297 341.241686 
L 418.847812 346.114722 
L 420.285327 342.754008 
L 421.722842 345.40057 
L 423.160357 343.552177 
L 424.597872 340.947623 
L 426.035387 344.22432 
L 427.472902 345.442579 
L 428.910417 349.811508 
L 430.347931 345.064499 
L 431.785446 346.618829 
L 433.222961 346.912892 
L 434.660476 344.392356 
L 436.097991 345.442579 
L 437.535506 345.232535 
L 438.973021 338.175034 
L 440.410536 342.333918 
L 441.848051 346.114722 
L 443.285566 349.391419 
L 444.723081 346.786865 
L 446.160596 344.896463 
L 447.598111 348.887312 
L 449.035626 344.014276 
L 450.473141 344.350347 
L 451.910656 349.307401 
L 453.348171 344.098293 
L 456.223201 348.467223 
L 457.660716 342.66999 
L 459.098231 345.316553 
L 460.535746 342.123874 
L 461.973261 348.17316 
L 463.410776 350.735705 
L 464.848291 346.408785 
L 466.285806 339.183248 
L 467.723321 346.912892 
L 469.160836 349.181374 
L 470.598351 346.786865 
L 472.035866 348.425214 
L 473.473381 355.188652 
L 474.910896 356.700973 
L 477.785926 355.692759 
L 479.223441 356.784991 
L 480.660956 355.020616 
L 482.098471 357.373116 
L 483.535986 355.020616 
L 484.973501 353.29825 
L 486.411016 354.012402 
L 487.848531 353.214232 
L 489.286046 353.886375 
L 490.723561 353.928384 
L 492.161076 352.668116 
L 493.598591 355.944813 
L 495.036105 354.390482 
L 496.47362 355.944813 
L 497.911135 354.642536 
L 499.34865 354.138429 
L 500.786165 354.726554 
L 502.22368 353.592312 
L 503.661195 353.424277 
L 505.09871 354.936598 
L 506.536225 353.340259 
L 507.97374 353.214232 
L 509.411255 353.67633 
L 510.84877 355.440705 
L 512.286285 353.844366 
L 513.7238 354.600527 
L 515.161315 356.44892 
L 516.59883 354.516509 
L 518.036345 354.348473 
L 519.47386 353.256241 
L 520.911375 355.986822 
L 522.34889 353.130214 
L 523.786405 353.592312 
L 525.22392 353.508295 
L 526.661435 353.004187 
L 528.09895 355.314679 
L 529.536465 353.67633 
L 530.97398 353.970393 
L 532.411495 356.532938 
L 533.84901 354.600527 
L 535.286525 354.432491 
L 536.72404 352.122 
L 538.161555 352.458071 
L 539.59907 352.962178 
L 541.036585 353.718339 
L 542.4741 350.399633 
L 543.911615 354.810571 
L 545.34913 355.146643 
L 549.661675 357.541152 
L 551.09919 354.978607 
L 552.536705 356.658965 
L 553.97422 356.44892 
L 555.411735 355.314679 
L 556.84925 356.238875 
L 558.286765 353.760348 
L 559.724279 355.314679 
L 561.161794 355.398697 
L 562.599309 355.692759 
L 564.036824 354.600527 
L 565.474339 354.264455 
L 566.911854 354.054411 
L 568.349369 354.642536 
L 569.786884 355.860795 
L 571.224399 354.978607 
L 572.661914 354.264455 
L 574.099429 357.24709 
L 575.536944 354.726554 
L 576.974459 355.944813 
L 578.411974 355.440705 
L 579.849489 355.188652 
L 582.724519 355.524723 
L 584.162034 353.29825 
L 585.599549 355.398697 
L 589.912094 354.390482 
L 591.349609 355.986822 
L 592.787124 355.440705 
L 594.224639 354.558518 
L 595.662154 354.012402 
L 597.099669 353.214232 
L 598.537184 355.314679 
L 599.974699 356.154857 
L 601.412214 354.810571 
L 602.849729 355.398697 
L 604.287244 356.532938 
L 605.724759 353.340259 
L 607.162274 353.802357 
L 608.599789 354.4745 
L 610.037304 355.27267 
L 611.474819 355.356688 
L 612.912334 355.230661 
L 614.349849 355.398697 
L 615.787364 354.012402 
L 615.787364 354.012402 
" style="fill:none;stroke:#ff7f0e;stroke-linecap:square;stroke-width:1.5;"/>
   </g>
   <g id="patch_3">
    <path d="M 89.01 401.7816 
L 89.01 54.1728 
" style="fill:none;stroke:#000000;stroke-linecap:square;stroke-linejoin:miter;stroke-width:0.8;"/>
   </g>
   <g id="patch_4">
    <path d="M 640.872 401.7816 
L 640.872 54.1728 
" style="fill:none;stroke:#000000;stroke-linecap:square;stroke-linejoin:miter;stroke-width:0.8;"/>
   </g>
   <g id="patch_5">
    <path d="M 89.01 401.7816 
L 640.872 401.7816 
" style="fill:none;stroke:#000000;stroke-linecap:square;stroke-linejoin:miter;stroke-width:0.8;"/>
   </g>
   <g id="patch_6">
    <path d="M 89.01 54.1728 
L 640.872 54.1728 
" style="fill:none;stroke:#000000;stroke-linecap:square;stroke-linejoin:miter;stroke-width:0.8;"/>
   </g>
   <g id="text_19">
    <!-- Model ALL-CNN-C -->
    <defs>
     <path d="M 9.8125 72.90625 
L 24.515625 72.90625 
L 43.109375 23.296875 
L 61.8125 72.90625 
L 76.515625 72.90625 
L 76.515625 0 
L 66.890625 0 
L 66.890625 64.015625 
L 48.09375 14.015625 
L 38.1875 14.015625 
L 19.390625 64.015625 
L 19.390625 0 
L 9.8125 0 
z
" id="DejaVuSans-4d"/>
     <path d="M 45.40625 46.390625 
L 45.40625 75.984375 
L 54.390625 75.984375 
L 54.390625 0 
L 45.40625 0 
L 45.40625 8.203125 
Q 42.578125 3.328125 38.25 0.953125 
Q 33.9375 -1.421875 27.875 -1.421875 
Q 17.96875 -1.421875 11.734375 6.484375 
Q 5.515625 14.40625 5.515625 27.296875 
Q 5.515625 40.1875 11.734375 48.09375 
Q 17.96875 56 27.875 56 
Q 33.9375 56 38.25 53.625 
Q 42.578125 51.265625 45.40625 46.390625 
z
M 14.796875 27.296875 
Q 14.796875 17.390625 18.875 11.75 
Q 22.953125 6.109375 30.078125 6.109375 
Q 37.203125 6.109375 41.296875 11.75 
Q 45.40625 17.390625 45.40625 27.296875 
Q 45.40625 37.203125 41.296875 42.84375 
Q 37.203125 48.484375 30.078125 48.484375 
Q 22.953125 48.484375 18.875 42.84375 
Q 14.796875 37.203125 14.796875 27.296875 
z
" id="DejaVuSans-64"/>
     <path d="M 9.421875 75.984375 
L 18.40625 75.984375 
L 18.40625 0 
L 9.421875 0 
z
" id="DejaVuSans-6c"/>
     <path d="M 34.1875 63.1875 
L 20.796875 26.90625 
L 47.609375 26.90625 
z
M 28.609375 72.90625 
L 39.796875 72.90625 
L 67.578125 0 
L 57.328125 0 
L 50.6875 18.703125 
L 17.828125 18.703125 
L 11.1875 0 
L 0.78125 0 
z
" id="DejaVuSans-41"/>
     <path d="M 9.8125 72.90625 
L 19.671875 72.90625 
L 19.671875 8.296875 
L 55.171875 8.296875 
L 55.171875 0 
L 9.8125 0 
z
" id="DejaVuSans-4c"/>
     <path d="M 4.890625 31.390625 
L 31.203125 31.390625 
L 31.203125 23.390625 
L 4.890625 23.390625 
z
" id="DejaVuSans-2d"/>
     <path d="M 64.40625 67.28125 
L 64.40625 56.890625 
Q 59.421875 61.53125 53.78125 63.8125 
Q 48.140625 66.109375 41.796875 66.109375 
Q 29.296875 66.109375 22.65625 58.46875 
Q 16.015625 50.828125 16.015625 36.375 
Q 16.015625 21.96875 22.65625 14.328125 
Q 29.296875 6.6875 41.796875 6.6875 
Q 48.140625 6.6875 53.78125 8.984375 
Q 59.421875 11.28125 64.40625 15.921875 
L 64.40625 5.609375 
Q 59.234375 2.09375 53.4375 0.328125 
Q 47.65625 -1.421875 41.21875 -1.421875 
Q 24.65625 -1.421875 15.125 8.703125 
Q 5.609375 18.84375 5.609375 36.375 
Q 5.609375 53.953125 15.125 64.078125 
Q 24.65625 74.21875 41.21875 74.21875 
Q 47.75 74.21875 53.53125 72.484375 
Q 59.328125 70.75 64.40625 67.28125 
z
" id="DejaVuSans-43"/>
     <path d="M 9.8125 72.90625 
L 23.09375 72.90625 
L 55.421875 11.921875 
L 55.421875 72.90625 
L 64.984375 72.90625 
L 64.984375 0 
L 51.703125 0 
L 19.390625 60.984375 
L 19.390625 0 
L 9.8125 0 
z
" id="DejaVuSans-4e"/>
    </defs>
    <g transform="translate(312.54225 48.1728)scale(0.12 -0.12)">
     <use xlink:href="#DejaVuSans-4d"/>
     <use x="86.279297" xlink:href="#DejaVuSans-6f"/>
     <use x="147.460938" xlink:href="#DejaVuSans-64"/>
     <use x="210.9375" xlink:href="#DejaVuSans-65"/>
     <use x="272.460938" xlink:href="#DejaVuSans-6c"/>
     <use x="300.244141" xlink:href="#DejaVuSans-20"/>
     <use x="332.03125" xlink:href="#DejaVuSans-41"/>
     <use x="400.439453" xlink:href="#DejaVuSans-4c"/>
     <use x="456.152344" xlink:href="#DejaVuSans-4c"/>
     <use x="511.849609" xlink:href="#DejaVuSans-2d"/>
     <use x="547.933594" xlink:href="#DejaVuSans-43"/>
     <use x="617.757812" xlink:href="#DejaVuSans-4e"/>
     <use x="692.5625" xlink:href="#DejaVuSans-4e"/>
     <use x="767.367188" xlink:href="#DejaVuSans-2d"/>
     <use x="803.451172" xlink:href="#DejaVuSans-43"/>
    </g>
   </g>
   <g id="legend_1">
    <g id="patch_7">
     <path d="M 550.818875 91.52905 
L 633.872 91.52905 
Q 635.872 91.52905 635.872 89.52905 
L 635.872 61.1728 
Q 635.872 59.1728 633.872 59.1728 
L 550.818875 59.1728 
Q 548.818875 59.1728 548.818875 61.1728 
L 548.818875 89.52905 
Q 548.818875 91.52905 550.818875 91.52905 
z
" style="fill:#ffffff;opacity:0.8;stroke:#cccccc;stroke-linejoin:miter;"/>
    </g>
    <g id="line2d_35">
     <path d="M 552.818875 67.271237 
L 572.818875 67.271237 
" style="fill:none;stroke:#1f77b4;stroke-dasharray:5.55,2.4;stroke-dashoffset:0;stroke-width:1.5;"/>
    </g>
    <g id="line2d_36"/>
    <g id="text_20">
     <!-- train error -->
     <defs>
      <path d="M 18.3125 70.21875 
L 18.3125 54.6875 
L 36.8125 54.6875 
L 36.8125 47.703125 
L 18.3125 47.703125 
L 18.3125 18.015625 
Q 18.3125 11.328125 20.140625 9.421875 
Q 21.96875 7.515625 27.59375 7.515625 
L 36.8125 7.515625 
L 36.8125 0 
L 27.59375 0 
Q 17.1875 0 13.234375 3.875 
Q 9.28125 7.765625 9.28125 18.015625 
L 9.28125 47.703125 
L 2.6875 47.703125 
L 2.6875 54.6875 
L 9.28125 54.6875 
L 9.28125 70.21875 
z
" id="DejaVuSans-74"/>
      <path d="M 34.28125 27.484375 
Q 23.390625 27.484375 19.1875 25 
Q 14.984375 22.515625 14.984375 16.5 
Q 14.984375 11.71875 18.140625 8.90625 
Q 21.296875 6.109375 26.703125 6.109375 
Q 34.1875 6.109375 38.703125 11.40625 
Q 43.21875 16.703125 43.21875 25.484375 
L 43.21875 27.484375 
z
M 52.203125 31.203125 
L 52.203125 0 
L 43.21875 0 
L 43.21875 8.296875 
Q 40.140625 3.328125 35.546875 0.953125 
Q 30.953125 -1.421875 24.3125 -1.421875 
Q 15.921875 -1.421875 10.953125 3.296875 
Q 6 8.015625 6 15.921875 
Q 6 25.140625 12.171875 29.828125 
Q 18.359375 34.515625 30.609375 34.515625 
L 43.21875 34.515625 
L 43.21875 35.40625 
Q 43.21875 41.609375 39.140625 45 
Q 35.0625 48.390625 27.6875 48.390625 
Q 23 48.390625 18.546875 47.265625 
Q 14.109375 46.140625 10.015625 43.890625 
L 10.015625 52.203125 
Q 14.9375 54.109375 19.578125 55.046875 
Q 24.21875 56 28.609375 56 
Q 40.484375 56 46.34375 49.84375 
Q 52.203125 43.703125 52.203125 31.203125 
z
" id="DejaVuSans-61"/>
      <path d="M 9.421875 54.6875 
L 18.40625 54.6875 
L 18.40625 0 
L 9.421875 0 
z
M 9.421875 75.984375 
L 18.40625 75.984375 
L 18.40625 64.59375 
L 9.421875 64.59375 
z
" id="DejaVuSans-69"/>
      <path d="M 54.890625 33.015625 
L 54.890625 0 
L 45.90625 0 
L 45.90625 32.71875 
Q 45.90625 40.484375 42.875 44.328125 
Q 39.84375 48.1875 33.796875 48.1875 
Q 26.515625 48.1875 22.3125 43.546875 
Q 18.109375 38.921875 18.109375 30.90625 
L 18.109375 0 
L 9.078125 0 
L 9.078125 54.6875 
L 18.109375 54.6875 
L 18.109375 46.1875 
Q 21.34375 51.125 25.703125 53.5625 
Q 30.078125 56 35.796875 56 
Q 45.21875 56 50.046875 50.171875 
Q 54.890625 44.34375 54.890625 33.015625 
z
" id="DejaVuSans-6e"/>
     </defs>
     <g transform="translate(580.818875 70.771237)scale(0.1 -0.1)">
      <use xlink:href="#DejaVuSans-74"/>
      <use x="39.208984" xlink:href="#DejaVuSans-72"/>
      <use x="80.322266" xlink:href="#DejaVuSans-61"/>
      <use x="141.601562" xlink:href="#DejaVuSans-69"/>
      <use x="169.384766" xlink:href="#DejaVuSans-6e"/>
      <use x="232.763672" xlink:href="#DejaVuSans-20"/>
      <use x="264.550781" xlink:href="#DejaVuSans-65"/>
      <use x="326.074219" xlink:href="#DejaVuSans-72"/>
      <use x="367.171875" xlink:href="#DejaVuSans-72"/>
      <use x="408.253906" xlink:href="#DejaVuSans-6f"/>
      <use x="469.435547" xlink:href="#DejaVuSans-72"/>
     </g>
    </g>
    <g id="line2d_37">
     <path d="M 552.818875 81.949363 
L 572.818875 81.949363 
" style="fill:none;stroke:#ff7f0e;stroke-linecap:square;stroke-width:1.5;"/>
    </g>
    <g id="line2d_38"/>
    <g id="text_21">
     <!-- test error -->
     <defs>
      <path d="M 44.28125 53.078125 
L 44.28125 44.578125 
Q 40.484375 46.53125 36.375 47.5 
Q 32.28125 48.484375 27.875 48.484375 
Q 21.1875 48.484375 17.84375 46.4375 
Q 14.5 44.390625 14.5 40.28125 
Q 14.5 37.15625 16.890625 35.375 
Q 19.28125 33.59375 26.515625 31.984375 
L 29.59375 31.296875 
Q 39.15625 29.25 43.1875 25.515625 
Q 47.21875 21.78125 47.21875 15.09375 
Q 47.21875 7.46875 41.1875 3.015625 
Q 35.15625 -1.421875 24.609375 -1.421875 
Q 20.21875 -1.421875 15.453125 -0.5625 
Q 10.6875 0.296875 5.421875 2 
L 5.421875 11.28125 
Q 10.40625 8.6875 15.234375 7.390625 
Q 20.0625 6.109375 24.8125 6.109375 
Q 31.15625 6.109375 34.5625 8.28125 
Q 37.984375 10.453125 37.984375 14.40625 
Q 37.984375 18.0625 35.515625 20.015625 
Q 33.0625 21.96875 24.703125 23.78125 
L 21.578125 24.515625 
Q 13.234375 26.265625 9.515625 29.90625 
Q 5.8125 33.546875 5.8125 39.890625 
Q 5.8125 47.609375 11.28125 51.796875 
Q 16.75 56 26.8125 56 
Q 31.78125 56 36.171875 55.265625 
Q 40.578125 54.546875 44.28125 53.078125 
z
" id="DejaVuSans-73"/>
     </defs>
     <g transform="translate(580.818875 85.449363)scale(0.1 -0.1)">
      <use xlink:href="#DejaVuSans-74"/>
      <use x="39.208984" xlink:href="#DejaVuSans-65"/>
      <use x="100.732422" xlink:href="#DejaVuSans-73"/>
      <use x="152.832031" xlink:href="#DejaVuSans-74"/>
      <use x="192.041016" xlink:href="#DejaVuSans-20"/>
      <use x="223.828125" xlink:href="#DejaVuSans-65"/>
      <use x="285.351562" xlink:href="#DejaVuSans-72"/>
      <use x="326.449219" xlink:href="#DejaVuSans-72"/>
      <use x="367.53125" xlink:href="#DejaVuSans-6f"/>
      <use x="428.712891" xlink:href="#DejaVuSans-72"/>
     </g>
    </g>
   </g>
  </g>
 </g>
 <defs>
  <clipPath id="p01d6367920">
   <rect height="347.6088" width="551.862" x="89.01" y="54.1728"/>
  </clipPath>
 </defs>
</svg>
